{"glyphs":{"0":{"ha":644,"x_min":58,"x_max":686,"o":"m 301 0 q 166 38 226 0 q 78 143 106 76 q 61 207 64 174 q 63 283 58 240 l 93 571 q 106 641 97 611 q 133 703 115 671 l 136 713 l 156 743 l 156 747 q 168 774 161 761 q 183 803 175 788 q 296 910 226 868 q 440 949 365 949 q 576 910 514 949 q 628 863 606 890 q 665 803 651 836 q 683 736 679 769 q 682 661 686 703 l 651 372 q 635 296 646 329 q 606 231 625 263 l 589 207 l 567 165 l 553 143 q 444 38 511 76 q 301 0 376 0 m 438 919 q 308 885 369 919 q 208 790 247 850 q 181 731 190 761 q 168 661 172 701 l 138 372 q 137 303 133 333 q 151 244 140 272 q 231 150 178 185 q 353 115 285 115 q 481 150 419 115 q 581 244 542 185 q 608 303 599 272 q 622 372 618 333 l 653 661 q 653 731 657 701 q 638 790 649 761 q 558 885 611 850 q 438 919 504 919 m 371 278 q 318 301 339 278 q 301 357 297 325 l 333 663 q 340 699 335 679 q 367 736 344 718 q 421 756 390 756 q 473 733 453 756 q 490 678 493 710 l 458 371 q 451 336 456 356 q 422 297 446 317 q 371 278 399 278 m 414 588 q 403 625 417 610 q 368 640 389 640 q 365 640 365 640 q 363 639 364 639 l 360 639 l 331 357 q 341 323 328 338 q 374 308 354 308 q 385 310 381 308 l 414 588 m 303 703 q 284 667 300 682 q 247 653 268 653 q 213 667 226 653 q 203 703 200 682 q 221 737 206 722 q 257 751 236 751 q 292 737 278 751 q 303 703 306 722 m 286 579 q 268 545 283 560 q 232 531 253 531 q 199 545 213 531 q 188 579 185 560 q 206 615 190 600 q 242 629 222 629 q 276 615 263 629 q 286 579 289 600 m 274 457 q 255 423 271 438 q 218 408 239 408 q 185 423 199 408 q 175 457 172 438 q 194 492 178 478 q 229 507 210 507 q 263 492 250 507 q 274 457 276 478 m 494 804 q 513 840 497 825 q 550 854 529 854 q 583 840 569 854 q 593 804 596 825 q 575 770 590 785 q 540 756 560 756 q 506 770 519 756 q 494 804 492 785 m 383 842 q 402 877 386 863 q 439 892 418 892 q 472 877 458 892 q 482 842 485 863 q 463 806 479 821 q 428 792 447 792 q 394 806 407 792 q 383 842 381 821 m 263 811 q 281 845 265 831 q 318 860 297 860 q 351 845 339 860 q 361 811 364 831 q 343 776 358 790 q 307 761 328 761 q 273 776 286 761 q 263 811 260 790 m 168 340 q 187 375 171 361 q 224 389 203 389 q 257 375 244 389 q 267 340 269 361 q 249 305 264 319 q 213 290 233 290 q 178 305 192 290 q 168 340 165 319 m 217 242 q 235 277 219 263 q 271 292 251 292 q 305 277 292 292 q 315 242 318 263 q 297 206 313 221 q 260 192 281 192 q 227 206 240 192 q 217 242 214 221 m 321 201 q 339 236 324 222 q 375 250 354 250 q 410 236 396 250 q 421 201 424 222 q 402 166 418 181 q 365 151 386 151 q 331 166 344 151 q 321 201 318 181 m 435 247 q 453 281 438 267 q 490 296 469 296 q 523 281 510 296 q 533 247 536 267 q 515 212 531 226 q 479 197 499 197 q 445 212 458 197 q 435 247 432 226 m 503 461 q 522 497 506 482 q 558 511 538 511 q 591 497 578 511 q 601 461 604 482 q 583 427 599 442 q 549 413 568 413 q 514 427 528 413 q 503 461 500 442 m 490 349 q 509 383 493 368 q 544 397 525 397 q 578 383 565 397 q 589 349 592 368 q 570 313 586 328 q 533 299 554 299 q 501 313 514 299 q 490 349 488 328 m 515 581 q 534 616 518 601 q 571 631 550 631 q 603 616 590 631 q 614 581 617 601 q 596 547 611 561 q 561 532 581 532 q 526 547 540 532 q 515 581 513 561 m 524 696 q 542 731 526 717 q 579 746 558 746 q 612 731 599 746 q 622 696 625 717 q 603 661 619 675 q 568 647 588 647 q 534 661 547 647 q 524 696 521 675 z "},"1":{"ha":442,"x_min":103,"x_max":500,"o":"m 171 947 l 500 947 l 410 86 l 403 86 l 357 0 l 142 0 l 208 639 l 103 639 l 125 854 l 169 936 l 171 947 m 286 754 l 218 115 l 382 115 l 467 918 l 197 918 l 181 754 l 286 754 m 429 833 q 410 799 426 814 q 375 785 394 785 q 341 799 354 785 q 331 833 328 814 q 349 869 333 854 q 385 883 364 883 q 418 869 404 883 q 429 833 432 854 m 303 833 q 284 799 300 814 q 247 785 268 785 q 215 799 228 785 q 204 833 201 814 q 222 869 207 854 q 257 883 238 883 q 292 869 278 883 q 303 833 306 854 m 415 706 q 397 672 413 686 q 361 657 381 657 q 327 672 340 657 q 317 706 314 686 q 335 741 319 726 q 372 756 351 756 q 405 741 392 756 q 415 706 418 726 m 403 583 q 384 549 400 564 q 349 535 368 535 q 315 549 328 535 q 304 583 301 564 q 322 619 307 604 q 358 633 338 633 q 392 619 378 633 q 403 583 406 604 m 389 450 q 370 415 386 429 q 335 400 354 400 q 301 415 314 400 q 290 450 288 429 q 308 484 293 469 q 344 499 324 499 q 378 484 364 499 q 389 450 392 469 m 375 325 q 356 290 372 304 q 321 275 340 275 q 287 290 300 275 q 276 325 274 304 q 295 359 279 344 q 332 374 311 374 q 365 359 351 374 q 375 325 378 344 m 363 200 q 344 165 360 179 q 308 150 328 150 q 274 165 288 150 q 264 200 261 179 q 282 234 267 219 q 318 249 297 249 q 351 234 338 249 q 363 200 365 219 z "},"2":{"ha":644,"x_min":36,"x_max":689,"o":"m 376 322 q 365 321 371 321 q 353 321 360 321 q 340 321 346 321 q 328 318 335 321 l 329 318 q 328 313 328 317 l 328 310 l 647 310 l 624 86 l 617 86 l 571 0 l 36 0 l 65 278 q 77 327 68 301 q 99 378 86 353 l 126 424 q 149 474 135 450 q 181 518 164 497 q 258 585 215 560 l 96 585 l 96 586 q 138 704 108 651 l 165 756 q 208 832 185 803 q 250 876 231 861 q 344 929 293 911 q 446 947 394 947 q 576 913 519 947 q 664 814 633 878 q 684 749 679 785 q 686 676 689 714 q 667 599 682 638 q 624 526 651 561 l 596 475 q 570 436 585 456 q 538 399 556 417 q 462 348 500 367 q 376 322 424 329 m 401 628 q 371 638 390 638 q 351 634 364 638 q 326 615 338 631 q 363 624 346 622 q 401 628 381 626 m 326 585 q 258 551 289 572 q 201 501 226 529 q 140 367 153 440 l 114 115 l 597 115 l 615 279 l 296 279 l 299 313 q 306 363 301 338 q 324 403 310 388 q 368 432 346 428 q 406 436 390 436 q 415 436 410 436 q 424 438 419 436 q 503 460 468 444 q 569 507 538 475 q 622 572 601 536 q 652 647 643 608 q 657 724 661 685 q 636 797 653 763 q 558 887 608 856 q 443 918 508 918 q 351 901 397 918 q 268 854 306 885 q 176 700 194 789 l 343 700 q 374 738 354 724 q 422 753 394 753 q 479 729 458 753 q 492 672 499 706 q 462 619 486 640 q 403 599 438 599 q 326 585 360 597 m 632 736 q 613 701 629 715 q 576 686 597 686 q 543 701 556 686 q 533 736 531 715 q 551 770 536 756 q 588 785 567 785 q 622 770 608 785 q 632 736 635 756 m 619 613 q 601 578 617 593 q 564 564 585 564 q 531 578 543 564 q 521 613 518 593 q 539 648 524 633 q 575 663 554 663 q 609 648 596 663 q 619 613 622 633 m 463 818 q 481 853 465 839 q 517 868 497 868 q 551 853 538 868 q 561 818 564 839 q 543 784 558 799 q 507 769 528 769 q 474 784 488 769 q 463 818 460 799 m 350 836 q 368 870 353 856 q 404 885 383 885 q 438 870 424 885 q 449 836 451 856 q 430 801 446 815 q 394 786 414 786 q 360 801 374 786 q 350 836 347 815 m 242 769 q 260 803 244 789 q 296 818 275 818 q 329 803 315 818 q 340 769 343 789 q 322 734 338 749 q 286 719 306 719 q 252 734 265 719 q 242 769 239 749 m 501 197 q 514 233 500 217 q 547 253 528 250 q 581 243 567 256 q 596 211 594 231 q 584 174 597 190 q 551 156 571 158 q 517 165 532 153 q 501 197 503 176 m 154 210 q 176 241 160 229 q 213 250 193 253 q 241 231 232 247 q 244 194 250 214 q 222 163 239 175 q 186 153 206 150 q 157 172 167 156 q 154 210 147 189 m 168 332 q 190 364 174 351 q 226 374 207 376 q 254 354 244 371 q 257 317 264 338 q 235 285 251 297 q 199 276 218 274 q 171 296 181 279 q 168 332 161 313 m 217 444 q 239 476 222 464 q 275 485 256 488 q 304 465 294 482 q 308 429 314 449 q 285 397 301 408 q 249 388 268 385 q 220 407 229 390 q 217 444 211 424 m 319 507 q 342 539 325 526 q 378 549 358 551 q 407 529 397 546 q 411 492 417 513 q 388 460 406 472 q 353 451 371 449 q 324 471 333 454 q 319 507 314 488 m 432 540 q 455 573 438 561 q 492 582 472 585 q 519 563 510 579 q 524 525 529 546 q 501 494 517 506 q 465 485 485 482 q 436 504 446 488 q 432 540 426 521 m 272 213 q 294 244 278 232 q 331 254 311 257 q 359 234 350 251 q 363 197 368 217 q 340 165 357 178 q 304 156 324 153 q 276 176 285 158 q 272 213 267 193 m 383 206 q 406 237 389 225 q 442 246 422 249 q 471 226 461 243 q 475 190 481 210 q 452 158 469 171 q 417 149 435 146 q 388 168 397 151 q 383 206 378 185 z "},"3":{"ha":644,"x_min":54,"x_max":686,"o":"m 489 313 q 508 348 492 333 q 543 363 524 363 q 577 348 564 363 q 588 313 590 333 q 569 278 585 293 q 532 264 553 264 q 499 278 513 264 q 489 313 486 293 m 682 676 q 622 532 674 599 l 613 515 q 649 358 657 440 q 626 276 642 311 q 611 247 619 261 q 592 219 603 233 l 563 167 q 486 74 535 114 q 385 15 438 33 q 340 4 361 8 q 299 0 319 0 q 201 20 247 0 q 119 76 154 40 l 119 75 l 118 78 q 70 161 86 113 q 57 269 54 210 l 103 353 q 102 358 101 356 q 103 363 103 360 l 103 364 l 175 364 l 193 535 l 222 586 l 90 586 l 90 588 q 106 640 97 615 q 128 688 114 664 q 131 694 128 692 l 136 706 l 136 704 l 158 747 q 208 830 178 793 q 275 893 239 867 q 353 934 311 919 q 438 949 394 949 q 522 935 486 949 q 622 866 581 914 q 678 758 664 818 q 682 676 686 721 m 588 532 q 643 635 628 579 q 647 749 658 692 q 600 847 636 806 q 510 907 564 888 q 435 919 474 919 q 344 903 388 919 q 266 857 301 886 q 206 788 231 828 q 172 701 182 749 l 338 701 q 371 740 349 725 q 418 756 393 756 q 471 732 450 756 q 476 647 501 694 q 445 612 465 625 q 401 599 425 599 l 267 599 l 250 436 l 360 436 q 403 432 379 436 q 442 410 426 428 q 450 339 461 379 q 428 306 442 319 q 396 286 414 292 q 368 281 385 281 q 323 295 342 281 q 299 333 304 310 l 133 333 q 146 253 131 290 q 189 186 161 217 q 260 134 218 153 q 350 115 301 115 q 428 129 388 115 q 531 188 486 147 q 599 286 575 228 q 619 400 622 344 q 585 503 615 456 l 576 518 l 588 532 m 396 629 q 365 640 382 640 q 335 629 353 640 l 396 629 m 619 732 q 601 698 617 713 q 564 683 585 683 q 531 698 544 683 q 521 732 518 713 q 540 767 524 753 q 575 782 556 782 q 609 767 596 782 q 619 732 622 753 m 596 611 q 577 577 593 592 q 542 563 561 563 q 508 577 521 563 q 497 611 494 592 q 516 647 500 632 q 553 661 532 661 q 585 647 572 661 q 596 611 599 632 m 450 815 q 469 849 453 835 q 506 864 485 864 q 538 849 525 864 q 549 815 551 835 q 530 780 546 794 q 494 765 514 765 q 460 780 474 765 q 450 815 447 794 m 336 832 q 355 867 339 853 q 392 882 371 882 q 425 867 413 882 q 435 832 438 853 q 417 798 432 813 q 382 783 403 783 q 347 798 361 783 q 336 832 333 813 m 228 765 q 247 801 231 786 q 283 815 263 815 q 317 801 304 815 q 326 765 329 786 q 309 731 324 746 q 274 717 294 717 q 239 731 253 717 q 228 765 225 746 m 183 268 q 202 303 186 289 q 238 318 218 318 q 272 303 258 318 q 282 268 285 289 q 263 234 279 249 q 226 219 247 219 q 194 234 207 219 q 183 268 181 249 m 269 194 q 288 230 272 215 q 325 244 304 244 q 358 230 344 244 q 368 194 371 215 q 349 159 365 174 q 314 144 333 144 q 280 159 293 144 q 269 194 267 174 m 396 207 q 415 241 399 226 q 451 256 431 256 q 485 241 472 256 q 496 207 499 226 q 477 172 493 186 q 440 157 461 157 q 406 172 419 157 q 396 207 393 186 m 474 429 q 492 465 476 450 q 529 479 508 479 q 562 465 549 479 q 572 429 575 450 q 553 395 569 410 q 518 381 538 381 q 484 395 497 381 q 474 429 471 410 m 397 519 q 415 553 400 539 q 451 568 431 568 q 485 553 471 568 q 496 519 499 539 q 477 484 493 499 q 442 469 461 469 q 408 484 421 469 q 397 519 394 499 m 279 519 q 297 553 282 539 q 333 568 313 568 q 367 553 353 568 q 378 519 381 539 q 359 484 375 499 q 324 469 343 469 q 290 484 303 469 q 279 519 276 499 z "},"4":{"ha":644,"x_min":85,"x_max":710,"o":"m 486 949 l 710 949 l 619 86 l 613 86 l 567 0 l 351 0 l 379 265 q 283 272 329 265 q 193 306 236 278 q 90 458 110 360 q 88 533 85 488 q 96 617 92 578 l 121 854 l 165 936 l 167 949 l 390 949 l 361 671 q 358 621 358 635 q 360 603 358 607 q 411 574 368 574 l 440 854 l 485 936 l 486 949 m 435 544 l 425 544 q 419 544 422 544 q 413 543 415 543 q 396 544 407 543 q 372 549 385 544 q 348 563 360 553 q 331 590 336 572 q 328 624 328 600 q 336 707 329 647 l 358 918 l 194 918 l 174 719 q 173 713 174 717 q 172 706 172 708 q 167 667 169 688 q 164 625 165 646 q 163 586 163 604 q 167 556 164 568 q 197 475 175 507 q 258 417 218 443 q 342 385 299 389 q 432 381 385 381 l 457 381 l 429 115 l 592 115 l 676 918 l 514 918 l 475 544 l 435 544 m 636 835 q 618 801 633 815 q 582 786 603 786 q 548 801 561 786 q 538 835 535 815 q 556 870 540 856 q 592 885 571 885 q 626 870 613 885 q 636 835 639 856 m 622 707 q 604 673 619 688 q 568 658 589 658 q 534 673 547 658 q 524 707 521 688 q 542 742 526 728 q 579 757 558 757 q 613 742 600 757 q 622 707 625 728 m 608 581 q 591 547 606 561 q 556 532 576 532 q 521 547 535 532 q 510 581 507 561 q 528 616 513 601 q 565 631 544 631 q 599 616 586 631 q 608 581 611 601 m 596 450 q 578 416 593 431 q 542 401 563 401 q 508 416 521 401 q 497 450 494 431 q 515 485 500 471 q 551 500 531 500 q 585 485 572 500 q 596 450 599 471 m 582 326 q 564 291 579 306 q 528 276 549 276 q 494 291 507 276 q 483 326 481 306 q 502 360 486 346 q 539 375 518 375 q 572 360 560 375 q 582 326 585 346 m 569 201 q 551 166 567 181 q 515 151 536 151 q 481 166 494 151 q 471 201 468 181 q 489 235 474 221 q 525 250 504 250 q 559 235 546 250 q 569 201 572 221 m 210 840 q 228 876 213 861 q 265 890 244 890 q 298 876 285 890 q 308 840 311 861 q 290 806 306 821 q 254 792 274 792 q 220 806 233 792 q 210 840 207 821 m 196 713 q 215 748 199 733 q 251 763 231 763 q 284 748 271 763 q 294 713 297 733 q 276 678 292 693 q 242 664 261 664 q 207 678 221 664 q 196 713 193 693 m 183 583 q 201 619 186 604 q 238 633 217 633 q 271 619 257 633 q 282 583 285 604 q 263 549 279 564 q 228 535 247 535 q 194 549 207 535 q 183 583 181 564 m 251 481 q 270 515 254 500 q 307 529 286 529 q 340 515 326 529 q 350 481 353 500 q 331 445 347 460 q 296 431 315 431 q 262 445 275 431 q 251 481 249 460 m 378 457 q 397 492 381 478 q 433 507 413 507 q 467 492 454 507 q 476 457 479 478 q 458 423 474 438 q 422 408 443 408 q 388 423 401 408 q 378 457 375 438 z "},"5":{"ha":644,"x_min":64,"x_max":717,"o":"m 172 947 l 717 947 l 693 726 l 686 726 l 640 640 l 365 640 l 364 629 l 368 629 q 517 606 464 629 q 631 497 596 569 q 654 358 661 433 q 633 279 650 319 q 589 203 615 239 l 585 196 l 571 171 l 574 172 l 563 156 q 545 126 556 140 q 524 99 535 113 q 423 26 479 51 q 308 0 367 0 q 211 19 258 0 q 129 74 164 39 q 81 158 97 106 q 65 269 64 210 l 93 319 l 71 319 l 126 854 l 171 936 l 172 947 m 332 600 l 349 756 l 668 756 l 685 918 l 200 918 l 149 435 l 382 435 q 431 422 410 435 q 460 388 451 410 q 438 307 474 344 q 376 279 410 279 q 331 294 350 279 q 307 333 313 310 l 142 333 q 199 182 139 239 q 271 133 229 150 q 360 115 313 115 q 464 138 414 115 q 554 204 514 161 q 622 340 608 264 q 603 482 635 417 q 563 540 586 518 q 503 579 539 563 q 442 597 475 593 q 365 600 410 600 l 332 600 m 313 828 q 294 794 310 808 q 258 779 278 779 q 224 794 238 779 q 214 828 211 808 q 233 863 217 849 q 269 878 249 878 q 302 863 289 878 q 313 828 315 849 m 425 832 q 407 797 422 811 q 371 782 392 782 q 338 797 351 782 q 326 832 324 811 q 345 867 329 853 q 381 881 361 881 q 415 867 401 881 q 425 832 428 853 m 538 831 q 520 797 535 811 q 485 782 506 782 q 450 797 464 782 q 439 831 436 811 q 458 866 442 851 q 494 881 474 881 q 528 866 515 881 q 538 831 540 851 m 653 829 q 635 795 650 810 q 600 781 619 781 q 565 795 579 781 q 554 829 551 810 q 573 865 557 850 q 610 879 589 879 q 642 865 629 879 q 653 829 656 850 m 297 678 q 278 644 294 658 q 243 629 263 629 q 209 644 222 629 q 199 678 196 658 q 217 713 201 699 q 254 728 233 728 q 287 713 274 728 q 297 678 300 699 m 278 529 q 260 494 275 508 q 224 479 244 479 q 190 494 203 479 q 179 529 176 508 q 197 563 182 549 q 233 578 213 578 q 267 563 254 578 q 278 529 281 549 m 403 526 q 385 491 400 506 q 350 476 369 476 q 315 491 329 476 q 304 526 301 506 q 323 560 307 546 q 360 575 339 575 q 392 560 379 575 q 403 526 406 546 m 524 493 q 505 458 521 472 q 468 443 489 443 q 435 458 449 443 q 425 493 422 472 q 444 528 428 514 q 479 543 460 543 q 513 528 500 543 q 524 493 526 514 m 590 389 q 572 353 588 368 q 536 339 557 339 q 502 353 515 339 q 492 389 489 368 q 510 423 494 408 q 547 438 526 438 q 581 423 568 438 q 590 389 593 408 m 554 258 q 535 224 551 239 q 499 210 519 210 q 466 224 479 210 q 456 258 453 239 q 474 294 458 279 q 510 308 490 308 q 544 294 531 308 q 554 258 557 279 m 421 194 q 403 160 418 175 q 368 146 388 146 q 333 160 347 146 q 322 194 319 175 q 341 230 325 215 q 378 244 357 244 q 410 230 397 244 q 421 194 424 215 m 297 250 q 279 216 294 231 q 243 201 264 201 q 210 216 224 201 q 199 250 196 231 q 217 285 201 271 q 253 300 233 300 q 287 285 274 300 q 297 250 300 271 z "},"6":{"ha":644,"x_min":57,"x_max":685,"o":"m 542 129 q 435 35 499 69 q 301 0 371 0 q 151 49 217 0 l 150 49 q 64 193 79 106 q 59 256 57 225 q 67 318 61 286 l 88 517 q 101 613 93 567 q 132 701 108 660 l 158 751 q 249 875 185 822 q 438 949 333 949 q 535 928 488 949 q 619 872 583 908 q 668 785 651 836 q 683 672 685 733 l 683 671 l 678 671 l 631 586 l 551 586 q 614 514 586 561 q 650 358 658 443 q 632 285 646 321 q 596 217 618 249 l 585 201 l 564 164 l 564 165 l 560 158 q 553 146 557 151 q 546 135 549 140 q 542 129 542 131 m 265 854 q 215 799 233 826 q 185 740 196 771 q 170 676 175 710 q 161 606 165 643 l 140 406 q 135 347 138 375 q 139 289 132 318 q 217 160 151 210 q 280 126 244 138 q 353 115 315 115 q 476 146 419 115 q 571 233 532 176 q 621 366 615 294 q 590 497 626 438 q 542 552 568 532 q 487 583 517 572 q 423 596 457 593 q 350 599 389 599 l 325 599 l 329 638 q 339 696 331 665 q 382 743 347 726 q 419 754 397 754 q 463 740 444 754 q 488 701 482 725 l 654 701 q 596 851 657 789 q 522 901 564 883 q 435 918 481 918 q 265 854 344 918 m 358 628 q 376 628 368 628 q 394 626 385 628 q 367 639 382 639 q 365 638 365 639 q 361 638 364 638 q 360 636 361 636 l 358 628 m 311 308 q 300 354 299 326 q 304 400 301 382 l 307 435 l 342 435 q 352 436 347 436 q 361 436 357 436 q 432 418 410 436 q 456 360 458 397 q 426 301 453 326 q 369 279 401 279 q 311 308 332 279 m 349 315 q 361 310 353 313 q 356 313 358 311 q 349 315 353 314 m 385 806 q 367 772 382 786 q 332 757 351 757 q 297 772 311 757 q 286 806 283 786 q 305 841 289 826 q 342 856 321 856 q 374 841 361 856 q 385 806 388 826 m 314 699 q 296 665 311 679 q 261 650 281 650 q 226 665 240 650 q 215 699 213 679 q 234 734 218 719 q 271 749 250 749 q 303 734 290 749 q 314 699 317 719 m 290 576 q 272 542 288 556 q 235 528 256 528 q 201 542 214 528 q 190 576 188 556 q 209 612 193 597 q 246 626 225 626 q 280 612 267 626 q 290 576 293 597 m 269 318 q 251 283 267 297 q 214 269 235 269 q 181 283 194 269 q 171 318 168 297 q 189 353 174 339 q 224 368 204 368 q 258 353 244 368 q 269 318 272 339 m 340 221 q 322 187 338 201 q 288 172 307 172 q 253 187 267 172 q 242 221 239 201 q 260 256 244 242 q 297 271 276 271 q 330 256 317 271 q 340 221 343 242 m 469 207 q 451 172 467 186 q 414 157 435 157 q 380 172 393 157 q 369 207 367 186 q 388 241 372 226 q 425 256 404 256 q 459 241 446 256 q 469 207 472 226 m 575 293 q 556 258 572 272 q 521 243 540 243 q 487 258 500 243 q 476 293 474 272 q 494 327 479 313 q 531 342 510 342 q 564 327 550 342 q 575 293 578 313 m 594 406 q 576 370 592 385 q 539 356 560 356 q 506 370 519 356 q 496 406 493 385 q 515 441 499 426 q 550 456 531 456 q 584 441 571 456 q 594 406 597 426 m 525 494 q 506 459 522 474 q 469 444 490 444 q 437 459 450 444 q 426 494 424 474 q 445 528 429 514 q 481 543 461 543 q 515 528 501 543 q 525 494 528 514 m 406 519 q 387 484 403 499 q 350 469 371 469 q 317 484 331 469 q 307 519 304 499 q 326 555 310 540 q 361 569 342 569 q 395 555 382 569 q 406 519 408 540 m 279 449 q 262 413 276 428 q 226 399 247 399 q 192 413 206 399 q 181 449 178 428 q 199 483 183 468 q 236 497 215 497 q 269 483 257 497 q 279 449 282 468 m 608 772 q 590 737 606 751 q 553 722 574 722 q 520 737 533 722 q 510 772 507 751 q 528 806 513 792 q 564 821 544 821 q 598 806 585 821 q 608 772 611 792 m 514 836 q 495 801 511 815 q 458 786 479 786 q 425 801 438 786 q 415 836 413 815 q 433 871 418 857 q 468 885 447 885 q 503 871 489 885 q 514 836 517 857 z "},"7":{"ha":644,"x_min":96,"x_max":708,"o":"m 165 947 l 708 947 l 686 729 l 449 86 l 443 86 l 397 0 l 175 0 l 410 639 l 96 639 l 119 854 l 164 935 l 165 947 m 192 918 l 175 754 l 494 754 l 260 115 l 429 115 l 656 732 l 675 918 l 192 918 m 567 574 q 556 537 569 554 q 522 515 543 519 q 487 522 503 511 q 468 554 471 533 q 478 591 465 574 q 514 613 492 608 q 549 604 533 615 q 567 574 565 593 m 546 822 q 558 858 544 842 q 590 878 571 875 q 624 868 610 881 q 640 836 639 856 q 628 799 642 815 q 594 779 614 782 q 561 789 575 776 q 546 822 547 801 m 515 685 q 528 722 514 706 q 563 742 542 739 q 595 732 582 744 q 610 699 608 719 q 598 663 611 679 q 565 643 585 646 q 531 653 546 640 q 515 685 517 665 m 422 433 q 434 470 421 454 q 467 489 447 486 q 501 480 488 492 q 517 447 515 468 q 505 411 518 428 q 472 392 492 394 q 438 401 453 389 q 422 433 424 414 m 376 306 q 390 342 376 325 q 422 361 403 358 q 456 352 442 364 q 471 319 469 340 q 458 283 472 300 q 425 264 444 267 q 392 274 406 261 q 376 306 378 286 m 329 190 q 342 228 328 211 q 375 247 356 244 q 408 238 394 250 q 424 204 422 225 q 412 168 425 185 q 379 149 399 151 q 345 158 360 146 q 329 190 331 171 m 203 835 q 225 866 208 854 q 261 875 242 878 q 289 856 279 872 q 293 819 299 839 q 269 787 286 799 q 233 778 253 775 q 206 797 215 781 q 203 835 196 814 m 319 838 q 342 869 325 857 q 378 878 358 881 q 407 858 397 875 q 411 822 417 842 q 388 790 406 801 q 353 781 371 778 q 324 800 333 783 q 319 838 314 817 m 431 836 q 453 868 436 856 q 489 878 469 881 q 518 858 508 875 q 522 821 528 842 q 499 789 515 801 q 463 779 482 776 q 434 800 443 783 q 431 836 425 817 z "},"8":{"ha":644,"x_min":51,"x_max":689,"o":"m 624 531 l 613 513 q 649 360 657 438 q 606 236 642 297 q 596 219 601 228 q 583 203 590 211 l 565 171 l 568 172 l 557 156 l 554 149 q 444 39 511 78 q 299 0 376 0 q 164 40 225 0 q 75 149 103 81 q 58 269 51 208 q 93 376 64 325 l 121 428 q 125 436 121 432 q 92 586 83 501 q 103 642 94 614 q 129 697 113 669 l 133 706 l 154 742 q 165 770 160 757 q 181 796 171 783 q 292 906 222 864 q 364 937 326 926 q 438 947 401 947 q 576 907 515 947 q 665 796 635 869 q 682 675 689 738 q 663 601 678 638 q 624 532 649 564 l 624 531 m 589 532 q 649 654 636 588 q 638 785 661 721 q 558 883 611 847 q 435 918 506 918 q 303 883 364 918 q 206 785 243 847 q 165 656 167 722 q 201 532 164 589 l 211 517 l 199 503 q 138 379 150 446 q 149 250 125 313 q 226 151 174 186 q 350 115 279 115 q 481 151 421 115 q 581 250 542 186 q 621 379 619 313 q 586 503 622 446 l 575 517 l 589 532 m 418 754 q 470 731 450 754 q 488 676 490 708 q 458 622 483 644 q 401 599 433 599 q 349 622 369 599 q 332 676 329 644 q 360 731 335 708 q 418 754 386 754 m 394 631 q 376 639 389 636 q 394 631 385 632 m 383 435 q 436 413 415 435 q 454 357 457 390 q 425 302 450 325 q 368 279 400 279 q 315 302 336 279 q 299 357 294 325 q 326 412 301 389 q 383 435 351 435 m 361 311 q 343 319 353 318 q 361 311 349 314 m 297 703 q 278 667 294 682 q 243 653 263 653 q 209 667 222 653 q 199 703 196 682 q 217 737 201 722 q 253 751 232 751 q 286 737 272 751 q 297 703 300 722 m 613 688 q 594 653 610 668 q 558 639 579 639 q 524 653 538 639 q 514 688 511 668 q 532 723 517 708 q 568 738 547 738 q 602 723 589 738 q 613 688 615 708 m 483 796 q 502 831 486 817 q 539 846 518 846 q 572 831 558 846 q 582 796 585 817 q 563 762 579 776 q 528 747 547 747 q 494 762 507 747 q 483 796 481 776 m 382 835 q 400 870 385 856 q 435 885 415 885 q 469 870 456 885 q 481 835 483 856 q 462 801 478 815 q 425 786 446 786 q 392 801 406 786 q 382 835 379 815 m 268 803 q 286 837 271 822 q 322 851 301 851 q 356 837 343 851 q 367 803 369 822 q 348 767 364 782 q 311 753 332 753 q 278 767 290 753 q 268 803 265 782 m 488 336 q 506 370 490 356 q 542 385 521 385 q 576 370 563 385 q 586 336 589 356 q 567 301 583 315 q 531 286 551 286 q 497 301 510 286 q 488 336 485 315 m 465 446 q 484 481 468 467 q 519 496 500 496 q 553 481 540 496 q 564 446 567 467 q 546 412 561 426 q 510 397 531 397 q 476 412 490 397 q 465 446 463 426 m 160 338 q 178 372 163 357 q 215 386 194 386 q 248 372 235 386 q 258 338 261 357 q 240 302 256 317 q 204 288 224 288 q 170 302 183 288 q 160 338 157 317 m 213 457 q 231 491 215 476 q 267 506 247 506 q 301 491 288 506 q 311 457 314 476 q 292 422 308 436 q 256 407 276 407 q 223 422 236 407 q 213 457 210 436 m 221 582 q 239 616 224 601 q 275 631 254 631 q 308 616 294 631 q 319 582 322 601 q 301 547 317 561 q 265 532 285 532 q 231 547 244 532 q 221 582 218 561 m 339 515 q 358 549 342 535 q 393 564 374 564 q 427 549 414 564 q 438 515 440 535 q 419 480 435 494 q 383 465 404 465 q 350 480 364 465 q 339 515 336 494 m 467 575 q 485 609 469 594 q 522 624 501 624 q 555 609 542 624 q 565 575 568 594 q 547 540 563 554 q 511 525 531 525 q 477 540 490 525 q 467 575 464 554 m 304 226 q 285 192 301 207 q 249 178 269 178 q 215 192 228 178 q 204 226 201 207 q 222 262 207 247 q 258 276 238 276 q 293 262 279 276 q 304 226 307 247 m 411 183 q 393 149 408 164 q 357 135 378 135 q 323 149 336 135 q 313 183 310 164 q 331 219 315 204 q 367 233 346 233 q 401 219 388 233 q 411 183 414 204 m 528 225 q 509 190 525 204 q 474 175 493 175 q 440 190 453 175 q 429 225 426 204 q 447 260 432 246 q 483 275 463 275 q 517 260 503 275 q 528 225 531 246 z "},"9":{"ha":644,"x_min":58,"x_max":685,"o":"m 679 754 q 683 697 685 725 q 678 640 681 669 l 656 429 q 635 313 649 369 q 582 204 622 257 l 556 154 q 488 72 533 113 q 398 19 446 38 q 301 0 350 0 q 203 19 250 0 q 121 75 157 39 q 58 269 58 144 l 60 269 l 106 353 q 105 358 104 356 q 106 363 106 360 l 106 364 l 188 364 q 152 397 168 379 q 125 435 136 414 q 97 508 106 468 q 93 589 89 547 q 128 699 100 644 q 132 706 131 704 l 132 704 l 156 749 q 172 786 163 769 q 192 818 181 803 q 300 915 236 881 q 438 949 364 949 q 520 935 479 949 q 593 899 561 922 q 647 836 625 874 q 679 754 669 799 m 385 321 q 365 321 374 321 q 346 322 357 321 q 372 311 356 311 q 382 313 378 311 l 383 313 l 385 321 m 135 333 q 190 183 132 246 q 265 133 222 151 q 353 115 307 115 q 441 132 397 115 q 521 181 485 149 q 573 235 554 207 q 603 294 592 264 q 618 358 614 325 q 626 429 622 392 l 647 629 q 648 635 647 632 q 649 640 649 638 q 653 694 651 668 q 650 746 654 719 q 622 819 642 786 q 572 875 601 851 q 510 908 544 896 q 435 919 475 919 q 313 889 369 919 q 215 801 256 858 q 167 668 172 739 q 199 539 163 597 q 245 483 219 503 q 301 452 271 463 q 365 439 331 442 q 439 436 400 436 l 464 436 l 458 396 q 456 370 458 385 q 449 341 454 356 q 434 313 444 326 q 407 290 424 299 q 369 281 388 281 q 325 295 344 281 q 300 333 306 310 l 135 333 m 419 756 q 475 726 457 756 q 488 683 489 710 q 485 635 488 657 l 481 600 l 428 600 q 388 603 407 600 q 356 617 368 606 q 338 642 343 628 q 332 674 332 657 q 361 733 335 708 q 419 756 388 756 m 390 633 q 378 640 386 638 q 390 633 382 636 m 418 231 q 437 265 421 250 q 474 279 453 279 q 506 265 493 279 q 517 231 519 250 q 498 195 514 210 q 463 181 482 181 q 428 195 442 181 q 418 231 415 210 m 489 338 q 508 372 492 357 q 544 386 524 386 q 577 372 564 386 q 588 338 590 357 q 569 302 585 317 q 533 288 553 288 q 499 302 513 288 q 489 338 486 317 m 514 460 q 533 494 517 481 q 569 508 549 508 q 602 494 589 508 q 613 460 615 481 q 594 424 610 439 q 560 410 579 410 q 525 424 539 410 q 514 460 511 439 m 536 718 q 555 753 539 739 q 590 767 571 767 q 624 753 611 767 q 635 718 638 739 q 616 683 632 697 q 579 668 600 668 q 547 683 560 668 q 536 718 533 697 m 463 814 q 481 849 465 835 q 518 864 497 864 q 551 849 539 864 q 561 814 564 835 q 543 780 558 794 q 507 765 528 765 q 473 780 486 765 q 463 814 460 794 m 335 829 q 353 865 338 850 q 390 879 369 879 q 423 865 410 879 q 433 829 436 850 q 415 795 431 810 q 381 781 400 781 q 346 795 360 781 q 335 829 332 810 m 229 743 q 248 778 232 764 q 285 793 264 793 q 319 778 306 793 q 329 743 332 764 q 310 709 326 724 q 274 694 294 694 q 240 709 253 694 q 229 743 226 724 m 200 621 q 219 655 203 640 q 254 669 235 669 q 288 655 275 669 q 299 621 301 640 q 281 585 296 600 q 244 571 265 571 q 211 585 225 571 q 200 621 197 600 m 268 529 q 286 565 271 550 q 322 579 301 579 q 357 565 343 579 q 368 529 371 550 q 349 495 365 510 q 313 481 333 481 q 278 495 292 481 q 268 529 265 510 m 394 513 q 413 548 397 533 q 449 563 429 563 q 483 548 469 563 q 493 513 496 533 q 475 478 490 492 q 439 464 460 464 q 406 478 419 464 q 394 513 392 492 m 524 588 q 542 623 526 608 q 579 638 558 638 q 612 623 599 638 q 622 588 625 608 q 603 553 619 568 q 568 539 588 539 q 534 553 547 539 q 524 588 521 568 m 196 264 q 215 299 199 285 q 250 314 231 314 q 284 299 271 314 q 294 264 297 285 q 276 230 292 244 q 240 215 261 215 q 207 230 221 215 q 196 264 193 244 m 292 200 q 310 235 294 221 q 344 250 325 250 q 379 235 365 250 q 390 200 393 221 q 372 165 388 179 q 335 151 356 151 q 302 165 315 151 q 292 200 289 179 z "},"\u0000":{"ha":0,"x_min":0,"x_max":0,"o":""},"\r":{"ha":429,"x_min":0,"x_max":0,"o":""}," ":{"ha":429,"x_min":0,"x_max":0,"o":""},"G":{"ha":644,"x_min":60,"x_max":685,"o":"m 676 672 l 653 629 l 678 629 l 650 357 q 629 278 644 317 q 586 204 614 240 l 560 158 q 451 43 519 86 q 303 0 382 0 q 222 13 260 0 q 123 76 164 32 q 67 181 82 121 q 60 240 60 211 q 64 303 61 269 l 90 551 q 100 615 94 586 q 119 675 106 644 q 124 687 122 682 q 129 699 126 692 l 157 747 l 165 767 q 243 872 193 826 q 358 936 293 917 q 401 945 381 943 q 442 947 421 947 q 538 926 493 947 q 615 867 582 904 q 666 781 647 831 q 683 672 685 731 l 676 672 m 439 918 q 364 908 403 918 q 262 850 307 890 q 193 757 217 810 q 175 701 181 729 q 167 642 169 674 l 140 392 q 137 333 138 361 q 143 278 136 306 q 192 184 156 224 q 282 126 229 144 q 318 118 301 121 q 354 115 335 115 q 449 134 404 115 q 531 186 494 153 q 592 263 568 219 q 621 357 615 307 l 646 599 l 354 599 l 336 435 l 464 435 l 457 357 q 429 303 453 325 q 374 279 406 281 l 371 279 q 319 300 339 279 q 300 351 299 321 q 303 395 300 374 q 308 436 306 417 q 309 450 308 443 q 311 464 310 457 q 315 491 314 478 q 318 517 315 504 q 320 544 319 531 q 322 569 321 557 q 323 583 322 576 q 325 597 324 590 q 329 639 328 618 q 335 683 331 660 q 365 733 340 713 q 421 754 390 754 l 424 754 q 465 739 447 753 q 489 701 482 725 l 656 701 q 639 787 656 747 q 593 856 622 826 q 524 901 564 885 q 439 918 485 918 m 386 319 l 344 319 q 375 310 356 310 q 385 311 382 310 l 386 319 m 308 699 q 290 663 306 678 q 254 649 275 649 q 219 663 233 649 q 208 699 206 678 q 227 733 211 718 q 264 747 243 747 q 298 733 285 747 q 308 699 311 718 m 285 574 q 266 538 282 553 q 231 524 250 524 q 197 538 210 524 q 186 574 183 553 q 205 608 189 593 q 242 622 221 622 q 274 608 261 622 q 285 574 288 593 m 272 451 q 253 417 269 431 q 218 403 238 403 q 184 417 197 403 q 174 451 171 431 q 192 487 176 472 q 228 501 207 501 q 261 487 247 501 q 272 451 275 472 m 497 782 q 515 817 500 803 q 551 831 531 831 q 586 817 572 831 q 597 782 600 803 q 578 747 594 761 q 542 732 563 732 q 508 747 521 732 q 497 782 494 761 m 393 838 q 412 872 396 858 q 447 886 428 886 q 481 872 468 886 q 492 838 494 858 q 473 802 489 817 q 436 788 457 788 q 403 802 417 788 q 393 838 390 817 m 276 803 q 295 837 279 822 q 332 851 311 851 q 365 837 351 851 q 375 803 378 822 q 356 767 372 782 q 321 753 340 753 q 287 767 300 753 q 276 803 274 782 m 167 332 q 185 367 169 353 q 221 382 200 382 q 256 367 242 382 q 267 332 269 353 q 248 298 264 313 q 211 283 232 283 q 177 298 190 283 q 167 332 164 313 m 224 235 q 242 269 226 254 q 279 283 258 283 q 312 269 299 283 q 322 235 325 254 q 303 199 319 214 q 268 185 288 185 q 234 199 247 185 q 224 235 221 214 m 344 210 q 363 244 347 229 q 400 258 379 258 q 433 244 419 258 q 443 210 446 229 q 425 174 440 189 q 390 160 410 160 q 356 174 369 160 q 344 210 342 189 m 453 276 q 472 311 456 297 q 508 325 488 325 q 541 311 528 325 q 551 276 554 297 q 533 241 549 256 q 499 226 518 226 q 464 241 478 226 q 453 276 450 256 m 492 394 q 510 428 494 414 q 547 443 526 443 q 580 428 567 443 q 590 394 593 414 q 572 359 588 374 q 538 344 557 344 q 503 359 517 344 q 492 394 489 374 m 500 519 q 518 553 503 539 q 553 568 533 568 q 588 553 574 568 q 599 519 601 539 q 580 484 596 499 q 543 469 564 469 q 510 484 524 469 q 500 519 497 499 m 382 517 q 400 551 385 536 q 436 565 415 565 q 469 551 456 565 q 481 517 483 536 q 462 481 478 496 q 426 467 446 467 q 392 481 406 467 q 382 517 379 496 z "},"F":{"ha":644,"x_min":32,"x_max":710,"o":"m 247 0 l 32 0 l 121 854 l 165 935 l 167 947 l 710 947 l 686 724 l 679 724 l 633 639 l 358 639 l 357 628 l 676 628 l 653 404 l 646 404 l 600 319 l 325 319 l 300 86 l 293 86 l 247 0 m 110 115 l 274 115 l 307 435 l 626 435 l 644 599 l 325 599 l 342 754 l 661 754 l 678 918 l 194 918 l 110 115 m 307 824 q 288 789 304 803 q 251 775 272 775 q 219 789 232 775 q 208 824 206 803 q 227 859 211 844 q 263 874 243 874 q 297 859 283 874 q 307 824 310 844 m 424 826 q 405 791 421 806 q 368 776 389 776 q 335 791 347 776 q 325 826 322 806 q 343 861 328 847 q 379 875 358 875 q 413 861 400 875 q 424 826 426 847 m 653 824 q 634 789 650 803 q 597 775 618 775 q 565 789 578 775 q 554 824 551 803 q 573 859 557 844 q 608 874 589 874 q 642 859 629 874 q 653 824 656 844 m 293 696 q 274 662 290 676 q 238 647 258 647 q 205 662 218 647 q 194 696 192 676 q 213 731 197 717 q 249 746 229 746 q 283 731 269 746 q 293 696 296 717 m 281 569 q 262 535 278 550 q 225 521 246 521 q 192 535 206 521 q 182 569 179 550 q 200 605 185 590 q 235 619 215 619 q 269 605 256 619 q 281 569 283 590 m 267 439 q 248 405 264 419 q 211 390 232 390 q 178 405 192 390 q 168 439 165 419 q 186 474 171 460 q 221 489 201 489 q 256 474 242 489 q 267 439 269 460 m 493 510 q 474 475 490 489 q 438 461 458 461 q 404 475 417 461 q 394 510 392 489 q 413 545 397 531 q 449 560 428 560 q 483 545 469 560 q 493 510 496 531 m 535 825 q 516 790 532 804 q 479 775 500 775 q 445 790 458 775 q 435 825 432 804 q 453 860 438 846 q 490 874 469 874 q 524 860 511 874 q 535 825 538 846 m 614 513 q 595 477 611 492 q 558 463 579 463 q 524 477 538 463 q 514 513 511 492 q 533 547 517 532 q 569 561 549 561 q 603 547 590 561 q 614 513 617 532 m 381 508 q 362 474 378 488 q 325 460 346 460 q 292 474 306 460 q 282 508 279 488 q 301 544 285 529 q 336 558 317 558 q 370 544 357 558 q 381 508 383 529 m 253 315 q 235 280 250 294 q 199 265 219 265 q 165 280 179 265 q 154 315 151 294 q 173 349 157 335 q 208 364 189 364 q 242 349 229 364 q 253 315 256 335 m 240 189 q 222 155 238 169 q 185 140 206 140 q 152 155 165 140 q 142 189 139 169 q 160 224 144 210 q 196 239 176 239 q 230 224 217 239 q 240 189 243 210 z "},"O":{"ha":644,"x_min":58,"x_max":686,"o":"m 301 0 q 166 38 226 0 q 78 143 106 76 q 61 207 64 174 q 63 283 58 240 l 93 571 q 106 641 97 611 q 133 703 115 671 l 136 713 l 156 743 l 156 747 q 168 774 161 761 q 183 803 175 788 q 296 910 226 868 q 440 949 365 949 q 576 910 514 949 q 628 863 606 890 q 665 803 651 836 q 683 736 679 769 q 682 661 686 703 l 651 372 q 635 296 646 329 q 606 231 625 263 l 589 207 l 567 165 l 553 143 q 444 38 511 76 q 301 0 376 0 m 438 919 q 308 885 369 919 q 208 790 247 850 q 181 731 190 761 q 168 661 172 701 l 138 372 q 137 303 133 333 q 151 244 140 272 q 231 150 178 185 q 353 115 285 115 q 481 150 419 115 q 581 244 542 185 q 608 303 599 272 q 622 372 618 333 l 653 661 q 653 731 657 701 q 638 790 649 761 q 558 885 611 850 q 438 919 504 919 m 371 278 q 318 301 339 278 q 301 357 297 325 l 333 663 q 340 699 335 679 q 367 736 344 718 q 421 756 390 756 q 473 733 453 756 q 490 678 493 710 l 458 371 q 451 336 456 356 q 422 297 446 317 q 371 278 399 278 m 414 588 q 403 625 417 610 q 368 640 389 640 q 365 640 365 640 q 363 639 364 639 l 360 639 l 331 357 q 341 323 328 338 q 374 308 354 308 q 385 310 381 308 l 414 588 m 303 703 q 284 667 300 682 q 247 653 268 653 q 213 667 226 653 q 203 703 200 682 q 221 737 206 722 q 257 751 236 751 q 292 737 278 751 q 303 703 306 722 m 286 579 q 268 545 283 560 q 232 531 253 531 q 199 545 213 531 q 188 579 185 560 q 206 615 190 600 q 242 629 222 629 q 276 615 263 629 q 286 579 289 600 m 274 457 q 255 423 271 438 q 218 408 239 408 q 185 423 199 408 q 175 457 172 438 q 194 492 178 478 q 229 507 210 507 q 263 492 250 507 q 274 457 276 478 m 494 804 q 513 840 497 825 q 550 854 529 854 q 583 840 569 854 q 593 804 596 825 q 575 770 590 785 q 540 756 560 756 q 506 770 519 756 q 494 804 492 785 m 383 842 q 402 877 386 863 q 439 892 418 892 q 472 877 458 892 q 482 842 485 863 q 463 806 479 821 q 428 792 447 792 q 394 806 407 792 q 383 842 381 821 m 263 811 q 281 845 265 831 q 318 860 297 860 q 351 845 339 860 q 361 811 364 831 q 343 776 358 790 q 307 761 328 761 q 273 776 286 761 q 263 811 260 790 m 168 340 q 187 375 171 361 q 224 389 203 389 q 257 375 244 389 q 267 340 269 361 q 249 305 264 319 q 213 290 233 290 q 178 305 192 290 q 168 340 165 319 m 217 242 q 235 277 219 263 q 271 292 251 292 q 305 277 292 292 q 315 242 318 263 q 297 206 313 221 q 260 192 281 192 q 227 206 240 192 q 217 242 214 221 m 321 201 q 339 236 324 222 q 375 250 354 250 q 410 236 396 250 q 421 201 424 222 q 402 166 418 181 q 365 151 386 151 q 331 166 344 151 q 321 201 318 181 m 435 247 q 453 281 438 267 q 490 296 469 296 q 523 281 510 296 q 533 247 536 267 q 515 212 531 226 q 479 197 499 197 q 445 212 458 197 q 435 247 432 226 m 503 461 q 522 497 506 482 q 558 511 538 511 q 591 497 578 511 q 601 461 604 482 q 583 427 599 442 q 549 413 568 413 q 514 427 528 413 q 503 461 500 442 m 490 349 q 509 383 493 368 q 544 397 525 397 q 578 383 565 397 q 589 349 592 368 q 570 313 586 328 q 533 299 554 299 q 501 313 514 299 q 490 349 488 328 m 515 581 q 534 616 518 601 q 571 631 550 631 q 603 616 590 631 q 614 581 617 601 q 596 547 611 561 q 561 532 581 532 q 526 547 540 532 q 515 581 513 561 m 524 696 q 542 731 526 717 q 579 746 558 746 q 612 731 599 746 q 622 696 625 717 q 603 661 619 675 q 568 647 588 647 q 534 661 547 647 q 524 696 521 675 z "},"E":{"ha":644,"x_min":35,"x_max":713,"o":"m 569 0 l 35 0 l 124 856 l 168 935 l 169 949 l 713 949 l 689 725 l 682 725 l 636 639 l 361 639 l 360 629 l 679 629 l 656 406 l 649 406 l 603 319 l 328 319 l 326 310 l 646 310 l 622 86 l 615 86 l 569 0 m 111 115 l 596 115 l 614 279 l 293 279 l 308 435 l 629 435 l 647 599 l 326 599 l 343 756 l 664 756 l 681 919 l 196 919 l 111 115 m 504 510 q 485 476 501 490 q 450 461 469 461 q 416 476 429 461 q 406 510 403 490 q 424 545 408 531 q 461 560 440 560 q 494 545 481 560 q 504 510 507 531 m 619 513 q 601 477 617 492 q 564 463 585 463 q 531 477 544 463 q 521 513 518 492 q 540 548 524 533 q 575 563 556 563 q 609 548 596 563 q 619 513 622 533 m 396 510 q 377 474 393 489 q 342 460 361 460 q 308 474 321 460 q 297 510 294 489 q 316 544 300 529 q 353 558 332 558 q 385 544 372 558 q 396 510 399 529 m 317 832 q 299 797 314 811 q 263 782 283 782 q 228 797 242 782 q 218 832 215 811 q 236 867 221 853 q 272 882 251 882 q 306 867 293 882 q 317 832 319 853 m 432 835 q 413 799 429 814 q 378 785 397 785 q 344 799 357 785 q 333 835 331 814 q 351 869 336 856 q 388 883 367 883 q 421 869 407 883 q 432 835 435 856 m 654 832 q 636 797 651 811 q 601 782 621 782 q 567 797 581 782 q 556 832 553 811 q 574 867 558 853 q 611 882 590 882 q 644 867 631 882 q 654 832 657 853 m 304 704 q 285 670 301 685 q 249 656 269 656 q 215 670 228 656 q 206 704 203 685 q 224 740 208 725 q 260 754 239 754 q 294 740 281 754 q 304 704 307 725 m 290 578 q 272 542 288 557 q 235 528 256 528 q 201 542 214 528 q 192 578 189 557 q 210 613 194 599 q 246 626 225 626 q 280 613 267 626 q 290 578 293 599 m 276 447 q 258 412 274 426 q 222 397 243 397 q 188 412 201 397 q 178 447 175 426 q 196 483 181 468 q 232 497 211 497 q 266 483 253 497 q 276 447 279 468 m 539 833 q 520 798 536 813 q 485 783 504 783 q 451 798 464 783 q 440 833 438 813 q 458 868 443 854 q 494 882 474 882 q 528 868 514 882 q 539 833 542 854 m 360 196 q 342 160 357 175 q 307 146 326 146 q 272 160 286 146 q 261 196 258 175 q 280 230 264 215 q 317 244 296 244 q 349 230 336 244 q 360 196 363 215 m 588 193 q 569 158 585 172 q 533 143 554 143 q 499 158 513 143 q 489 193 486 172 q 508 227 492 213 q 544 242 524 242 q 578 227 565 242 q 588 193 590 213 m 471 194 q 452 159 468 174 q 417 144 436 144 q 383 159 396 144 q 372 194 369 174 q 391 228 375 214 q 428 243 407 243 q 460 228 447 243 q 471 194 474 214 m 264 322 q 245 288 261 303 q 208 274 229 274 q 175 288 188 274 q 165 322 163 303 q 183 358 168 343 q 219 372 199 372 q 253 358 240 372 q 264 322 267 343 m 250 197 q 232 162 247 176 q 196 147 217 147 q 162 162 175 147 q 151 197 149 176 q 169 231 154 217 q 206 246 185 246 q 240 231 226 246 q 250 197 253 217 z "},"I":{"ha":347,"x_min":46,"x_max":404,"o":"m 261 0 l 46 0 l 135 854 l 179 933 l 181 947 l 404 947 l 314 85 l 308 85 l 261 0 m 208 918 l 124 115 l 288 115 l 372 918 l 208 918 m 331 828 q 312 792 328 807 q 276 778 296 778 q 242 792 256 778 q 232 828 229 807 q 251 862 235 847 q 288 876 267 876 q 320 862 307 876 q 331 828 333 847 m 317 700 q 299 665 314 679 q 264 650 283 650 q 229 665 243 650 q 218 700 215 679 q 237 734 221 719 q 274 749 253 749 q 306 734 293 749 q 317 700 319 719 m 304 578 q 285 542 301 557 q 250 528 269 528 q 216 542 229 528 q 206 578 203 557 q 224 612 208 597 q 261 626 240 626 q 294 612 281 626 q 304 578 307 597 m 290 443 q 272 408 288 422 q 236 393 256 393 q 202 408 215 393 q 192 443 189 422 q 210 477 194 463 q 247 492 226 492 q 280 477 267 492 q 290 443 293 463 m 278 318 q 259 283 275 297 q 224 269 243 269 q 190 283 203 269 q 179 318 176 297 q 197 353 182 339 q 233 368 213 368 q 267 353 253 368 q 278 318 281 339 m 264 193 q 245 158 261 172 q 210 143 229 143 q 176 158 189 143 q 165 193 163 172 q 184 227 168 213 q 221 242 200 242 q 253 227 240 242 q 264 193 267 213 z "},"H":{"ha":644,"x_min":36,"x_max":714,"o":"m 251 0 l 36 0 l 125 854 l 169 935 l 171 949 l 394 949 l 361 629 l 421 629 l 444 854 l 489 935 l 490 949 l 714 949 l 624 86 l 617 86 l 571 0 l 356 0 l 389 319 l 329 319 l 304 86 l 297 86 l 251 0 m 467 435 l 433 115 l 596 115 l 681 918 l 518 918 l 485 599 l 329 599 l 363 918 l 199 918 l 114 115 l 278 115 l 311 435 l 467 435 m 318 826 q 299 792 315 807 q 264 778 283 778 q 230 792 243 778 q 219 826 217 807 q 238 862 222 847 q 275 876 254 876 q 308 862 294 876 q 318 826 321 847 m 304 700 q 286 665 301 679 q 251 650 271 650 q 217 665 231 650 q 206 700 203 679 q 224 734 208 719 q 261 749 240 749 q 294 734 281 749 q 304 700 307 719 m 292 576 q 273 542 289 557 q 238 528 257 528 q 203 542 217 528 q 193 576 190 557 q 212 612 196 597 q 249 626 228 626 q 281 612 268 626 q 292 576 294 597 m 278 443 q 259 408 275 422 q 224 393 243 393 q 190 408 203 393 q 179 443 176 422 q 198 477 182 463 q 235 492 214 492 q 267 477 254 492 q 278 443 281 463 m 389 510 q 370 476 386 490 q 333 461 354 461 q 301 476 314 461 q 290 510 288 490 q 309 545 293 531 q 344 560 325 560 q 378 545 365 560 q 389 510 392 531 m 506 510 q 487 476 503 490 q 450 461 471 461 q 417 476 431 461 q 407 510 404 490 q 426 545 410 531 q 461 560 442 560 q 495 545 482 560 q 506 510 508 531 m 265 318 q 247 283 263 297 q 211 269 231 269 q 177 283 190 269 q 167 318 164 297 q 185 353 169 339 q 221 368 200 368 q 254 353 240 368 q 265 318 268 339 m 251 193 q 233 158 249 172 q 197 143 217 143 q 163 158 176 143 q 153 193 150 172 q 172 227 156 213 q 208 242 188 242 q 241 227 228 242 q 251 193 254 213 m 643 838 q 624 802 640 817 q 588 788 608 788 q 555 802 568 788 q 544 838 542 817 q 563 872 547 858 q 599 886 579 886 q 633 872 619 886 q 643 838 646 858 m 629 710 q 611 675 626 689 q 575 661 596 661 q 542 675 556 661 q 531 710 528 689 q 549 745 533 731 q 585 760 565 760 q 619 745 606 760 q 629 710 632 731 m 617 588 q 598 552 614 567 q 561 538 582 538 q 528 552 542 538 q 518 588 515 567 q 537 622 521 608 q 572 636 553 636 q 606 622 593 636 q 617 588 619 608 m 603 453 q 584 419 600 433 q 547 404 568 404 q 515 419 528 404 q 504 453 501 433 q 523 488 507 474 q 558 503 539 503 q 592 488 579 503 q 603 453 606 474 m 589 328 q 571 294 586 308 q 535 279 556 279 q 501 294 515 279 q 490 328 488 308 q 509 363 493 349 q 544 378 525 378 q 578 363 565 378 q 589 328 592 349 m 576 203 q 558 169 574 183 q 521 154 542 154 q 488 169 501 154 q 478 203 475 183 q 497 238 481 224 q 532 253 513 253 q 566 238 553 253 q 576 203 579 224 z "},"J":{"ha":644,"x_min":54,"x_max":706,"o":"m 103 363 l 322 363 l 322 361 q 369 310 333 313 q 376 310 372 310 q 382 311 379 311 l 383 318 q 384 332 383 325 q 386 346 385 339 q 385 360 385 353 q 388 374 386 367 l 438 854 l 482 936 l 483 949 l 706 949 l 647 393 q 640 328 644 357 q 621 268 635 299 q 582 204 607 236 l 563 171 q 557 160 558 165 q 478 68 526 107 q 376 13 431 29 q 296 0 340 0 q 122 78 193 0 q 72 165 89 115 q 56 268 54 214 l 101 353 q 102 357 101 356 q 103 361 103 358 l 103 363 m 450 351 q 420 300 444 321 q 367 279 396 279 l 363 279 q 321 294 339 281 q 297 332 303 308 l 132 332 q 148 247 132 286 q 192 178 164 207 q 260 132 221 149 q 347 115 300 115 q 421 126 388 115 q 524 183 479 143 q 594 278 569 224 q 610 333 606 306 q 618 393 615 360 l 674 918 l 511 918 l 463 463 q 459 407 461 435 q 450 351 457 379 m 481 343 q 499 378 483 364 q 536 393 515 393 q 569 378 556 393 q 579 343 582 364 q 561 309 576 324 q 526 294 546 294 q 492 309 506 294 q 481 343 478 324 m 497 472 q 516 506 500 492 q 551 521 532 521 q 585 506 572 521 q 596 472 599 492 q 577 437 593 451 q 540 422 561 422 q 508 437 521 422 q 497 472 494 451 m 510 594 q 528 628 513 614 q 564 643 544 643 q 598 628 585 643 q 608 594 611 614 q 590 559 606 574 q 554 544 575 544 q 521 559 535 544 q 510 594 507 574 m 521 722 q 540 758 524 743 q 576 772 556 772 q 609 758 596 772 q 619 722 622 743 q 601 688 617 703 q 565 674 585 674 q 531 688 544 674 q 521 722 518 703 m 535 847 q 553 883 538 868 q 589 897 568 897 q 622 883 608 897 q 633 847 636 868 q 615 813 631 826 q 579 799 599 799 q 545 813 558 799 q 535 847 532 826 m 288 264 q 269 228 285 243 q 235 214 254 214 q 200 228 214 214 q 189 264 186 243 q 208 298 192 283 q 244 313 224 313 q 277 298 264 313 q 288 264 290 283 m 392 197 q 374 163 389 178 q 338 149 358 149 q 304 163 318 149 q 293 197 290 178 q 312 233 296 218 q 347 247 328 247 q 381 233 368 247 q 392 197 394 218 m 519 231 q 501 196 517 210 q 465 182 486 182 q 431 196 444 182 q 421 231 418 210 q 440 266 424 251 q 476 281 456 281 q 510 266 497 281 q 519 231 522 251 z "},"K":{"ha":644,"x_min":40,"x_max":724,"o":"m 472 947 l 724 947 l 722 946 l 464 517 l 632 85 l 622 85 l 576 0 l 336 0 l 304 85 l 303 85 l 257 0 l 40 0 l 131 854 l 175 935 l 176 947 l 400 947 l 385 801 l 472 947 m 340 672 l 367 918 l 203 918 l 118 115 l 282 115 l 297 254 l 310 368 l 403 115 l 588 115 l 431 517 l 672 918 l 488 918 l 340 672 m 335 844 q 317 810 332 825 q 282 796 301 796 q 247 810 261 796 q 236 844 233 825 q 255 880 239 865 q 292 894 271 894 q 324 880 311 894 q 335 844 338 865 m 592 850 q 573 816 589 831 q 536 801 557 801 q 503 816 517 801 q 493 850 490 831 q 512 885 496 871 q 547 900 528 900 q 581 885 568 900 q 592 850 594 871 m 521 742 q 502 706 518 721 q 465 692 486 692 q 433 706 446 692 q 422 742 419 721 q 440 777 425 763 q 475 792 456 792 q 510 777 496 792 q 521 742 524 763 m 449 638 q 430 603 446 618 q 393 589 414 589 q 360 603 372 589 q 350 638 347 618 q 368 673 353 658 q 404 688 383 688 q 438 673 425 688 q 449 638 451 658 m 403 514 q 385 479 400 493 q 350 465 369 465 q 315 479 329 465 q 304 514 301 493 q 323 549 307 535 q 360 564 339 564 q 392 549 379 564 q 403 514 406 535 m 429 396 q 412 362 426 376 q 376 347 397 347 q 342 362 356 347 q 331 396 328 376 q 349 431 333 417 q 386 446 365 446 q 419 431 407 446 q 429 396 432 417 m 476 289 q 458 253 474 268 q 422 239 443 239 q 389 253 403 239 q 378 289 375 268 q 397 324 381 310 q 432 338 413 338 q 466 324 453 338 q 476 289 479 310 m 526 185 q 508 150 524 164 q 474 136 493 136 q 439 150 453 136 q 428 185 425 164 q 447 220 431 206 q 483 235 463 235 q 516 220 503 235 q 526 185 529 206 m 318 714 q 299 678 315 693 q 264 664 283 664 q 230 678 243 664 q 219 714 217 693 q 238 748 222 733 q 274 763 253 763 q 307 748 293 763 q 318 714 321 733 m 304 586 q 285 552 301 567 q 250 538 269 538 q 216 552 229 538 q 206 586 203 567 q 224 622 208 607 q 261 636 240 636 q 294 622 281 636 q 304 586 307 607 m 288 449 q 269 413 285 428 q 233 399 254 399 q 200 413 214 399 q 189 449 186 428 q 208 483 192 468 q 243 497 224 497 q 277 483 264 497 q 288 449 290 468 m 275 318 q 256 283 272 297 q 219 268 240 268 q 187 283 200 268 q 176 318 174 297 q 194 352 179 338 q 229 367 210 367 q 264 352 250 367 q 275 318 278 338 m 258 194 q 240 159 256 174 q 204 144 224 144 q 170 159 183 144 q 160 194 157 174 q 178 228 163 214 q 215 243 194 243 q 248 228 235 243 q 258 194 261 214 z "},"U":{"ha":644,"x_min":57,"x_max":715,"o":"m 304 0 q 169 38 229 0 q 81 143 110 76 q 65 282 57 200 l 125 854 l 169 935 l 171 949 l 396 949 l 336 374 q 337 340 333 353 q 347 319 340 326 q 361 309 353 311 q 376 307 369 307 q 388 308 383 307 l 444 854 l 490 935 l 492 949 l 715 949 l 656 372 q 639 293 650 328 q 608 229 628 258 l 592 208 l 569 167 l 567 161 l 567 160 l 554 143 q 502 85 532 111 q 440 40 472 58 q 372 10 407 21 q 304 0 338 0 m 461 374 q 447 322 457 342 q 423 293 436 303 q 396 281 410 283 q 374 278 382 278 q 349 281 363 278 q 325 294 336 285 q 308 323 314 304 q 306 374 301 342 l 363 918 l 199 918 l 142 372 q 156 244 133 297 q 234 149 181 183 q 356 115 288 115 q 485 149 424 115 q 583 244 546 183 q 625 372 617 296 l 682 918 l 518 918 l 461 374 m 493 350 q 512 385 496 371 q 547 400 528 400 q 581 385 568 400 q 592 350 594 371 q 573 315 589 329 q 536 301 557 301 q 503 315 517 301 q 493 350 490 329 m 506 472 q 524 508 508 493 q 560 522 540 522 q 594 508 581 522 q 604 472 607 493 q 586 438 601 453 q 550 424 571 424 q 517 438 531 424 q 506 472 503 453 m 519 594 q 538 630 522 615 q 575 644 554 644 q 608 630 594 644 q 618 594 621 615 q 600 560 615 575 q 565 546 585 546 q 531 560 544 546 q 519 594 517 575 m 528 722 q 547 756 531 742 q 582 771 563 771 q 616 756 603 771 q 626 722 629 742 q 608 687 624 701 q 571 672 592 672 q 538 687 551 672 q 528 722 525 701 m 542 840 q 560 876 544 861 q 597 890 576 890 q 630 876 617 890 q 640 840 643 861 q 622 806 638 821 q 586 792 606 792 q 552 806 565 792 q 542 840 539 821 m 229 835 q 247 869 232 854 q 282 883 263 883 q 317 869 303 883 q 328 835 331 854 q 309 799 325 814 q 272 785 293 785 q 240 799 253 785 q 229 835 226 814 m 175 350 q 194 385 178 371 q 231 399 210 399 q 263 385 250 399 q 274 350 276 371 q 255 315 271 329 q 219 300 239 300 q 185 315 199 300 q 175 350 172 329 m 186 471 q 205 505 189 490 q 240 519 221 519 q 274 505 261 519 q 285 471 288 490 q 266 435 282 450 q 229 421 250 421 q 197 435 210 421 q 186 471 183 450 m 199 593 q 217 627 201 613 q 253 642 233 642 q 287 627 274 642 q 297 593 300 613 q 279 558 294 572 q 243 543 264 543 q 210 558 224 543 q 199 593 196 572 m 217 715 q 235 751 219 736 q 269 765 250 765 q 304 751 290 765 q 315 715 318 736 q 297 680 313 694 q 260 665 281 665 q 227 680 240 665 q 217 715 214 694 m 311 246 q 292 210 308 225 q 256 196 276 196 q 223 210 236 196 q 213 246 210 225 q 231 281 215 267 q 267 294 247 294 q 301 281 288 294 q 311 246 314 267 m 419 200 q 401 166 417 181 q 365 151 385 151 q 331 166 344 151 q 321 200 318 181 q 339 235 324 221 q 375 250 354 250 q 408 235 394 250 q 419 200 422 221 m 533 239 q 515 205 531 219 q 479 190 499 190 q 445 205 458 190 q 435 239 432 219 q 453 274 438 260 q 489 289 468 289 q 522 274 508 289 q 533 239 536 260 z "},"T":{"ha":604,"x_min":110,"x_max":668,"o":"m 178 949 l 668 949 l 644 725 l 638 725 l 592 640 l 503 640 l 444 86 l 439 86 l 392 0 l 176 0 l 243 640 l 110 640 l 132 856 l 176 938 l 178 949 m 322 756 l 254 115 l 418 115 l 486 756 l 618 756 l 635 919 l 204 919 l 188 756 l 322 756 m 464 838 q 445 802 461 817 q 408 788 429 788 q 374 802 388 788 q 364 838 361 817 q 383 872 367 857 q 419 886 399 886 q 453 872 440 886 q 464 838 467 857 m 346 839 q 327 804 343 818 q 290 790 311 790 q 257 804 269 790 q 247 839 244 818 q 265 874 250 860 q 301 889 281 889 q 335 874 322 889 q 346 839 349 860 m 590 840 q 572 805 588 819 q 535 790 556 790 q 502 805 515 790 q 492 840 489 819 q 510 874 494 860 q 546 889 526 889 q 580 874 567 889 q 590 840 593 860 m 450 710 q 431 674 447 689 q 394 660 415 660 q 360 674 374 660 q 350 710 347 689 q 369 744 353 729 q 406 758 385 758 q 440 744 426 758 q 450 710 453 729 m 438 586 q 419 552 435 567 q 382 538 403 538 q 348 552 361 538 q 338 586 335 567 q 356 622 340 607 q 393 636 372 636 q 427 622 414 636 q 438 586 440 607 m 424 453 q 405 417 421 432 q 368 403 389 403 q 334 417 347 403 q 324 453 321 432 q 342 487 326 472 q 378 501 357 501 q 413 487 399 501 q 424 453 426 472 m 410 328 q 392 292 407 307 q 356 278 376 278 q 321 292 335 278 q 310 328 307 307 q 328 362 313 347 q 365 376 344 376 q 399 362 386 376 q 410 328 413 347 m 397 201 q 378 167 394 182 q 342 153 363 153 q 308 167 321 153 q 297 201 294 182 q 316 237 300 222 q 353 251 332 251 q 387 237 374 251 q 397 201 400 222 z "},"Y":{"ha":644,"x_min":82,"x_max":713,"o":"m 224 289 q 117 390 153 324 q 90 539 82 457 l 124 854 l 168 936 l 169 949 l 393 949 l 361 642 q 363 608 358 621 q 373 587 367 594 q 388 577 379 579 q 403 575 396 575 q 414 576 410 575 l 443 854 l 488 936 l 489 949 l 713 949 l 679 629 q 614 471 671 544 l 607 456 l 594 433 l 594 435 l 590 426 q 486 315 550 357 l 463 86 l 457 86 l 410 0 l 194 0 l 224 289 m 488 642 q 474 591 485 610 q 451 563 464 572 q 425 549 439 553 q 400 546 411 546 q 376 549 389 546 q 352 563 363 553 q 335 591 342 572 q 332 642 329 610 l 361 918 l 197 918 l 167 629 q 191 492 158 553 q 288 401 224 431 l 301 396 l 272 117 l 436 117 l 465 396 l 481 401 q 597 492 551 431 q 650 629 642 553 l 681 918 l 517 918 l 488 642 m 517 600 q 535 635 519 621 q 571 649 551 649 q 605 635 592 649 q 615 600 618 621 q 597 565 613 579 q 560 550 581 550 q 527 565 540 550 q 517 600 514 579 m 531 722 q 549 758 533 743 q 586 772 565 772 q 619 758 606 772 q 629 722 632 743 q 610 688 626 703 q 575 674 594 674 q 541 688 554 674 q 531 722 528 703 m 543 844 q 562 880 546 865 q 599 894 578 894 q 631 880 618 894 q 642 844 644 865 q 624 810 639 825 q 589 796 608 796 q 554 810 568 796 q 543 844 540 825 m 193 607 q 211 641 196 626 q 247 656 226 656 q 281 641 268 656 q 292 607 294 626 q 274 572 289 586 q 238 557 258 557 q 203 572 217 557 q 193 607 190 586 m 208 729 q 226 765 211 750 q 263 779 242 779 q 296 765 282 779 q 307 729 310 750 q 288 694 304 708 q 253 679 272 679 q 219 694 232 679 q 208 729 206 708 m 221 851 q 240 886 224 872 q 276 900 256 900 q 309 886 296 900 q 319 851 322 872 q 301 816 317 831 q 265 801 285 801 q 231 816 244 801 q 221 851 218 831 m 324 326 q 342 360 326 346 q 378 375 358 375 q 412 360 399 375 q 422 326 425 346 q 403 291 419 306 q 367 276 388 276 q 334 291 347 276 q 324 326 321 306 m 311 199 q 329 234 314 219 q 364 249 344 249 q 399 234 385 249 q 410 199 413 219 q 391 165 407 179 q 354 150 375 150 q 322 165 335 150 q 311 199 308 179 m 322 497 q 303 463 319 478 q 268 449 288 449 q 234 463 247 449 q 224 497 221 478 q 242 533 226 518 q 279 547 258 547 q 312 533 299 547 q 322 497 325 518 m 435 450 q 416 415 432 429 q 381 400 400 400 q 347 415 360 400 q 336 450 333 429 q 354 485 339 471 q 390 500 369 500 q 424 485 410 500 q 435 450 438 471 m 556 492 q 537 456 553 471 q 500 442 521 442 q 467 456 481 442 q 457 492 454 471 q 475 526 460 511 q 510 540 490 540 q 544 526 531 540 q 556 492 558 511 z "},"Z":{"ha":679,"x_min":33,"x_max":736,"o":"m 101 294 l 368 626 l 100 626 l 122 842 l 167 924 l 168 936 l 736 936 l 714 714 l 699 696 l 660 626 l 394 297 l 669 297 l 646 74 l 639 74 l 593 -12 l 33 -12 l 56 203 l 100 285 l 101 293 l 101 294 m 499 742 l 497 740 l 131 283 l 111 103 l 619 103 l 638 267 l 317 267 l 685 725 l 704 906 l 196 906 l 179 742 l 499 742 m 457 496 q 435 462 453 475 q 399 451 418 449 q 367 470 378 454 q 360 507 356 486 q 381 540 364 526 q 418 550 399 553 q 450 531 439 547 q 457 496 461 515 m 565 831 q 588 862 571 850 q 624 871 604 874 q 653 851 643 868 q 656 815 663 835 q 633 783 650 794 q 597 774 617 771 q 568 793 578 776 q 565 831 558 810 m 518 714 q 540 745 524 733 q 576 754 557 757 q 604 735 594 751 q 608 699 614 718 q 585 667 601 679 q 550 657 569 654 q 521 676 531 660 q 518 714 511 693 m 438 610 q 460 642 443 631 q 496 651 476 654 q 524 632 514 649 q 528 594 535 615 q 506 563 522 575 q 469 554 489 551 q 441 574 450 557 q 438 610 432 590 m 288 407 q 310 440 293 428 q 346 449 328 451 q 375 429 365 446 q 379 393 385 413 q 357 360 374 372 q 321 351 340 349 q 292 371 301 354 q 288 407 282 388 m 208 311 q 232 343 215 331 q 267 353 249 356 q 296 333 286 350 q 300 296 306 315 q 278 264 294 276 q 242 254 261 251 q 213 274 222 257 q 208 311 203 292 m 161 196 q 183 228 167 215 q 219 238 200 240 q 249 217 239 235 q 253 181 258 200 q 229 149 246 161 q 193 139 213 136 q 165 158 174 142 q 161 196 156 175 m 278 194 q 301 226 283 214 q 336 236 318 239 q 365 217 356 233 q 369 179 375 200 q 347 148 364 160 q 311 139 331 136 q 282 158 292 142 q 278 194 272 175 m 394 196 q 418 228 401 215 q 454 238 435 240 q 483 217 474 235 q 486 181 492 200 q 464 149 481 161 q 428 139 447 136 q 399 158 408 142 q 394 196 389 175 m 508 200 q 531 231 514 219 q 567 240 547 243 q 594 221 585 238 q 597 185 603 204 q 575 153 592 165 q 539 143 558 140 q 511 163 521 146 q 508 200 501 179 m 213 828 q 236 860 219 847 q 272 869 253 872 q 301 850 292 867 q 304 813 310 833 q 282 781 299 793 q 246 772 265 769 q 217 792 226 775 q 213 828 207 808 m 336 831 q 359 863 342 851 q 396 872 376 875 q 424 853 415 869 q 428 815 433 836 q 406 784 422 796 q 369 775 389 772 q 340 794 350 778 q 336 831 331 811 m 447 831 q 470 862 453 850 q 506 871 488 874 q 535 851 525 868 q 539 815 544 835 q 517 783 533 794 q 481 774 500 771 q 451 793 461 776 q 447 831 442 810 z "},"R":{"ha":644,"x_min":36,"x_max":690,"o":"m 356 0 l 378 214 q 381 265 381 240 q 375 300 382 289 q 354 315 367 311 q 331 321 342 319 l 306 85 l 299 85 l 253 0 l 36 0 l 125 854 l 169 933 l 171 947 l 399 947 q 467 944 433 947 q 531 931 500 942 q 591 900 563 921 q 644 844 619 879 q 679 765 668 808 q 686 676 690 721 q 624 525 675 589 l 617 514 q 651 417 647 465 q 647 308 654 368 l 624 85 l 617 85 l 571 0 l 356 0 m 113 115 l 278 115 l 311 435 l 335 435 q 349 436 343 435 l 369 436 q 446 406 425 436 q 457 361 458 389 q 453 303 456 333 l 433 115 l 596 115 l 617 308 q 621 412 624 367 q 589 501 618 457 l 581 517 l 593 531 q 637 601 621 564 q 656 678 653 639 q 651 755 660 717 q 619 825 642 793 q 574 876 599 857 q 521 903 549 894 q 462 915 493 913 q 396 918 431 918 l 197 918 l 113 115 m 393 597 q 382 597 388 597 q 372 599 376 597 l 329 599 l 346 754 l 369 754 q 378 754 375 754 q 389 756 382 754 l 410 756 q 443 751 431 756 q 482 722 468 743 q 493 676 496 701 q 472 629 490 650 q 428 601 454 608 q 393 597 413 597 m 400 626 q 392 632 396 629 q 383 638 389 635 q 364 640 372 640 l 363 628 l 381 628 q 396 626 388 626 l 400 626 m 439 831 q 421 795 436 810 q 386 781 406 781 q 351 795 365 781 q 340 831 338 810 q 359 865 343 850 q 396 879 375 879 q 428 865 415 879 q 439 831 442 850 m 556 811 q 537 776 553 790 q 501 761 521 761 q 467 776 481 761 q 457 811 454 790 q 476 845 460 831 q 513 860 492 860 q 545 845 532 860 q 556 811 558 831 m 629 726 q 611 692 626 707 q 576 678 596 678 q 542 692 556 678 q 531 726 528 707 q 549 762 533 747 q 586 776 565 776 q 619 762 606 776 q 629 726 632 747 m 600 608 q 581 574 597 589 q 544 560 565 560 q 512 574 525 560 q 501 608 499 589 q 519 644 504 629 q 554 658 535 658 q 589 644 575 658 q 600 608 603 629 m 511 521 q 492 485 508 500 q 456 471 476 471 q 422 485 435 471 q 411 521 408 500 q 430 556 414 542 q 467 571 446 571 q 501 556 488 571 q 511 521 514 542 m 568 422 q 550 387 565 401 q 514 372 535 372 q 481 387 494 372 q 469 422 467 401 q 488 457 472 443 q 524 471 504 471 q 558 457 544 471 q 568 422 571 443 m 569 196 q 551 160 567 175 q 517 146 536 146 q 482 160 496 146 q 471 196 468 175 q 490 230 474 215 q 526 244 506 244 q 559 230 546 244 q 569 196 572 215 m 581 308 q 562 274 578 289 q 525 260 546 260 q 492 274 506 260 q 482 308 479 289 q 501 344 485 329 q 536 358 517 358 q 570 344 557 358 q 581 308 583 329 m 394 518 q 376 483 392 497 q 340 468 360 468 q 306 483 319 468 q 296 518 293 497 q 314 552 299 538 q 350 567 329 567 q 383 552 369 567 q 394 518 397 538 m 319 828 q 301 792 317 807 q 265 778 285 778 q 231 792 244 778 q 221 828 218 807 q 240 863 224 849 q 276 876 256 876 q 309 863 296 876 q 319 828 322 849 m 306 700 q 288 666 303 681 q 253 651 272 651 q 218 666 232 651 q 207 700 204 681 q 226 735 210 721 q 263 750 242 750 q 295 735 282 750 q 306 700 308 721 m 293 569 q 274 534 290 549 q 239 519 258 519 q 205 534 218 519 q 194 569 192 549 q 213 605 197 590 q 249 619 228 619 q 282 605 268 619 q 293 569 296 590 m 279 446 q 260 410 276 425 q 225 396 244 396 q 191 410 204 396 q 181 446 178 425 q 199 480 183 465 q 236 494 215 494 q 269 480 256 494 q 279 446 282 465 m 267 319 q 248 284 264 299 q 213 269 232 269 q 178 284 192 269 q 168 319 165 299 q 186 353 171 339 q 222 368 201 368 q 256 353 242 368 q 267 319 269 339 m 253 193 q 234 159 250 174 q 199 144 218 144 q 165 159 178 144 q 154 193 151 174 q 173 228 157 214 q 210 243 189 243 q 242 228 229 243 q 253 193 256 214 z "},"S":{"ha":644,"x_min":57,"x_max":683,"o":"m 496 79 q 391 15 443 31 q 301 0 339 0 q 203 19 250 0 q 122 74 156 39 q 74 156 90 107 q 58 269 57 206 l 104 353 q 103 358 103 356 q 104 363 104 360 l 190 363 q 103 485 126 408 q 93 589 88 538 q 105 643 96 617 q 128 697 114 669 q 131 701 129 700 q 132 704 132 703 q 133 707 133 706 l 135 710 l 156 746 q 188 809 167 778 q 238 868 208 840 q 347 933 294 918 q 438 949 400 949 q 536 929 489 949 q 619 874 583 910 q 665 790 649 842 q 683 672 682 739 l 676 672 l 631 586 l 547 586 q 639 461 611 542 q 650 408 647 433 q 650 357 653 382 q 586 208 639 272 l 561 160 q 531 117 546 136 q 496 79 515 97 m 350 317 q 355 314 353 315 q 360 311 357 313 q 350 317 356 314 m 135 333 q 149 250 133 289 q 192 182 164 211 q 264 133 222 150 q 353 115 306 115 q 435 129 388 115 q 531 188 482 143 q 610 310 589 240 q 611 450 632 381 q 533 559 588 519 q 403 599 478 599 q 335 647 353 599 q 336 692 329 669 q 361 732 343 715 q 419 754 388 754 q 463 740 444 754 q 489 701 482 725 l 654 701 q 596 851 654 793 q 522 901 564 883 q 435 919 479 919 q 354 906 401 919 q 258 849 307 893 q 178 724 200 794 q 178 583 157 654 q 255 474 200 514 q 385 435 310 435 q 427 422 408 435 q 453 386 446 410 q 452 342 460 364 q 426 303 444 319 q 371 279 400 279 q 325 294 344 279 q 301 333 306 310 l 135 333 m 379 638 q 384 633 382 635 q 390 631 386 632 q 385 635 388 633 q 379 638 382 636 m 311 718 q 292 684 308 699 q 257 669 276 669 q 223 684 236 669 q 213 718 210 699 q 231 753 215 739 q 268 768 247 768 q 301 753 288 768 q 311 718 314 739 m 304 603 q 285 567 301 582 q 250 553 269 553 q 216 567 229 553 q 206 603 203 582 q 224 638 208 624 q 261 651 240 651 q 294 638 281 651 q 304 603 307 624 m 390 528 q 372 492 388 507 q 336 478 357 478 q 302 492 315 478 q 292 528 289 507 q 310 563 294 549 q 346 576 325 576 q 380 563 367 576 q 390 528 393 549 m 504 486 q 486 451 501 465 q 450 436 471 436 q 417 451 431 436 q 406 486 403 465 q 424 520 408 506 q 460 535 440 535 q 494 520 481 535 q 504 486 507 506 m 594 404 q 576 369 592 383 q 539 354 560 354 q 506 369 519 354 q 496 404 493 383 q 515 439 499 425 q 550 453 531 453 q 584 439 571 453 q 594 404 597 425 m 506 774 q 524 808 508 794 q 561 822 540 822 q 594 808 581 822 q 604 774 607 794 q 585 738 601 753 q 550 724 569 724 q 516 738 529 724 q 506 774 503 753 m 408 839 q 427 874 411 860 q 463 889 443 889 q 497 874 483 889 q 507 839 510 860 q 488 805 504 819 q 451 790 472 790 q 419 805 432 790 q 408 839 406 819 m 288 813 q 306 848 290 833 q 342 863 322 863 q 376 848 363 863 q 386 813 389 833 q 367 778 383 792 q 331 764 351 764 q 298 778 311 764 q 288 813 285 792 m 271 274 q 252 238 268 253 q 215 224 236 224 q 183 238 196 224 q 172 274 169 253 q 191 308 175 293 q 226 322 207 322 q 260 308 247 322 q 271 274 274 293 m 353 197 q 335 162 350 176 q 299 147 319 147 q 265 162 278 147 q 254 197 251 176 q 272 231 257 217 q 308 246 288 246 q 342 231 329 246 q 353 197 356 217 m 472 201 q 453 166 469 181 q 417 151 438 151 q 383 166 396 151 q 374 201 371 181 q 391 235 376 221 q 426 250 406 250 q 461 235 447 250 q 472 201 475 221 m 569 283 q 551 249 567 263 q 514 235 535 235 q 481 249 494 235 q 471 283 468 263 q 490 319 474 304 q 525 333 506 333 q 559 319 546 333 q 569 283 572 304 z "},"Q":{"ha":644,"x_min":61,"x_max":690,"o":"m 303 0 q 186 28 240 0 q 99 108 132 57 q 74 162 82 135 q 63 216 65 189 q 63 271 61 243 q 68 328 65 299 l 71 347 q 72 354 71 353 q 74 361 74 357 l 74 374 q 86 488 81 442 q 94 562 92 533 q 99 604 97 590 q 103 624 101 618 q 131 694 111 657 l 131 697 l 132 699 l 132 700 l 135 701 l 158 744 q 224 851 181 803 q 321 922 267 899 q 442 950 385 950 q 542 930 496 950 q 621 876 588 910 q 672 795 654 842 q 688 694 690 749 q 684 648 686 671 q 679 604 682 625 l 676 575 l 676 569 q 674 564 674 564 l 658 417 q 652 359 656 386 q 642 306 649 332 q 624 256 636 281 q 593 207 613 232 l 575 176 l 624 32 l 614 32 l 565 -54 l 329 -54 l 317 0 l 303 0 m 144 418 q 139 312 138 361 q 171 214 140 263 q 248 141 200 167 q 354 115 296 115 l 367 115 l 383 117 l 400 61 l 579 61 l 539 189 l 550 201 q 588 251 574 226 q 610 303 603 276 q 622 358 618 329 q 629 418 626 386 l 644 564 q 646 574 646 569 q 647 585 646 579 q 649 594 649 590 q 650 604 650 599 q 655 648 653 626 q 658 693 657 669 q 644 782 660 740 q 599 855 629 824 q 528 903 569 886 q 439 921 488 921 q 331 896 389 921 q 233 819 274 868 q 178 710 193 771 q 168 640 175 700 q 150 468 161 581 l 150 451 q 149 444 149 449 q 147 438 149 440 q 146 424 146 432 l 144 418 m 374 279 q 320 303 342 279 q 303 358 299 326 l 335 663 q 341 699 336 681 q 369 738 346 718 q 422 756 393 756 q 475 733 454 756 q 493 678 496 710 l 461 372 q 453 336 458 356 q 426 299 449 317 q 374 279 400 279 m 417 589 q 406 625 419 610 q 369 640 392 640 l 367 640 q 363 640 363 640 l 333 358 q 344 324 331 339 q 376 310 357 310 q 388 313 379 310 l 417 589 m 308 704 q 290 669 306 683 q 254 654 274 654 q 220 669 233 654 q 210 704 207 683 q 228 740 213 725 q 265 754 244 754 q 298 740 285 754 q 308 704 311 725 m 296 583 q 277 548 293 563 q 242 533 261 533 q 208 548 221 533 q 197 583 194 563 q 215 619 200 604 q 251 633 231 633 q 285 619 271 633 q 296 583 299 604 m 282 453 q 263 417 279 432 q 228 403 247 403 q 194 417 207 403 q 183 453 181 432 q 202 488 186 474 q 239 503 218 503 q 272 488 258 503 q 282 453 285 474 m 268 332 q 249 297 265 311 q 213 282 233 282 q 178 297 192 282 q 168 332 165 311 q 186 367 171 353 q 222 382 201 382 q 257 367 243 382 q 268 332 271 353 m 621 700 q 603 666 618 681 q 568 651 588 651 q 533 666 547 651 q 522 700 519 681 q 541 735 525 721 q 578 750 557 750 q 610 735 597 750 q 621 700 624 721 m 617 588 q 598 553 614 568 q 561 539 582 539 q 527 553 540 539 q 517 588 514 568 q 535 623 519 608 q 572 638 551 638 q 606 623 593 638 q 617 588 619 608 m 604 465 q 585 430 601 444 q 549 415 569 415 q 515 430 528 415 q 504 465 501 444 q 522 501 507 486 q 558 515 538 515 q 593 501 579 515 q 604 465 607 486 m 588 351 q 569 316 585 331 q 532 301 553 301 q 498 316 511 301 q 488 351 485 331 q 506 385 490 371 q 543 400 522 400 q 577 385 564 400 q 588 351 590 371 m 313 228 q 294 194 310 208 q 257 179 278 179 q 223 194 236 179 q 213 228 210 208 q 231 263 215 249 q 268 278 247 278 q 302 263 289 278 q 313 228 315 249 m 419 196 q 401 160 417 175 q 365 146 386 146 q 331 160 344 146 q 319 196 317 175 q 338 230 322 215 q 375 244 354 244 q 409 230 396 244 q 419 196 422 215 m 528 244 q 510 210 525 225 q 474 196 494 196 q 440 210 453 196 q 429 244 426 225 q 448 280 432 265 q 485 294 464 294 q 518 280 506 294 q 528 244 531 265 m 528 121 q 509 85 525 100 q 472 71 493 71 q 438 85 451 71 q 428 121 425 100 q 446 155 431 140 q 482 169 461 169 q 517 155 503 169 q 528 121 531 140 m 489 804 q 508 840 492 825 q 544 854 524 854 q 578 840 565 854 q 589 804 592 825 q 571 770 586 785 q 535 756 556 756 q 500 770 514 756 q 489 804 486 785 m 386 842 q 405 877 389 863 q 442 892 421 892 q 476 877 463 892 q 486 842 489 863 q 468 808 483 822 q 432 793 453 793 q 397 808 411 793 q 386 842 383 822 m 272 808 q 290 844 275 829 q 325 858 304 858 q 360 844 346 858 q 371 808 374 829 q 352 774 368 789 q 315 760 336 760 q 282 774 294 760 q 272 808 269 789 z "},"V":{"ha":629,"x_min":114,"x_max":703,"o":"m 701 947 l 478 86 l 472 86 l 426 0 l 160 0 l 160 1 l 114 854 l 160 938 l 160 947 l 386 947 l 397 728 l 431 854 l 472 929 l 476 947 l 703 947 l 701 947 m 192 918 l 233 115 l 454 115 l 665 918 l 500 918 l 378 447 l 372 617 l 357 918 l 192 918 m 321 844 q 308 808 322 825 q 274 789 294 792 q 238 799 253 786 q 222 831 222 811 q 235 867 221 850 q 271 886 249 883 q 306 877 290 889 q 321 844 321 865 m 332 717 q 318 679 332 696 q 283 660 304 663 q 248 669 263 657 q 232 701 233 682 q 245 739 231 722 q 279 758 260 756 q 315 749 300 761 q 332 717 331 736 m 336 590 q 323 554 338 571 q 289 535 308 538 q 253 544 268 532 q 236 576 238 557 q 250 613 236 597 q 283 632 264 629 q 320 623 306 635 q 336 590 335 611 m 339 468 q 326 432 340 449 q 292 413 313 415 q 256 422 271 410 q 240 454 242 433 q 253 490 239 474 q 288 510 267 507 q 322 500 307 513 q 339 468 338 488 m 340 340 q 327 304 342 321 q 293 285 313 288 q 257 294 272 282 q 240 326 242 307 q 254 363 240 346 q 288 382 268 379 q 324 373 310 385 q 340 340 339 361 m 613 826 q 590 794 607 807 q 551 785 572 782 q 521 804 532 788 q 515 842 510 821 q 539 874 521 861 q 576 883 557 886 q 607 864 596 881 q 613 826 618 847 m 579 701 q 556 669 574 682 q 518 660 538 657 q 488 679 499 663 q 483 717 478 696 q 506 748 489 736 q 544 757 524 760 q 574 738 564 754 q 579 701 585 721 m 547 576 q 524 544 542 556 q 486 535 507 532 q 456 554 467 538 q 451 590 446 571 q 474 623 457 611 q 511 632 492 635 q 542 613 531 629 q 547 576 553 596 m 515 450 q 492 417 510 429 q 454 408 474 406 q 424 428 435 411 q 419 465 414 444 q 442 497 425 485 q 481 506 460 508 q 510 486 500 503 q 515 450 521 469 m 486 318 q 463 287 481 299 q 426 278 446 275 q 396 297 407 281 q 390 333 385 314 q 413 365 396 353 q 451 375 431 378 q 481 356 471 372 q 486 318 492 339 m 343 189 q 320 156 338 168 q 283 147 303 144 q 252 167 263 150 q 247 203 242 183 q 270 235 253 224 q 307 244 288 247 q 338 225 328 242 q 343 189 349 208 m 461 189 q 438 156 456 168 q 401 147 421 144 q 370 167 381 150 q 365 203 360 183 q 388 235 371 224 q 426 244 406 247 q 456 225 446 242 q 461 189 467 208 z "},"W":{"ha":974,"x_min":61,"x_max":1035,"o":"m 811 947 l 1035 947 l 972 356 q 951 275 967 314 q 910 204 936 236 l 910 203 l 904 194 l 894 175 l 894 174 l 889 161 l 889 167 l 889 165 l 883 156 q 855 112 872 132 q 817 72 838 92 q 724 19 774 38 q 624 0 675 0 q 541 13 579 0 q 472 50 503 25 l 469 53 q 392 13 433 26 q 307 0 350 0 q 210 18 257 0 q 126 72 163 36 q 78 159 94 107 q 65 265 61 211 q 74 364 68 310 q 83 463 79 418 q 94 560 89 511 q 106 657 99 608 l 126 853 l 126 854 l 172 935 l 174 947 l 396 947 l 336 374 q 347 321 332 333 q 378 308 361 308 q 389 310 385 308 l 446 853 l 446 854 l 490 935 l 492 947 l 715 947 l 656 374 q 656 340 653 353 q 667 319 660 326 q 682 310 674 313 q 697 308 690 308 q 708 310 704 308 l 765 853 l 765 854 l 810 935 l 811 947 m 782 374 q 767 323 778 342 q 744 294 757 304 q 717 282 731 285 q 694 279 703 279 q 670 283 683 279 q 647 296 657 286 q 630 324 636 306 q 626 374 624 343 l 683 918 l 519 918 l 463 374 q 449 324 460 343 q 426 296 439 306 q 400 283 414 286 q 375 279 386 279 q 351 283 364 279 q 327 296 338 286 q 310 324 317 306 q 307 374 304 343 l 364 918 l 200 918 l 182 746 q 160 552 171 650 q 140 356 150 454 q 149 260 135 304 q 196 181 164 215 q 358 115 265 115 q 507 164 438 115 l 524 175 l 536 164 q 675 115 593 115 q 767 132 721 115 q 850 181 813 149 q 943 356 931 250 q 957 488 950 422 q 971 618 964 553 q 978 682 974 650 q 985 746 982 714 l 1003 918 l 839 918 l 782 374 m 819 351 q 838 387 822 372 q 875 401 854 401 q 908 387 894 401 q 918 351 921 372 q 899 317 915 332 q 864 303 883 303 q 830 317 843 303 q 819 351 817 332 m 833 475 q 852 509 836 494 q 889 524 868 524 q 922 509 910 524 q 932 475 935 494 q 915 440 929 454 q 879 425 900 425 q 844 440 858 425 q 833 475 831 454 m 847 596 q 865 631 850 617 q 901 646 881 646 q 935 631 922 646 q 946 596 949 617 q 928 562 943 576 q 892 547 913 547 q 858 562 871 547 q 847 596 844 576 m 858 719 q 877 753 861 739 q 914 768 893 768 q 947 753 933 768 q 957 719 960 739 q 938 684 954 699 q 903 669 922 669 q 869 684 882 669 q 858 719 856 699 m 871 843 q 890 878 874 864 q 926 893 906 893 q 959 878 946 893 q 969 843 972 864 q 951 809 967 824 q 917 794 936 794 q 882 809 896 794 q 871 843 868 824 m 497 358 q 515 394 500 379 q 551 408 531 408 q 585 394 571 408 q 596 358 599 379 q 577 324 593 338 q 542 310 561 310 q 508 324 521 310 q 497 358 494 338 m 513 481 q 531 516 515 501 q 567 531 546 531 q 601 516 588 531 q 611 481 614 501 q 592 447 608 461 q 556 432 576 432 q 522 447 535 432 q 513 481 510 461 m 525 603 q 543 638 528 624 q 579 653 558 653 q 613 638 600 653 q 624 603 626 624 q 605 568 621 582 q 568 554 589 554 q 535 568 547 554 q 525 603 522 582 m 538 721 q 556 756 540 742 q 592 771 571 771 q 626 756 613 771 q 636 721 639 742 q 617 687 633 701 q 581 672 601 672 q 547 687 560 672 q 538 721 535 701 m 549 850 q 567 885 551 871 q 604 900 583 900 q 637 885 624 900 q 647 850 650 871 q 628 815 644 829 q 593 801 613 801 q 559 815 572 801 q 549 850 546 829 m 175 360 q 194 395 178 381 q 231 410 210 410 q 263 395 250 410 q 274 360 276 381 q 255 326 271 340 q 219 311 239 311 q 185 326 199 311 q 175 360 172 340 m 188 481 q 206 516 190 501 q 243 531 222 531 q 276 516 263 531 q 286 481 289 501 q 267 447 283 461 q 232 432 251 432 q 198 447 211 432 q 188 481 185 461 m 200 603 q 219 638 203 624 q 256 653 235 653 q 288 638 275 653 q 299 603 301 624 q 280 568 296 582 q 244 554 264 554 q 210 568 224 554 q 200 603 197 582 m 213 724 q 231 758 215 743 q 268 772 247 772 q 301 758 288 772 q 311 724 314 743 q 292 688 308 703 q 257 674 276 674 q 223 688 236 674 q 213 724 210 703 m 225 850 q 244 885 228 871 q 279 900 260 900 q 313 885 300 900 q 324 850 326 871 q 305 815 321 829 q 268 801 289 801 q 235 815 249 801 q 225 850 222 829 m 626 250 q 608 215 624 229 q 572 200 593 200 q 538 215 551 200 q 528 250 525 229 q 546 284 531 269 q 582 299 561 299 q 616 284 603 299 q 626 250 629 269 m 739 204 q 720 169 736 183 q 683 156 704 156 q 650 169 663 156 q 640 204 638 183 q 658 240 643 225 q 694 254 674 254 q 728 240 715 254 q 739 204 742 225 m 858 243 q 840 209 856 224 q 804 194 824 194 q 770 209 783 194 q 760 243 757 224 q 778 278 763 264 q 815 293 794 293 q 848 278 835 293 q 858 243 861 264 m 290 249 q 272 214 288 228 q 238 200 257 200 q 203 214 217 200 q 192 249 189 228 q 210 284 194 269 q 247 299 226 299 q 280 284 267 299 q 290 249 293 269 m 392 197 q 374 162 389 176 q 338 147 358 147 q 304 162 318 147 q 293 197 290 176 q 312 233 296 218 q 347 247 328 247 q 381 233 368 247 q 392 197 394 218 m 508 232 q 490 198 506 213 q 453 183 474 183 q 419 198 432 183 q 408 232 406 213 q 427 267 411 253 q 464 282 443 282 q 498 267 485 282 q 508 232 511 253 z "},"L":{"ha":596,"x_min":44,"x_max":590,"o":"m 514 0 l 44 0 l 133 854 l 178 936 l 179 947 l 403 947 l 336 310 l 590 310 l 567 86 l 560 86 l 514 0 m 121 115 l 539 115 l 557 279 l 303 279 l 369 918 l 206 918 l 121 115 m 336 838 q 317 803 333 817 q 281 789 301 789 q 247 803 260 789 q 238 838 235 817 q 256 873 240 858 q 292 888 271 888 q 326 873 313 888 q 336 838 339 858 m 322 710 q 304 676 319 690 q 268 661 289 661 q 234 676 247 661 q 224 710 221 690 q 242 745 226 731 q 278 760 257 760 q 312 745 299 760 q 322 710 325 731 m 310 588 q 291 553 307 567 q 254 539 275 539 q 221 553 233 539 q 211 588 208 567 q 229 623 214 608 q 265 638 244 638 q 299 623 286 638 q 310 588 313 608 m 296 453 q 277 419 293 433 q 240 404 261 404 q 207 419 219 404 q 197 453 194 433 q 215 488 200 474 q 251 503 231 503 q 285 488 272 503 q 296 453 299 474 m 282 329 q 264 294 279 308 q 228 279 249 279 q 194 294 207 279 q 183 329 181 308 q 201 363 186 349 q 238 378 217 378 q 272 363 258 378 q 282 329 285 349 m 269 203 q 251 169 267 183 q 214 154 235 154 q 181 169 193 154 q 171 203 168 183 q 189 238 174 224 q 225 253 204 253 q 259 238 246 253 q 269 203 272 224 m 392 199 q 373 163 389 178 q 338 149 357 149 q 303 163 317 149 q 293 199 290 178 q 311 233 296 219 q 347 247 326 247 q 381 233 367 247 q 392 199 394 219 m 501 199 q 483 163 499 178 q 447 149 467 149 q 413 163 426 149 q 403 199 400 178 q 421 233 406 219 q 457 247 436 247 q 490 233 476 247 q 501 199 504 219 z "},"P":{"ha":644,"x_min":39,"x_max":694,"o":"m 254 0 l 39 0 l 128 854 l 174 935 l 175 949 l 446 949 q 629 868 556 949 q 679 778 664 828 q 689 676 694 729 q 624 519 678 590 l 607 490 l 603 482 q 601 480 601 481 q 600 478 601 479 q 490 363 560 406 q 340 319 419 319 l 332 319 l 307 86 l 301 86 l 254 0 m 117 115 l 281 115 l 314 435 l 392 435 q 488 453 442 435 q 570 506 533 472 q 631 583 607 539 q 660 676 654 626 q 651 769 665 725 q 607 849 638 813 q 443 918 542 918 l 201 918 l 117 115 m 496 676 q 467 622 492 644 q 410 599 442 599 l 332 599 l 349 754 l 426 754 q 478 732 458 754 q 496 676 499 710 m 403 629 q 374 639 390 639 l 365 639 l 364 629 l 403 629 m 443 836 q 424 802 440 817 q 388 788 408 788 q 355 802 368 788 q 344 836 342 817 q 363 872 347 857 q 399 886 379 886 q 433 872 419 886 q 443 836 446 857 m 557 831 q 539 795 554 810 q 504 781 524 781 q 469 795 483 781 q 458 831 456 810 q 477 865 461 851 q 514 879 493 879 q 547 865 533 879 q 557 831 560 851 m 621 622 q 602 587 618 601 q 565 572 586 572 q 532 587 544 572 q 522 622 519 601 q 540 656 525 642 q 575 671 554 671 q 610 656 596 671 q 621 622 624 642 m 626 742 q 608 708 624 722 q 572 693 592 693 q 538 708 551 693 q 528 742 525 722 q 546 777 531 763 q 582 792 561 792 q 615 777 601 792 q 626 742 629 763 m 525 536 q 506 501 522 515 q 469 486 490 486 q 437 501 450 486 q 426 536 424 515 q 445 570 429 556 q 481 585 461 585 q 515 570 501 585 q 525 536 528 556 m 403 524 q 385 490 400 504 q 349 475 369 475 q 315 490 328 475 q 304 524 301 504 q 323 559 307 544 q 360 574 339 574 q 393 559 381 574 q 403 524 406 544 m 325 840 q 306 806 322 821 q 271 792 290 792 q 237 806 250 792 q 226 840 224 821 q 245 876 229 861 q 282 890 261 890 q 315 876 301 890 q 325 840 328 861 m 313 714 q 294 678 310 693 q 258 664 278 664 q 224 678 238 664 q 214 714 211 693 q 232 748 217 733 q 268 763 247 763 q 301 748 288 763 q 313 714 315 733 m 299 582 q 280 548 296 563 q 244 533 264 533 q 210 548 224 533 q 200 582 197 563 q 218 617 203 603 q 254 632 233 632 q 288 617 274 632 q 299 582 301 603 m 285 458 q 267 424 282 438 q 232 410 251 410 q 197 424 211 410 q 186 458 183 438 q 205 494 189 479 q 242 508 221 508 q 274 494 261 508 q 285 458 288 479 m 272 332 q 253 297 269 311 q 218 282 238 282 q 184 297 197 282 q 174 332 171 311 q 192 367 176 353 q 228 381 207 381 q 261 367 247 381 q 272 332 275 353 m 258 207 q 240 172 256 186 q 204 157 224 157 q 170 172 183 157 q 160 207 157 186 q 178 241 163 226 q 215 256 194 256 q 248 241 235 256 q 258 207 261 226 z "},"X":{"ha":644,"x_min":13,"x_max":731,"o":"m 731 946 l 514 517 l 539 429 q 553 383 546 406 q 568 335 560 360 q 606 206 588 269 q 640 88 625 142 l 640 86 l 631 86 l 585 0 l 354 0 l 315 126 l 296 86 l 290 86 l 244 0 l 13 0 l 75 129 l 226 428 q 213 470 219 449 q 200 515 207 492 q 150 686 176 599 q 101 853 124 774 l 101 854 l 147 938 l 144 947 l 386 947 l 424 819 q 432 838 428 829 q 443 854 436 847 l 447 863 l 490 947 l 731 947 l 731 946 m 101 115 l 278 115 l 369 296 l 422 115 l 599 115 l 482 517 l 683 918 l 507 918 l 415 738 l 363 918 l 186 918 l 306 517 l 101 115 m 344 851 q 326 817 342 832 q 290 803 310 803 q 256 817 269 803 q 246 851 243 832 q 265 887 249 872 q 301 901 281 901 q 334 887 321 901 q 344 851 347 872 m 379 739 q 362 705 376 719 q 326 690 347 690 q 292 705 306 690 q 281 739 278 719 q 299 774 283 760 q 336 789 315 789 q 369 774 357 789 q 379 739 382 760 m 408 626 q 390 592 406 607 q 353 578 374 578 q 319 592 332 578 q 308 626 306 607 q 327 662 311 647 q 364 676 343 676 q 398 662 385 676 q 408 626 411 647 m 449 514 q 431 478 446 493 q 396 464 417 464 q 361 478 375 464 q 350 514 347 493 q 369 549 353 535 q 406 563 385 563 q 439 549 426 563 q 449 514 451 535 m 500 400 q 481 366 497 381 q 444 351 465 351 q 412 366 425 351 q 401 400 399 381 q 420 435 404 421 q 456 450 436 450 q 490 435 476 450 q 500 400 503 421 m 524 283 q 506 249 521 264 q 469 235 490 235 q 435 249 449 235 q 425 283 422 264 q 444 319 428 304 q 481 333 460 333 q 514 319 501 333 q 524 283 526 304 m 528 858 q 548 893 532 879 q 583 906 564 907 q 613 889 603 904 q 621 853 624 874 q 603 819 618 833 q 568 807 588 806 q 537 823 549 808 q 528 858 525 838 m 472 749 q 491 783 475 769 q 526 796 507 797 q 557 779 546 794 q 565 744 568 764 q 547 710 563 724 q 511 697 531 696 q 481 713 492 699 q 472 749 469 728 m 422 635 q 441 669 425 656 q 476 682 457 683 q 506 665 496 681 q 514 629 517 650 q 496 596 511 610 q 461 583 481 582 q 430 599 442 585 q 422 635 418 614 m 286 403 q 305 436 289 422 q 340 449 321 450 q 372 433 360 447 q 381 397 383 418 q 360 363 376 376 q 325 350 344 349 q 294 367 306 351 q 286 403 283 382 m 235 286 q 254 321 238 307 q 290 333 271 335 q 321 317 310 332 q 329 282 332 301 q 310 247 326 261 q 274 235 293 233 q 243 251 254 236 q 235 286 232 267 m 174 181 q 192 215 176 201 q 228 228 208 229 q 258 211 247 226 q 267 176 269 196 q 248 142 264 156 q 213 129 232 128 q 182 146 193 131 q 174 181 171 161 m 463 185 q 482 219 467 206 q 517 232 497 233 q 547 215 536 231 q 556 181 558 200 q 537 146 553 160 q 503 133 521 132 q 472 150 483 135 q 463 185 460 165 z "},"N":{"ha":644,"x_min":35,"x_max":683,"o":"m 440 949 q 562 919 507 949 q 649 836 617 889 q 683 723 683 778 q 676 613 683 668 l 621 86 l 615 86 l 569 0 l 354 0 l 414 569 q 411 606 415 592 q 400 627 407 619 q 384 637 393 635 q 368 639 375 639 l 365 639 q 361 639 361 643 l 303 86 l 296 86 l 250 0 l 35 0 l 89 524 q 101 614 94 572 q 132 699 108 656 l 136 707 q 137 709 136 708 q 138 711 138 710 l 160 753 q 211 836 176 796 q 316 919 256 889 q 440 949 376 949 m 421 754 q 445 751 432 754 q 469 738 458 747 q 487 709 481 728 q 489 660 493 690 l 432 115 l 594 115 l 647 613 q 654 717 654 667 q 624 818 654 768 q 545 892 594 865 q 438 918 496 918 q 326 892 379 918 q 232 818 272 865 q 201 770 213 794 q 181 720 189 746 q 170 668 174 694 q 164 613 167 642 l 111 115 l 275 115 l 332 660 q 347 710 336 692 q 371 739 357 729 q 399 751 385 749 q 421 754 413 754 m 307 690 q 289 656 304 669 q 253 642 274 642 q 219 656 232 642 q 208 690 206 669 q 227 726 211 711 q 264 740 243 740 q 297 726 285 740 q 307 690 310 711 m 292 568 q 274 533 289 547 q 238 518 258 518 q 204 533 218 518 q 193 568 190 547 q 212 603 196 589 q 247 617 228 617 q 281 603 268 617 q 292 568 294 589 m 279 446 q 261 411 276 425 q 225 397 246 397 q 192 411 206 397 q 181 446 178 425 q 199 481 183 467 q 235 496 215 496 q 269 481 256 496 q 279 446 282 467 m 268 324 q 250 288 265 303 q 214 274 235 274 q 180 288 193 274 q 169 324 167 303 q 188 358 172 344 q 225 372 204 372 q 258 358 246 372 q 268 324 271 344 m 256 199 q 238 163 253 178 q 201 149 222 149 q 167 163 181 149 q 157 199 154 178 q 175 234 160 219 q 211 249 190 249 q 245 234 232 249 q 256 199 258 219 m 629 683 q 612 649 626 664 q 576 635 597 635 q 542 649 556 635 q 531 683 528 664 q 549 719 533 704 q 586 733 565 733 q 619 719 607 733 q 629 683 632 704 m 615 561 q 597 527 613 542 q 560 513 581 513 q 527 527 540 513 q 517 561 514 542 q 535 597 519 582 q 571 611 551 611 q 605 597 592 611 q 615 561 618 582 m 603 439 q 584 405 600 419 q 547 390 568 390 q 515 405 528 390 q 504 439 501 419 q 522 474 507 460 q 557 489 538 489 q 592 474 578 489 q 603 439 606 460 m 590 321 q 572 286 588 300 q 535 272 556 272 q 502 286 515 272 q 492 321 489 300 q 510 356 494 342 q 546 371 526 371 q 580 356 567 371 q 590 321 593 342 m 578 192 q 560 158 575 172 q 524 143 544 143 q 490 158 503 143 q 479 192 476 172 q 498 227 482 213 q 535 242 514 242 q 568 227 556 242 q 578 192 581 213 m 501 793 q 519 827 504 813 q 554 842 535 842 q 589 827 575 842 q 600 793 603 813 q 581 758 597 772 q 544 743 565 743 q 512 758 525 743 q 501 793 499 772 m 389 838 q 408 873 392 858 q 443 888 424 888 q 477 873 464 888 q 488 838 490 858 q 469 803 485 818 q 432 789 453 789 q 399 803 413 789 q 389 838 386 818 m 268 799 q 287 834 271 819 q 324 849 303 849 q 357 834 344 849 q 367 799 369 819 q 349 765 364 779 q 313 750 333 750 q 278 765 292 750 q 268 799 265 779 z "},"M":{"ha":982,"x_min":42,"x_max":1015,"o":"m 681 0 l 740 571 q 729 627 744 614 q 696 640 714 640 l 693 640 q 688 640 689 642 l 629 86 l 622 86 l 576 0 l 361 0 l 421 571 q 410 627 425 614 q 376 640 394 640 l 374 640 q 368 640 369 642 l 310 86 l 303 86 l 257 0 l 42 0 l 103 590 q 115 645 106 618 q 136 696 124 672 l 138 700 q 140 703 140 703 l 143 707 l 147 715 l 165 750 q 254 874 190 818 q 347 930 296 910 q 450 950 397 950 q 603 896 536 950 q 767 950 682 950 q 865 931 818 950 q 947 875 911 911 q 999 785 983 835 q 1011 679 1015 735 l 1001 582 q 998 557 999 569 q 996 532 997 544 q 994 508 996 521 q 992 483 993 496 q 989 458 990 471 q 985 433 988 446 l 981 383 l 949 86 l 942 86 l 896 0 l 681 0 m 429 756 q 453 752 440 756 q 477 739 467 749 q 494 710 488 729 q 497 661 500 692 l 439 117 l 603 117 l 661 661 q 674 710 664 692 q 697 739 685 729 q 724 752 710 749 q 749 756 738 756 q 773 752 760 756 q 797 739 786 749 q 813 710 807 729 q 817 661 819 692 l 758 117 l 922 117 l 940 288 q 961 483 951 385 q 982 679 971 581 q 972 774 986 729 q 925 853 957 818 q 851 902 893 885 q 764 919 808 919 q 614 871 686 919 l 600 860 l 585 871 q 447 919 525 919 q 356 901 401 919 q 272 851 310 883 q 208 772 232 817 q 179 679 185 728 q 165 547 171 613 q 151 415 158 482 q 144 351 149 383 q 138 286 140 318 l 119 117 l 283 117 l 342 661 q 355 710 344 692 q 378 739 365 729 q 404 752 390 749 q 429 756 418 756 m 311 688 q 292 652 308 667 q 256 638 276 638 q 222 652 235 638 q 211 688 208 667 q 229 722 214 707 q 265 736 244 736 q 300 722 286 736 q 311 688 314 707 m 294 564 q 276 530 292 544 q 240 515 260 515 q 206 530 219 515 q 196 564 193 544 q 215 599 199 585 q 251 614 231 614 q 284 599 271 614 q 294 564 297 585 m 282 443 q 263 408 279 422 q 228 393 247 393 q 194 408 207 393 q 183 443 181 422 q 202 477 186 463 q 239 492 218 492 q 272 477 258 492 q 282 443 285 463 m 272 319 q 253 285 269 300 q 217 271 238 271 q 183 285 196 271 q 172 319 169 300 q 190 355 175 340 q 226 369 206 369 q 261 355 247 369 q 272 319 275 340 m 258 196 q 240 160 256 175 q 204 146 225 146 q 169 160 183 146 q 158 196 156 175 q 177 230 161 215 q 214 244 193 244 q 248 230 235 244 q 258 196 261 215 m 633 681 q 615 645 631 660 q 578 631 599 631 q 544 645 557 631 q 533 681 531 660 q 552 715 536 701 q 589 729 568 729 q 623 715 610 729 q 633 681 636 701 m 618 558 q 599 523 615 538 q 563 508 583 508 q 530 523 543 508 q 519 558 517 538 q 538 592 522 578 q 572 607 553 607 q 607 592 593 607 q 618 558 621 578 m 606 436 q 587 401 603 415 q 550 386 571 386 q 517 401 531 386 q 507 436 504 415 q 525 471 510 457 q 560 485 540 485 q 594 471 581 485 q 606 436 608 457 m 593 318 q 574 283 590 297 q 538 268 558 268 q 505 283 518 268 q 494 318 492 297 q 513 352 497 338 q 547 367 528 367 q 582 352 568 367 q 593 318 596 338 m 582 189 q 563 153 579 168 q 526 139 547 139 q 492 153 506 139 q 482 189 479 168 q 500 223 485 208 q 536 238 515 238 q 571 223 557 238 q 582 189 585 208 m 954 678 q 935 644 951 658 q 900 629 919 629 q 866 644 879 629 q 856 678 853 658 q 874 713 858 699 q 911 728 890 728 q 944 713 931 728 q 954 678 957 699 m 942 558 q 923 523 939 538 q 888 508 907 508 q 853 523 867 508 q 843 558 840 538 q 861 592 846 578 q 897 607 876 607 q 931 592 917 607 q 942 558 944 578 m 929 436 q 910 401 926 415 q 875 386 894 386 q 841 401 854 386 q 831 436 828 415 q 849 471 833 457 q 885 485 864 485 q 918 471 904 485 q 929 436 932 457 m 915 315 q 897 281 913 296 q 863 267 882 267 q 828 281 842 267 q 817 315 814 296 q 835 351 819 336 q 872 365 851 365 q 905 351 892 365 q 915 315 918 336 m 906 189 q 887 153 903 168 q 850 139 871 139 q 817 153 831 139 q 807 189 804 168 q 825 223 810 208 q 860 238 840 238 q 894 223 881 238 q 906 189 908 208 m 503 789 q 522 824 506 810 q 558 839 538 839 q 591 824 578 839 q 601 789 604 810 q 583 755 599 769 q 549 740 568 740 q 514 755 528 740 q 503 789 500 769 m 392 835 q 410 869 394 854 q 446 883 425 883 q 479 869 465 883 q 490 835 493 854 q 472 799 488 814 q 436 785 456 785 q 402 799 415 785 q 392 835 389 814 m 272 796 q 290 830 275 815 q 325 844 304 844 q 360 830 346 844 q 371 796 374 815 q 352 760 368 775 q 315 746 336 746 q 282 760 294 746 q 272 796 269 775 m 838 790 q 856 825 840 811 q 893 839 872 839 q 926 825 913 839 q 936 790 939 811 q 918 755 933 769 q 883 740 903 740 q 849 755 863 740 q 838 790 835 769 m 738 842 q 756 876 740 861 q 792 890 772 890 q 826 876 813 890 q 836 842 839 861 q 817 806 833 821 q 781 792 801 792 q 748 806 761 792 q 738 842 735 821 m 622 807 q 640 841 625 826 q 676 856 656 856 q 710 841 696 856 q 721 807 724 826 q 702 772 718 786 q 667 757 686 757 q 633 772 646 757 q 622 807 619 786 z "},"!":{"ha":346,"x_min":42,"x_max":397,"o":"m 172 947 l 397 947 l 335 351 l 328 351 l 289 282 q 318 197 325 249 q 286 126 314 156 l 283 119 l 254 68 l 251 64 q 208 17 236 35 q 147 0 179 0 q 72 31 100 0 q 49 108 42 63 q 63 151 51 131 l 65 157 l 97 214 q 108 242 100 228 q 125 267 115 256 l 65 267 l 126 854 l 171 935 l 172 947 m 200 918 l 143 382 l 308 382 l 365 918 l 200 918 m 217 279 q 155 255 182 279 q 124 197 128 231 q 142 139 121 163 q 199 115 163 115 q 259 139 232 115 q 289 197 286 163 q 272 255 293 231 q 217 279 250 279 m 182 458 q 201 494 185 479 q 238 508 217 508 q 271 494 258 508 q 281 458 283 479 q 263 424 278 439 q 228 410 249 410 q 193 424 207 410 q 182 458 179 439 m 199 582 q 217 617 201 603 q 253 632 232 632 q 286 617 272 632 q 297 582 300 603 q 278 548 294 563 q 243 533 263 533 q 209 548 222 533 q 199 582 196 563 m 211 708 q 230 744 214 729 q 267 758 246 758 q 299 744 286 758 q 310 708 313 729 q 291 674 307 688 q 256 660 275 660 q 222 674 235 660 q 211 708 208 688 m 225 836 q 244 872 228 857 q 281 886 260 886 q 313 872 300 886 q 324 836 326 857 q 305 802 321 817 q 269 788 289 788 q 235 802 249 788 q 225 836 222 817 m 158 201 q 177 237 161 222 q 214 251 193 251 q 247 237 233 251 q 257 201 260 222 q 238 167 254 182 q 203 153 222 153 q 169 167 182 153 q 158 201 156 182 z "},"?":{"ha":644,"x_min":92,"x_max":692,"o":"m 582 903 q 666 794 640 861 q 678 654 692 726 q 617 528 664 588 l 593 481 q 489 368 551 411 l 488 353 l 481 353 l 442 282 q 465 244 457 267 q 471 197 474 221 q 436 125 468 157 l 408 76 l 406 67 q 359 18 388 36 q 299 0 331 0 q 226 32 254 0 q 203 108 197 64 q 215 150 204 131 q 218 157 215 154 l 218 158 l 221 160 l 222 167 l 222 165 l 251 214 q 261 242 254 229 q 279 267 268 256 l 219 267 l 235 413 q 241 448 238 432 q 253 476 244 464 l 256 483 l 288 542 q 365 622 308 601 q 390 626 378 626 q 399 628 396 626 q 367 639 385 639 q 318 610 339 639 l 306 586 l 92 586 l 92 588 q 131 700 104 656 l 132 703 l 133 704 l 133 706 l 133 707 l 139 717 l 139 715 l 161 756 q 243 872 188 825 q 335 928 283 908 q 439 949 386 949 q 513 937 476 949 q 582 903 550 925 m 368 279 q 308 255 335 279 q 276 197 281 231 q 295 140 274 164 q 350 115 317 115 q 410 140 383 115 q 440 197 438 164 q 423 255 444 231 q 368 279 401 279 m 483 456 q 592 536 549 483 q 647 657 635 589 q 640 783 663 724 q 564 878 617 842 q 436 918 507 918 q 342 900 389 918 q 260 850 296 882 q 203 781 226 819 q 172 701 181 743 l 339 701 q 372 740 349 725 q 419 754 394 754 q 485 708 467 754 q 483 657 493 683 q 450 614 474 631 q 424 601 436 604 q 400 597 411 599 q 394 596 396 597 q 383 596 389 596 q 372 594 378 596 q 308 501 317 575 l 296 382 l 460 382 l 467 449 l 483 456 m 513 764 q 531 798 515 783 q 568 813 547 813 q 601 798 588 813 q 611 764 614 783 q 593 728 608 743 q 558 714 578 714 q 524 728 538 714 q 513 764 510 743 m 436 835 q 454 870 439 856 q 490 885 469 885 q 524 870 510 885 q 535 835 538 856 q 516 801 532 815 q 481 786 500 786 q 447 801 460 786 q 436 835 433 815 m 319 836 q 338 870 322 856 q 372 885 353 885 q 407 870 393 885 q 418 836 421 856 q 399 801 415 815 q 363 786 383 786 q 330 801 343 786 q 319 836 317 815 m 226 764 q 245 799 229 785 q 282 813 261 813 q 315 799 301 813 q 325 764 328 785 q 307 728 322 743 q 272 714 292 714 q 238 728 251 714 q 226 764 224 743 m 517 642 q 535 677 519 663 q 571 692 551 692 q 605 677 592 692 q 615 642 618 663 q 597 608 613 622 q 560 593 581 593 q 527 608 540 593 q 517 642 514 622 m 422 554 q 441 590 425 575 q 478 604 457 604 q 510 590 497 604 q 521 554 524 575 q 503 520 518 535 q 468 506 488 506 q 433 520 447 506 q 422 554 419 535 m 343 458 q 362 492 346 478 q 397 507 378 507 q 431 492 418 507 q 442 458 444 478 q 423 423 439 438 q 386 408 407 408 q 353 423 367 408 q 343 458 340 438 m 310 201 q 328 237 313 222 q 364 251 344 251 q 398 237 385 251 q 408 201 411 222 q 390 167 406 182 q 353 153 374 153 q 320 167 333 153 q 310 201 307 182 z "},".":{"ha":324,"x_min":38,"x_max":318,"o":"m 211 308 q 289 276 260 308 q 313 197 318 244 q 279 126 311 160 l 249 72 q 247 69 249 71 l 244 64 l 242 56 l 242 60 q 197 16 224 32 q 139 0 171 0 q 66 31 94 0 q 43 107 38 63 q 56 151 46 135 q 58 158 56 156 l 61 160 l 60 160 l 61 163 l 63 168 l 63 167 l 92 217 q 137 283 103 257 q 211 308 171 308 m 208 279 q 148 255 175 279 q 117 197 121 231 q 135 140 114 164 q 190 115 157 115 q 252 139 225 115 q 282 197 279 163 q 265 256 286 232 q 208 279 244 279 m 156 199 q 174 234 158 219 q 210 249 189 249 q 244 234 231 249 q 256 199 258 219 q 237 165 253 179 q 200 150 221 150 q 166 165 179 150 q 156 199 153 179 z "},",":{"ha":324,"x_min":29,"x_max":310,"o":"m 308 204 l 310 200 l 308 196 q 247 43 300 117 l 226 1 l 219 -10 q 104 -135 181 -79 l 101 -137 l 101 -136 q 86 -142 97 -142 q 74 -137 79 -142 q 63 -110 61 -129 q 63 -103 63 -110 q 63 -81 63 -92 q 61 -58 63 -69 q 57 -46 61 -54 q 53 -38 54 -43 q 50 -28 53 -33 l 46 -6 q 40 108 29 49 q 53 151 43 135 q 56 157 53 154 l 57 160 l 57 161 l 89 219 q 135 284 101 260 q 210 308 168 308 q 250 300 233 307 q 283 274 267 293 q 296 258 290 267 q 304 243 301 250 l 310 214 l 308 204 m 281 200 q 279 203 279 201 l 279 211 l 276 228 q 270 241 274 235 q 263 254 267 247 q 238 272 249 267 q 207 279 226 278 q 146 255 172 279 q 115 196 119 231 l 115 193 q 112 141 108 165 q 121 93 115 117 l 126 72 q 131 56 129 64 q 136 38 133 47 q 138 8 139 22 q 138 -19 138 -7 l 138 -24 l 138 -26 l 139 -26 q 142 -25 140 -26 q 279 196 267 72 l 281 200 m 147 193 q 166 227 150 213 q 203 242 182 242 q 235 227 222 242 q 246 193 249 213 q 227 158 243 172 q 192 143 211 143 q 158 158 171 143 q 147 193 144 172 z "},";":{"ha":324,"x_min":29,"x_max":385,"o":"m 308 204 l 310 200 l 308 196 q 247 43 300 117 l 226 1 l 219 -10 q 104 -135 181 -79 l 101 -137 l 101 -136 q 86 -142 97 -142 q 74 -137 79 -142 q 63 -110 61 -129 q 63 -103 63 -110 q 63 -81 63 -92 q 61 -58 63 -69 q 57 -46 61 -54 q 53 -38 54 -43 q 50 -28 53 -33 l 46 -6 q 40 108 29 49 q 53 151 43 135 q 56 157 53 154 l 57 160 l 57 161 l 89 219 q 135 284 101 260 q 210 308 168 308 q 250 300 233 307 q 283 274 267 293 q 296 258 290 267 q 304 243 301 250 l 310 214 l 308 204 m 281 200 q 279 203 279 201 l 279 211 l 276 228 q 270 241 274 235 q 263 254 267 247 q 238 272 249 267 q 207 279 226 278 q 146 255 172 279 q 115 196 119 231 l 115 193 q 112 141 108 165 q 121 93 115 117 l 126 72 q 131 56 129 64 q 136 38 133 47 q 138 8 139 22 q 138 -19 138 -7 l 138 -24 l 138 -26 l 139 -26 q 142 -25 140 -26 q 279 196 267 72 l 281 200 m 147 193 q 166 227 150 213 q 203 242 182 242 q 235 227 222 242 q 246 193 249 213 q 227 158 243 172 q 192 143 211 143 q 158 158 171 143 q 147 193 144 172 m 276 938 q 355 906 325 938 q 379 826 385 874 q 346 756 375 789 l 315 701 l 313 699 l 311 693 l 307 685 l 308 689 q 263 645 290 661 q 204 629 236 629 q 132 660 160 629 q 108 736 104 692 q 122 781 113 765 q 125 788 122 785 l 126 789 l 125 789 l 126 792 l 129 797 l 129 796 l 158 846 q 203 912 169 886 q 276 938 236 938 m 274 908 q 213 884 240 908 q 183 826 186 860 q 202 769 181 793 q 257 744 224 744 q 319 768 292 744 q 349 826 346 792 q 331 885 353 861 q 274 908 310 908 m 221 828 q 240 863 224 849 q 276 878 256 878 q 310 863 297 878 q 321 828 324 849 q 302 794 318 808 q 265 779 286 779 q 231 794 244 779 q 221 828 218 808 z "},":":{"ha":324,"x_min":38,"x_max":385,"o":"m 211 308 q 289 276 260 308 q 313 197 318 244 q 279 126 311 160 l 249 72 q 247 69 249 71 l 244 64 l 242 56 l 242 60 q 197 16 224 32 q 139 0 171 0 q 66 31 94 0 q 43 107 38 63 q 56 151 46 135 q 58 158 56 156 l 61 160 l 60 160 l 61 163 l 63 168 l 63 167 l 92 217 q 137 283 103 257 q 211 308 171 308 m 208 279 q 148 255 175 279 q 117 197 121 231 q 135 140 114 164 q 190 115 157 115 q 252 139 225 115 q 282 197 279 163 q 265 256 286 232 q 208 279 244 279 m 156 199 q 174 234 158 219 q 210 249 189 249 q 244 234 231 249 q 256 199 258 219 q 237 165 253 179 q 200 150 221 150 q 166 165 179 150 q 156 199 153 179 m 276 938 q 355 906 325 938 q 379 826 385 874 q 346 756 375 789 l 315 701 l 313 699 l 311 693 l 307 685 l 308 689 q 263 645 290 661 q 204 629 236 629 q 132 660 160 629 q 108 736 104 692 q 122 781 113 765 q 125 788 122 785 l 126 789 l 125 789 l 126 792 l 129 797 l 129 796 l 158 846 q 203 912 169 886 q 276 938 236 938 m 274 908 q 213 884 240 908 q 183 826 186 860 q 202 769 181 793 q 257 744 224 744 q 319 768 292 744 q 349 826 346 792 q 331 885 353 861 q 274 908 310 908 m 221 828 q 240 863 224 849 q 276 878 256 878 q 310 863 297 878 q 321 828 324 849 q 302 794 318 808 q 265 779 286 779 q 231 794 244 779 q 221 828 218 808 z "},"a":{"ha":644,"x_min":31,"x_max":682,"o":"m 246 0 l 31 0 l 79 465 q 83 512 81 486 q 90 563 86 538 q 96 607 93 588 q 101 635 99 626 q 110 665 104 650 q 126 697 117 679 l 128 700 q 129 702 129 701 q 131 704 129 703 l 151 740 q 201 830 168 789 q 279 901 235 871 q 438 949 354 949 q 563 917 507 949 q 651 828 619 885 q 681 725 681 775 q 676 622 682 675 l 619 86 l 613 86 l 567 0 l 350 0 l 372 213 l 313 213 l 299 86 l 293 86 l 246 0 m 450 328 l 428 115 l 592 115 l 646 622 q 651 718 651 671 q 625 811 650 765 q 547 891 597 863 q 435 919 497 919 q 294 876 361 919 q 220 808 250 849 q 176 719 190 767 q 171 692 174 711 q 165 649 168 674 q 160 600 163 625 q 156 556 157 575 q 153 543 154 549 q 153 532 153 538 l 108 115 l 272 115 l 294 328 l 450 328 m 468 492 l 313 492 l 329 653 q 331 678 329 664 q 342 708 333 693 q 374 744 357 732 q 418 756 392 756 q 483 708 467 756 q 489 678 490 693 q 485 653 488 664 l 468 492 m 404 522 l 408 564 q 413 586 411 575 q 411 608 414 597 q 365 639 397 639 l 357 639 l 344 522 l 404 522 m 303 686 q 285 652 300 667 q 249 638 269 638 q 215 652 229 638 q 204 686 201 667 q 223 722 207 707 q 258 736 239 736 q 292 722 279 736 q 303 686 306 707 m 290 564 q 272 528 288 543 q 235 514 256 514 q 202 528 215 514 q 192 564 189 543 q 210 599 194 585 q 246 613 226 613 q 280 599 267 613 q 290 564 293 585 m 275 442 q 257 406 272 421 q 221 392 242 392 q 187 406 200 392 q 176 442 174 421 q 195 477 179 463 q 232 492 211 492 q 265 477 253 492 q 275 442 278 463 m 268 315 q 250 280 265 294 q 214 265 235 265 q 181 280 194 265 q 169 315 167 294 q 188 349 172 335 q 224 364 204 364 q 258 349 244 364 q 268 315 271 335 m 374 396 q 356 362 371 376 q 321 347 342 347 q 286 362 300 347 q 275 396 272 376 q 294 431 278 417 q 331 446 310 446 q 364 431 351 446 q 374 396 376 417 m 486 396 q 468 362 483 376 q 433 347 453 347 q 399 362 413 347 q 388 396 385 376 q 406 431 390 417 q 443 446 422 446 q 476 431 463 446 q 486 396 489 417 m 253 196 q 235 162 250 176 q 200 147 221 147 q 165 162 179 147 q 154 196 151 176 q 173 231 157 217 q 210 246 189 246 q 243 231 231 246 q 253 196 256 217 m 568 203 q 549 167 565 182 q 513 153 533 153 q 480 167 493 153 q 469 203 467 182 q 488 237 472 222 q 524 251 504 251 q 558 237 544 251 q 568 203 571 222 m 619 686 q 601 652 617 667 q 567 638 586 638 q 532 652 546 638 q 521 686 518 667 q 540 722 524 707 q 576 736 556 736 q 609 722 596 736 q 619 686 622 707 m 610 567 q 592 531 607 546 q 556 517 576 517 q 522 531 536 517 q 511 567 508 546 q 530 601 514 586 q 565 615 546 615 q 599 601 586 615 q 610 567 613 586 m 597 444 q 578 409 594 424 q 542 394 563 394 q 509 409 522 394 q 499 444 496 424 q 517 478 501 464 q 553 493 533 493 q 587 478 574 493 q 597 444 600 464 m 581 321 q 562 287 578 301 q 525 272 546 272 q 492 287 506 272 q 482 321 479 301 q 501 356 485 342 q 536 371 517 371 q 570 356 557 371 q 581 321 583 342 m 485 790 q 503 826 488 811 q 539 840 519 840 q 573 826 560 840 q 583 790 586 811 q 565 756 581 771 q 529 742 550 742 q 496 756 510 742 q 485 790 482 771 m 378 832 q 397 867 381 853 q 433 882 413 882 q 466 867 453 882 q 476 832 479 853 q 458 797 474 811 q 424 783 443 783 q 389 797 403 783 q 378 832 375 811 m 265 793 q 283 828 268 814 q 318 843 299 843 q 353 828 339 843 q 364 793 367 814 q 345 758 361 772 q 308 743 329 743 q 276 758 289 743 q 265 793 263 772 z "},"b":{"ha":644,"x_min":36,"x_max":692,"o":"m 557 149 q 446 40 514 81 q 304 0 378 0 l 36 0 l 125 854 l 169 935 l 171 947 l 443 947 q 578 908 518 947 q 669 797 639 868 q 686 675 692 738 q 622 528 678 596 l 615 514 q 653 358 661 439 q 610 238 647 299 q 601 223 607 231 q 589 208 596 215 l 557 149 m 592 531 q 653 656 640 589 q 642 785 667 722 q 564 883 617 847 q 440 918 511 918 l 199 918 l 114 115 l 356 115 q 487 151 426 115 q 585 249 547 186 q 624 378 624 311 q 589 503 625 444 l 581 517 l 592 531 m 424 754 q 476 731 456 754 q 493 676 496 708 q 464 622 489 644 q 407 599 439 599 l 329 599 l 346 754 l 424 754 m 400 628 q 371 639 389 639 l 363 639 l 361 628 l 400 628 m 389 435 q 442 412 421 435 q 460 357 463 389 q 431 302 456 325 q 374 279 406 279 l 296 279 l 311 435 l 389 435 m 367 308 q 338 319 353 319 l 329 319 l 328 308 l 367 308 m 436 829 q 418 795 433 810 q 383 781 403 781 q 349 795 363 781 q 338 829 335 810 q 356 865 340 850 q 393 879 372 879 q 426 865 413 879 q 436 829 439 850 m 374 194 q 356 160 371 174 q 321 146 340 146 q 286 160 300 146 q 275 194 272 174 q 294 230 278 215 q 331 244 310 244 q 363 230 350 244 q 374 194 376 215 m 494 214 q 476 178 492 193 q 440 164 460 164 q 406 178 419 164 q 396 214 393 193 q 414 248 399 233 q 450 263 429 263 q 483 248 469 263 q 494 214 497 233 m 588 308 q 569 273 585 288 q 533 258 554 258 q 499 273 513 258 q 489 308 486 288 q 508 343 492 329 q 544 357 524 357 q 578 343 565 357 q 588 308 590 329 m 575 424 q 556 390 572 404 q 519 375 540 375 q 486 390 499 375 q 476 424 474 404 q 494 459 479 444 q 529 474 508 474 q 564 459 550 474 q 575 424 578 444 m 553 824 q 534 788 550 803 q 497 774 518 774 q 465 788 478 774 q 454 824 451 803 q 473 858 457 843 q 508 872 489 872 q 542 858 529 872 q 553 824 556 843 m 614 614 q 595 580 611 594 q 560 565 579 565 q 526 580 539 565 q 515 614 513 594 q 534 649 518 635 q 571 664 550 664 q 603 649 590 664 q 614 614 617 635 m 621 735 q 602 701 618 715 q 565 686 586 686 q 532 701 544 686 q 522 735 519 715 q 540 770 525 756 q 576 785 556 785 q 610 770 597 785 q 621 735 624 756 m 513 518 q 494 484 510 499 q 457 469 478 469 q 424 484 438 469 q 414 518 411 499 q 432 553 417 539 q 467 568 447 568 q 501 553 488 568 q 513 518 515 539 m 396 517 q 377 483 393 497 q 342 468 361 468 q 308 483 321 468 q 297 517 294 497 q 315 552 300 538 q 351 567 331 567 q 385 552 371 567 q 396 517 399 538 m 318 831 q 300 797 315 811 q 265 782 285 782 q 231 797 244 782 q 219 831 217 811 q 238 866 222 851 q 275 881 254 881 q 308 866 294 881 q 318 831 321 851 m 306 703 q 287 669 303 683 q 251 654 271 654 q 217 669 231 654 q 207 703 204 683 q 225 738 210 724 q 261 753 240 753 q 294 738 281 753 q 306 703 308 724 m 292 572 q 273 538 289 553 q 238 524 257 524 q 203 538 217 524 q 193 572 190 553 q 212 608 196 593 q 249 622 228 622 q 281 608 268 622 q 292 572 294 593 m 278 449 q 260 413 275 428 q 225 399 244 399 q 190 413 204 399 q 179 449 176 428 q 198 484 182 469 q 235 499 214 499 q 267 484 254 499 q 278 449 281 469 m 265 322 q 247 287 263 301 q 211 272 231 272 q 177 287 190 272 q 167 322 164 301 q 185 356 169 342 q 222 371 201 371 q 255 356 242 371 q 265 322 268 342 m 251 197 q 233 162 249 176 q 199 147 218 147 q 164 162 178 147 q 153 197 150 176 q 172 231 156 217 q 208 246 188 246 q 241 231 228 246 q 251 197 254 217 z "},"c":{"ha":644,"x_min":58,"x_max":683,"o":"m 558 167 q 449 46 515 90 q 300 0 379 0 q 219 13 263 0 q 122 75 163 31 q 65 181 81 119 q 60 240 58 211 q 64 303 61 268 l 90 553 q 99 616 94 586 q 118 675 104 646 l 125 692 l 154 744 l 163 765 q 243 870 190 824 q 356 936 296 917 q 439 949 397 949 q 535 928 490 949 q 615 868 581 907 q 665 779 647 829 q 682 672 683 729 l 682 671 l 675 671 l 629 585 l 417 585 l 417 586 q 365 639 403 636 q 361 640 363 639 l 357 640 l 357 635 q 353 602 354 618 q 351 569 351 586 l 339 463 q 335 431 336 446 q 332 399 333 415 q 329 376 331 389 q 328 353 328 363 q 342 322 329 333 q 374 310 354 310 q 405 324 389 311 q 431 361 421 338 l 431 363 l 650 363 l 650 361 q 583 213 632 276 l 558 167 m 436 918 q 363 907 403 918 q 260 850 306 890 q 192 756 215 810 q 173 701 178 729 q 165 642 168 674 l 139 393 q 135 333 136 360 q 142 278 133 306 q 191 183 154 224 q 281 126 228 143 q 319 117 301 119 q 351 115 336 115 q 442 132 399 115 q 520 178 485 149 q 580 247 556 207 q 614 332 604 286 l 449 332 q 417 294 438 308 q 372 279 397 281 l 369 279 q 318 300 339 279 q 299 351 297 321 q 303 408 300 379 q 310 463 307 438 l 322 569 q 326 624 324 596 q 333 682 328 653 q 364 733 339 713 q 419 754 389 754 l 422 754 q 464 738 446 753 q 486 700 482 724 l 651 700 q 637 787 653 747 q 592 856 621 826 q 523 901 563 885 q 436 918 483 918 m 310 679 q 291 644 307 658 q 254 629 275 629 q 222 644 235 629 q 211 679 208 658 q 230 713 214 699 q 265 728 246 728 q 299 713 286 728 q 310 679 313 699 m 296 556 q 277 522 293 536 q 240 507 261 507 q 206 522 219 507 q 196 556 193 536 q 214 591 199 576 q 250 606 229 606 q 285 591 271 606 q 296 556 299 576 m 282 435 q 264 399 279 414 q 228 385 249 385 q 193 399 207 385 q 182 435 179 414 q 201 469 185 454 q 238 483 217 483 q 272 469 258 483 q 282 435 285 454 m 504 775 q 523 809 507 794 q 558 824 539 824 q 592 809 579 824 q 603 775 606 794 q 584 740 600 754 q 547 725 568 725 q 515 740 528 725 q 504 775 501 754 m 390 826 q 409 860 393 846 q 446 875 425 875 q 479 860 467 875 q 489 826 492 846 q 471 791 486 806 q 435 776 456 776 q 401 791 414 776 q 390 826 388 806 m 271 788 q 290 822 274 807 q 325 836 306 836 q 359 822 346 836 q 369 788 372 807 q 351 752 367 767 q 314 738 335 738 q 281 752 294 738 q 271 788 268 767 m 176 315 q 195 349 179 335 q 231 364 211 364 q 265 349 251 364 q 275 315 278 335 q 257 280 272 294 q 221 265 242 265 q 188 280 201 265 q 176 315 174 294 m 236 218 q 255 253 239 239 q 292 268 271 268 q 324 253 311 268 q 335 218 338 239 q 316 184 332 199 q 281 169 300 169 q 247 184 260 169 q 236 218 233 199 m 353 199 q 371 233 356 218 q 406 247 386 247 q 440 233 426 247 q 451 199 454 218 q 433 163 449 178 q 396 149 417 149 q 363 163 376 149 q 353 199 350 178 m 458 271 q 477 306 461 292 q 514 321 493 321 q 547 306 533 321 q 557 271 560 292 q 538 237 554 251 q 503 222 522 222 q 469 237 482 222 q 458 271 456 251 z "},"d":{"ha":644,"x_min":35,"x_max":690,"o":"m 474 442 q 469 397 472 419 q 464 350 467 374 q 442 305 460 325 q 399 278 424 285 q 380 276 389 276 q 360 275 371 275 l 339 275 q 328 276 332 276 q 319 276 325 276 l 294 276 l 344 747 q 388 749 357 747 q 450 738 418 750 q 478 717 468 731 q 492 688 488 703 q 496 658 496 672 q 494 633 496 643 q 493 622 493 629 l 478 486 l 474 442 m 399 306 q 411 438 406 376 q 416 489 414 463 q 420 538 418 515 q 423 577 422 560 q 424 603 424 594 q 414 627 424 619 q 393 638 404 635 q 363 638 379 640 l 328 304 q 338 304 332 304 q 347 303 344 304 l 363 303 q 378 303 369 303 q 393 304 386 304 l 393 306 l 399 306 m 561 157 q 451 42 521 85 q 301 0 381 0 l 35 0 l 124 854 l 168 935 l 169 947 l 440 947 q 625 869 554 947 q 674 781 658 831 q 685 676 690 732 l 651 357 q 585 200 640 271 l 567 169 q 565 167 567 167 l 561 157 m 111 115 l 353 115 q 449 134 403 115 q 531 186 494 153 q 592 263 568 219 q 621 357 615 307 l 654 676 q 645 770 660 726 q 601 847 631 814 q 530 899 572 881 q 438 918 488 918 l 196 918 l 111 115 m 325 835 q 306 799 322 814 q 269 785 290 785 q 235 799 249 785 q 225 835 222 814 q 243 869 228 854 q 279 883 258 883 q 314 869 300 883 q 325 835 328 854 m 451 835 q 433 799 449 814 q 396 785 417 785 q 363 799 376 785 q 353 835 350 814 q 371 869 356 854 q 406 883 386 883 q 440 869 426 883 q 451 835 454 854 m 564 797 q 545 762 561 776 q 510 747 529 747 q 476 762 489 747 q 465 797 463 776 q 484 832 468 818 q 521 846 500 846 q 553 832 540 846 q 564 797 567 818 m 613 692 q 594 658 610 672 q 558 643 578 643 q 524 658 538 643 q 514 692 511 672 q 533 727 517 713 q 569 742 549 742 q 602 727 589 742 q 613 692 615 713 m 608 578 q 590 542 606 557 q 554 528 574 528 q 520 542 533 528 q 510 578 507 557 q 528 612 513 597 q 565 626 544 626 q 598 612 585 626 q 608 578 611 597 m 596 456 q 577 422 593 436 q 542 407 561 407 q 508 422 521 407 q 497 456 494 436 q 516 491 500 476 q 553 506 532 506 q 585 491 572 506 q 596 456 599 476 m 504 226 q 485 192 501 206 q 449 178 469 178 q 416 192 429 178 q 406 226 403 206 q 424 262 408 247 q 458 276 439 276 q 493 262 479 276 q 504 226 507 247 m 575 336 q 556 301 572 315 q 521 286 540 286 q 487 301 500 286 q 476 336 474 315 q 495 370 479 356 q 532 385 511 385 q 565 370 551 385 q 575 336 578 356 m 383 200 q 365 165 381 179 q 329 150 349 150 q 295 165 308 150 q 285 200 282 179 q 303 234 288 219 q 339 249 318 249 q 372 234 358 249 q 383 200 386 219 m 311 707 q 292 672 308 686 q 256 657 276 657 q 222 672 235 657 q 211 707 208 686 q 230 741 214 726 q 267 756 246 756 q 301 741 288 756 q 311 707 314 726 m 299 585 q 280 549 296 564 q 243 535 264 535 q 209 549 222 535 q 199 585 196 564 q 217 619 201 604 q 253 633 232 633 q 288 619 274 633 q 299 585 301 604 m 285 450 q 266 415 282 429 q 229 400 250 400 q 195 415 208 400 q 185 450 182 429 q 203 484 188 469 q 239 499 218 499 q 274 484 260 499 q 285 450 288 469 m 271 325 q 252 291 268 306 q 215 276 236 276 q 181 291 194 276 q 171 325 168 306 q 190 360 174 346 q 226 375 206 375 q 260 360 247 375 q 271 325 274 346 m 258 200 q 240 165 256 179 q 203 150 224 150 q 169 165 182 150 q 158 200 156 179 q 176 234 161 219 q 213 249 192 249 q 247 234 233 249 q 258 200 261 219 z "},"e":{"ha":644,"x_min":35,"x_max":713,"o":"m 569 0 l 35 0 l 124 856 l 168 935 l 169 949 l 713 949 l 689 725 l 682 725 l 636 639 l 361 639 l 360 629 l 679 629 l 656 406 l 649 406 l 603 319 l 328 319 l 326 310 l 646 310 l 622 86 l 615 86 l 569 0 m 111 115 l 596 115 l 614 279 l 293 279 l 308 435 l 629 435 l 647 599 l 326 599 l 343 756 l 664 756 l 681 919 l 196 919 l 111 115 m 504 510 q 485 476 501 490 q 450 461 469 461 q 416 476 429 461 q 406 510 403 490 q 424 545 408 531 q 461 560 440 560 q 494 545 481 560 q 504 510 507 531 m 619 513 q 601 477 617 492 q 564 463 585 463 q 531 477 544 463 q 521 513 518 492 q 540 548 524 533 q 575 563 556 563 q 609 548 596 563 q 619 513 622 533 m 396 510 q 377 474 393 489 q 342 460 361 460 q 308 474 321 460 q 297 510 294 489 q 316 544 300 529 q 353 558 332 558 q 385 544 372 558 q 396 510 399 529 m 317 832 q 299 797 314 811 q 263 782 283 782 q 228 797 242 782 q 218 832 215 811 q 236 867 221 853 q 272 882 251 882 q 306 867 293 882 q 317 832 319 853 m 432 835 q 413 799 429 814 q 378 785 397 785 q 344 799 357 785 q 333 835 331 814 q 351 869 336 856 q 388 883 367 883 q 421 869 407 883 q 432 835 435 856 m 654 832 q 636 797 651 811 q 601 782 621 782 q 567 797 581 782 q 556 832 553 811 q 574 867 558 853 q 611 882 590 882 q 644 867 631 882 q 654 832 657 853 m 304 704 q 285 670 301 685 q 249 656 269 656 q 215 670 228 656 q 206 704 203 685 q 224 740 208 725 q 260 754 239 754 q 294 740 281 754 q 304 704 307 725 m 290 578 q 272 542 288 557 q 235 528 256 528 q 201 542 214 528 q 192 578 189 557 q 210 613 194 599 q 246 626 225 626 q 280 613 267 626 q 290 578 293 599 m 276 447 q 258 412 274 426 q 222 397 243 397 q 188 412 201 397 q 178 447 175 426 q 196 483 181 468 q 232 497 211 497 q 266 483 253 497 q 276 447 279 468 m 539 833 q 520 798 536 813 q 485 783 504 783 q 451 798 464 783 q 440 833 438 813 q 458 868 443 854 q 494 882 474 882 q 528 868 514 882 q 539 833 542 854 m 360 196 q 342 160 357 175 q 307 146 326 146 q 272 160 286 146 q 261 196 258 175 q 280 230 264 215 q 317 244 296 244 q 349 230 336 244 q 360 196 363 215 m 588 193 q 569 158 585 172 q 533 143 554 143 q 499 158 513 143 q 489 193 486 172 q 508 227 492 213 q 544 242 524 242 q 578 227 565 242 q 588 193 590 213 m 471 194 q 452 159 468 174 q 417 144 436 144 q 383 159 396 144 q 372 194 369 174 q 391 228 375 214 q 428 243 407 243 q 460 228 447 243 q 471 194 474 214 m 264 322 q 245 288 261 303 q 208 274 229 274 q 175 288 188 274 q 165 322 163 303 q 183 358 168 343 q 219 372 199 372 q 253 358 240 372 q 264 322 267 343 m 250 197 q 232 162 247 176 q 196 147 217 147 q 162 162 175 147 q 151 197 149 176 q 169 231 154 217 q 206 246 185 246 q 240 231 226 246 q 250 197 253 217 z "},"f":{"ha":644,"x_min":32,"x_max":710,"o":"m 247 0 l 32 0 l 121 854 l 165 935 l 167 947 l 710 947 l 686 724 l 679 724 l 633 639 l 358 639 l 357 628 l 676 628 l 653 404 l 646 404 l 600 319 l 325 319 l 300 86 l 293 86 l 247 0 m 110 115 l 274 115 l 307 435 l 626 435 l 644 599 l 325 599 l 342 754 l 661 754 l 678 918 l 194 918 l 110 115 m 307 824 q 288 789 304 803 q 251 775 272 775 q 219 789 232 775 q 208 824 206 803 q 227 859 211 844 q 263 874 243 874 q 297 859 283 874 q 307 824 310 844 m 424 826 q 405 791 421 806 q 368 776 389 776 q 335 791 347 776 q 325 826 322 806 q 343 861 328 847 q 379 875 358 875 q 413 861 400 875 q 424 826 426 847 m 653 824 q 634 789 650 803 q 597 775 618 775 q 565 789 578 775 q 554 824 551 803 q 573 859 557 844 q 608 874 589 874 q 642 859 629 874 q 653 824 656 844 m 293 696 q 274 662 290 676 q 238 647 258 647 q 205 662 218 647 q 194 696 192 676 q 213 731 197 717 q 249 746 229 746 q 283 731 269 746 q 293 696 296 717 m 281 569 q 262 535 278 550 q 225 521 246 521 q 192 535 206 521 q 182 569 179 550 q 200 605 185 590 q 235 619 215 619 q 269 605 256 619 q 281 569 283 590 m 267 439 q 248 405 264 419 q 211 390 232 390 q 178 405 192 390 q 168 439 165 419 q 186 474 171 460 q 221 489 201 489 q 256 474 242 489 q 267 439 269 460 m 493 510 q 474 475 490 489 q 438 461 458 461 q 404 475 417 461 q 394 510 392 489 q 413 545 397 531 q 449 560 428 560 q 483 545 469 560 q 493 510 496 531 m 535 825 q 516 790 532 804 q 479 775 500 775 q 445 790 458 775 q 435 825 432 804 q 453 860 438 846 q 490 874 469 874 q 524 860 511 874 q 535 825 538 846 m 614 513 q 595 477 611 492 q 558 463 579 463 q 524 477 538 463 q 514 513 511 492 q 533 547 517 532 q 569 561 549 561 q 603 547 590 561 q 614 513 617 532 m 381 508 q 362 474 378 488 q 325 460 346 460 q 292 474 306 460 q 282 508 279 488 q 301 544 285 529 q 336 558 317 558 q 370 544 357 558 q 381 508 383 529 m 253 315 q 235 280 250 294 q 199 265 219 265 q 165 280 179 265 q 154 315 151 294 q 173 349 157 335 q 208 364 189 364 q 242 349 229 364 q 253 315 256 335 m 240 189 q 222 155 238 169 q 185 140 206 140 q 152 155 165 140 q 142 189 139 169 q 160 224 144 210 q 196 239 176 239 q 230 224 217 239 q 240 189 243 210 z "},"g":{"ha":644,"x_min":60,"x_max":685,"o":"m 676 672 l 653 629 l 678 629 l 650 357 q 629 278 644 317 q 586 204 614 240 l 560 158 q 451 43 519 86 q 303 0 382 0 q 222 13 260 0 q 123 76 164 32 q 67 181 82 121 q 60 240 60 211 q 64 303 61 269 l 90 551 q 100 615 94 586 q 119 675 106 644 q 124 687 122 682 q 129 699 126 692 l 157 747 l 165 767 q 243 872 193 826 q 358 936 293 917 q 401 945 381 943 q 442 947 421 947 q 538 926 493 947 q 615 867 582 904 q 666 781 647 831 q 683 672 685 731 l 676 672 m 439 918 q 364 908 403 918 q 262 850 307 890 q 193 757 217 810 q 175 701 181 729 q 167 642 169 674 l 140 392 q 137 333 138 361 q 143 278 136 306 q 192 184 156 224 q 282 126 229 144 q 318 118 301 121 q 354 115 335 115 q 449 134 404 115 q 531 186 494 153 q 592 263 568 219 q 621 357 615 307 l 646 599 l 354 599 l 336 435 l 464 435 l 457 357 q 429 303 453 325 q 374 279 406 281 l 371 279 q 319 300 339 279 q 300 351 299 321 q 303 395 300 374 q 308 436 306 417 q 309 450 308 443 q 311 464 310 457 q 315 491 314 478 q 318 517 315 504 q 320 544 319 531 q 322 569 321 557 q 323 583 322 576 q 325 597 324 590 q 329 639 328 618 q 335 683 331 660 q 365 733 340 713 q 421 754 390 754 l 424 754 q 465 739 447 753 q 489 701 482 725 l 656 701 q 639 787 656 747 q 593 856 622 826 q 524 901 564 885 q 439 918 485 918 m 386 319 l 344 319 q 375 310 356 310 q 385 311 382 310 l 386 319 m 308 699 q 290 663 306 678 q 254 649 275 649 q 219 663 233 649 q 208 699 206 678 q 227 733 211 718 q 264 747 243 747 q 298 733 285 747 q 308 699 311 718 m 285 574 q 266 538 282 553 q 231 524 250 524 q 197 538 210 524 q 186 574 183 553 q 205 608 189 593 q 242 622 221 622 q 274 608 261 622 q 285 574 288 593 m 272 451 q 253 417 269 431 q 218 403 238 403 q 184 417 197 403 q 174 451 171 431 q 192 487 176 472 q 228 501 207 501 q 261 487 247 501 q 272 451 275 472 m 497 782 q 515 817 500 803 q 551 831 531 831 q 586 817 572 831 q 597 782 600 803 q 578 747 594 761 q 542 732 563 732 q 508 747 521 732 q 497 782 494 761 m 393 838 q 412 872 396 858 q 447 886 428 886 q 481 872 468 886 q 492 838 494 858 q 473 802 489 817 q 436 788 457 788 q 403 802 417 788 q 393 838 390 817 m 276 803 q 295 837 279 822 q 332 851 311 851 q 365 837 351 851 q 375 803 378 822 q 356 767 372 782 q 321 753 340 753 q 287 767 300 753 q 276 803 274 782 m 167 332 q 185 367 169 353 q 221 382 200 382 q 256 367 242 382 q 267 332 269 353 q 248 298 264 313 q 211 283 232 283 q 177 298 190 283 q 167 332 164 313 m 224 235 q 242 269 226 254 q 279 283 258 283 q 312 269 299 283 q 322 235 325 254 q 303 199 319 214 q 268 185 288 185 q 234 199 247 185 q 224 235 221 214 m 344 210 q 363 244 347 229 q 400 258 379 258 q 433 244 419 258 q 443 210 446 229 q 425 174 440 189 q 390 160 410 160 q 356 174 369 160 q 344 210 342 189 m 453 276 q 472 311 456 297 q 508 325 488 325 q 541 311 528 325 q 551 276 554 297 q 533 241 549 256 q 499 226 518 226 q 464 241 478 226 q 453 276 450 256 m 492 394 q 510 428 494 414 q 547 443 526 443 q 580 428 567 443 q 590 394 593 414 q 572 359 588 374 q 538 344 557 344 q 503 359 517 344 q 492 394 489 374 m 500 519 q 518 553 503 539 q 553 568 533 568 q 588 553 574 568 q 599 519 601 539 q 580 484 596 499 q 543 469 564 469 q 510 484 524 469 q 500 519 497 499 m 382 517 q 400 551 385 536 q 436 565 415 565 q 469 551 456 565 q 481 517 483 536 q 462 481 478 496 q 426 467 446 467 q 392 481 406 467 q 382 517 379 496 z "},"h":{"ha":644,"x_min":36,"x_max":714,"o":"m 251 0 l 36 0 l 125 854 l 169 935 l 171 949 l 394 949 l 361 629 l 421 629 l 444 854 l 489 935 l 490 949 l 714 949 l 624 86 l 617 86 l 571 0 l 356 0 l 389 319 l 329 319 l 304 86 l 297 86 l 251 0 m 467 435 l 433 115 l 596 115 l 681 918 l 518 918 l 485 599 l 329 599 l 363 918 l 199 918 l 114 115 l 278 115 l 311 435 l 467 435 m 318 826 q 299 792 315 807 q 264 778 283 778 q 230 792 243 778 q 219 826 217 807 q 238 862 222 847 q 275 876 254 876 q 308 862 294 876 q 318 826 321 847 m 304 700 q 286 665 301 679 q 251 650 271 650 q 217 665 231 650 q 206 700 203 679 q 224 734 208 719 q 261 749 240 749 q 294 734 281 749 q 304 700 307 719 m 292 576 q 273 542 289 557 q 238 528 257 528 q 203 542 217 528 q 193 576 190 557 q 212 612 196 597 q 249 626 228 626 q 281 612 268 626 q 292 576 294 597 m 278 443 q 259 408 275 422 q 224 393 243 393 q 190 408 203 393 q 179 443 176 422 q 198 477 182 463 q 235 492 214 492 q 267 477 254 492 q 278 443 281 463 m 389 510 q 370 476 386 490 q 333 461 354 461 q 301 476 314 461 q 290 510 288 490 q 309 545 293 531 q 344 560 325 560 q 378 545 365 560 q 389 510 392 531 m 506 510 q 487 476 503 490 q 450 461 471 461 q 417 476 431 461 q 407 510 404 490 q 426 545 410 531 q 461 560 442 560 q 495 545 482 560 q 506 510 508 531 m 265 318 q 247 283 263 297 q 211 269 231 269 q 177 283 190 269 q 167 318 164 297 q 185 353 169 339 q 221 368 200 368 q 254 353 240 368 q 265 318 268 339 m 251 193 q 233 158 249 172 q 197 143 217 143 q 163 158 176 143 q 153 193 150 172 q 172 227 156 213 q 208 242 188 242 q 241 227 228 242 q 251 193 254 213 m 643 838 q 624 802 640 817 q 588 788 608 788 q 555 802 568 788 q 544 838 542 817 q 563 872 547 858 q 599 886 579 886 q 633 872 619 886 q 643 838 646 858 m 629 710 q 611 675 626 689 q 575 661 596 661 q 542 675 556 661 q 531 710 528 689 q 549 745 533 731 q 585 760 565 760 q 619 745 606 760 q 629 710 632 731 m 617 588 q 598 552 614 567 q 561 538 582 538 q 528 552 542 538 q 518 588 515 567 q 537 622 521 608 q 572 636 553 636 q 606 622 593 636 q 617 588 619 608 m 603 453 q 584 419 600 433 q 547 404 568 404 q 515 419 528 404 q 504 453 501 433 q 523 488 507 474 q 558 503 539 503 q 592 488 579 503 q 603 453 606 474 m 589 328 q 571 294 586 308 q 535 279 556 279 q 501 294 515 279 q 490 328 488 308 q 509 363 493 349 q 544 378 525 378 q 578 363 565 378 q 589 328 592 349 m 576 203 q 558 169 574 183 q 521 154 542 154 q 488 169 501 154 q 478 203 475 183 q 497 238 481 224 q 532 253 513 253 q 566 238 553 253 q 576 203 579 224 z "},"i":{"ha":347,"x_min":46,"x_max":404,"o":"m 261 0 l 46 0 l 135 854 l 179 933 l 181 947 l 404 947 l 314 85 l 308 85 l 261 0 m 208 918 l 124 115 l 288 115 l 372 918 l 208 918 m 331 828 q 312 792 328 807 q 276 778 296 778 q 242 792 256 778 q 232 828 229 807 q 251 862 235 847 q 288 876 267 876 q 320 862 307 876 q 331 828 333 847 m 317 700 q 299 665 314 679 q 264 650 283 650 q 229 665 243 650 q 218 700 215 679 q 237 734 221 719 q 274 749 253 749 q 306 734 293 749 q 317 700 319 719 m 304 578 q 285 542 301 557 q 250 528 269 528 q 216 542 229 528 q 206 578 203 557 q 224 612 208 597 q 261 626 240 626 q 294 612 281 626 q 304 578 307 597 m 290 443 q 272 408 288 422 q 236 393 256 393 q 202 408 215 393 q 192 443 189 422 q 210 477 194 463 q 247 492 226 492 q 280 477 267 492 q 290 443 293 463 m 278 318 q 259 283 275 297 q 224 269 243 269 q 190 283 203 269 q 179 318 176 297 q 197 353 182 339 q 233 368 213 368 q 267 353 253 368 q 278 318 281 339 m 264 193 q 245 158 261 172 q 210 143 229 143 q 176 158 189 143 q 165 193 163 172 q 184 227 168 213 q 221 242 200 242 q 253 227 240 242 q 264 193 267 213 z "},"j":{"ha":644,"x_min":54,"x_max":706,"o":"m 103 363 l 322 363 l 322 361 q 369 310 333 313 q 376 310 372 310 q 382 311 379 311 l 383 318 q 384 332 383 325 q 386 346 385 339 q 385 360 385 353 q 388 374 386 367 l 438 854 l 482 936 l 483 949 l 706 949 l 647 393 q 640 328 644 357 q 621 268 635 299 q 582 204 607 236 l 563 171 q 557 160 558 165 q 478 68 526 107 q 376 13 431 29 q 296 0 340 0 q 122 78 193 0 q 72 165 89 115 q 56 268 54 214 l 101 353 q 102 357 101 356 q 103 361 103 358 l 103 363 m 450 351 q 420 300 444 321 q 367 279 396 279 l 363 279 q 321 294 339 281 q 297 332 303 308 l 132 332 q 148 247 132 286 q 192 178 164 207 q 260 132 221 149 q 347 115 300 115 q 421 126 388 115 q 524 183 479 143 q 594 278 569 224 q 610 333 606 306 q 618 393 615 360 l 674 918 l 511 918 l 463 463 q 459 407 461 435 q 450 351 457 379 m 481 343 q 499 378 483 364 q 536 393 515 393 q 569 378 556 393 q 579 343 582 364 q 561 309 576 324 q 526 294 546 294 q 492 309 506 294 q 481 343 478 324 m 497 472 q 516 506 500 492 q 551 521 532 521 q 585 506 572 521 q 596 472 599 492 q 577 437 593 451 q 540 422 561 422 q 508 437 521 422 q 497 472 494 451 m 510 594 q 528 628 513 614 q 564 643 544 643 q 598 628 585 643 q 608 594 611 614 q 590 559 606 574 q 554 544 575 544 q 521 559 535 544 q 510 594 507 574 m 521 722 q 540 758 524 743 q 576 772 556 772 q 609 758 596 772 q 619 722 622 743 q 601 688 617 703 q 565 674 585 674 q 531 688 544 674 q 521 722 518 703 m 535 847 q 553 883 538 868 q 589 897 568 897 q 622 883 608 897 q 633 847 636 868 q 615 813 631 826 q 579 799 599 799 q 545 813 558 799 q 535 847 532 826 m 288 264 q 269 228 285 243 q 235 214 254 214 q 200 228 214 214 q 189 264 186 243 q 208 298 192 283 q 244 313 224 313 q 277 298 264 313 q 288 264 290 283 m 392 197 q 374 163 389 178 q 338 149 358 149 q 304 163 318 149 q 293 197 290 178 q 312 233 296 218 q 347 247 328 247 q 381 233 368 247 q 392 197 394 218 m 519 231 q 501 196 517 210 q 465 182 486 182 q 431 196 444 182 q 421 231 418 210 q 440 266 424 251 q 476 281 456 281 q 510 266 497 281 q 519 231 522 251 z "},"k":{"ha":644,"x_min":40,"x_max":724,"o":"m 472 947 l 724 947 l 722 946 l 464 517 l 632 85 l 622 85 l 576 0 l 336 0 l 304 85 l 303 85 l 257 0 l 40 0 l 131 854 l 175 935 l 176 947 l 400 947 l 385 801 l 472 947 m 340 672 l 367 918 l 203 918 l 118 115 l 282 115 l 297 254 l 310 368 l 403 115 l 588 115 l 431 517 l 672 918 l 488 918 l 340 672 m 335 844 q 317 810 332 825 q 282 796 301 796 q 247 810 261 796 q 236 844 233 825 q 255 880 239 865 q 292 894 271 894 q 324 880 311 894 q 335 844 338 865 m 592 850 q 573 816 589 831 q 536 801 557 801 q 503 816 517 801 q 493 850 490 831 q 512 885 496 871 q 547 900 528 900 q 581 885 568 900 q 592 850 594 871 m 521 742 q 502 706 518 721 q 465 692 486 692 q 433 706 446 692 q 422 742 419 721 q 440 777 425 763 q 475 792 456 792 q 510 777 496 792 q 521 742 524 763 m 449 638 q 430 603 446 618 q 393 589 414 589 q 360 603 372 589 q 350 638 347 618 q 368 673 353 658 q 404 688 383 688 q 438 673 425 688 q 449 638 451 658 m 403 514 q 385 479 400 493 q 350 465 369 465 q 315 479 329 465 q 304 514 301 493 q 323 549 307 535 q 360 564 339 564 q 392 549 379 564 q 403 514 406 535 m 429 396 q 412 362 426 376 q 376 347 397 347 q 342 362 356 347 q 331 396 328 376 q 349 431 333 417 q 386 446 365 446 q 419 431 407 446 q 429 396 432 417 m 476 289 q 458 253 474 268 q 422 239 443 239 q 389 253 403 239 q 378 289 375 268 q 397 324 381 310 q 432 338 413 338 q 466 324 453 338 q 476 289 479 310 m 526 185 q 508 150 524 164 q 474 136 493 136 q 439 150 453 136 q 428 185 425 164 q 447 220 431 206 q 483 235 463 235 q 516 220 503 235 q 526 185 529 206 m 318 714 q 299 678 315 693 q 264 664 283 664 q 230 678 243 664 q 219 714 217 693 q 238 748 222 733 q 274 763 253 763 q 307 748 293 763 q 318 714 321 733 m 304 586 q 285 552 301 567 q 250 538 269 538 q 216 552 229 538 q 206 586 203 567 q 224 622 208 607 q 261 636 240 636 q 294 622 281 636 q 304 586 307 607 m 288 449 q 269 413 285 428 q 233 399 254 399 q 200 413 214 399 q 189 449 186 428 q 208 483 192 468 q 243 497 224 497 q 277 483 264 497 q 288 449 290 468 m 275 318 q 256 283 272 297 q 219 268 240 268 q 187 283 200 268 q 176 318 174 297 q 194 352 179 338 q 229 367 210 367 q 264 352 250 367 q 275 318 278 338 m 258 194 q 240 159 256 174 q 204 144 224 144 q 170 159 183 144 q 160 194 157 174 q 178 228 163 214 q 215 243 194 243 q 248 228 235 243 q 258 194 261 214 z "},"l":{"ha":596,"x_min":44,"x_max":590,"o":"m 514 0 l 44 0 l 133 854 l 178 936 l 179 947 l 403 947 l 336 310 l 590 310 l 567 86 l 560 86 l 514 0 m 121 115 l 539 115 l 557 279 l 303 279 l 369 918 l 206 918 l 121 115 m 336 838 q 317 803 333 817 q 281 789 301 789 q 247 803 260 789 q 238 838 235 817 q 256 873 240 858 q 292 888 271 888 q 326 873 313 888 q 336 838 339 858 m 322 710 q 304 676 319 690 q 268 661 289 661 q 234 676 247 661 q 224 710 221 690 q 242 745 226 731 q 278 760 257 760 q 312 745 299 760 q 322 710 325 731 m 310 588 q 291 553 307 567 q 254 539 275 539 q 221 553 233 539 q 211 588 208 567 q 229 623 214 608 q 265 638 244 638 q 299 623 286 638 q 310 588 313 608 m 296 453 q 277 419 293 433 q 240 404 261 404 q 207 419 219 404 q 197 453 194 433 q 215 488 200 474 q 251 503 231 503 q 285 488 272 503 q 296 453 299 474 m 282 329 q 264 294 279 308 q 228 279 249 279 q 194 294 207 279 q 183 329 181 308 q 201 363 186 349 q 238 378 217 378 q 272 363 258 378 q 282 329 285 349 m 269 203 q 251 169 267 183 q 214 154 235 154 q 181 169 193 154 q 171 203 168 183 q 189 238 174 224 q 225 253 204 253 q 259 238 246 253 q 269 203 272 224 m 392 199 q 373 163 389 178 q 338 149 357 149 q 303 163 317 149 q 293 199 290 178 q 311 233 296 219 q 347 247 326 247 q 381 233 367 247 q 392 199 394 219 m 501 199 q 483 163 499 178 q 447 149 467 149 q 413 163 426 149 q 403 199 400 178 q 421 233 406 219 q 457 247 436 247 q 490 233 476 247 q 501 199 504 219 z "},"m":{"ha":982,"x_min":42,"x_max":1015,"o":"m 681 0 l 740 571 q 729 627 744 614 q 696 640 714 640 l 693 640 q 688 640 689 642 l 629 86 l 622 86 l 576 0 l 361 0 l 421 571 q 410 627 425 614 q 376 640 394 640 l 374 640 q 368 640 369 642 l 310 86 l 303 86 l 257 0 l 42 0 l 103 590 q 115 645 106 618 q 136 696 124 672 l 138 700 q 140 703 140 703 l 143 707 l 147 715 l 165 750 q 254 874 190 818 q 347 930 296 910 q 450 950 397 950 q 603 896 536 950 q 767 950 682 950 q 865 931 818 950 q 947 875 911 911 q 999 785 983 835 q 1011 679 1015 735 l 1001 582 q 998 557 999 569 q 996 532 997 544 q 994 508 996 521 q 992 483 993 496 q 989 458 990 471 q 985 433 988 446 l 981 383 l 949 86 l 942 86 l 896 0 l 681 0 m 429 756 q 453 752 440 756 q 477 739 467 749 q 494 710 488 729 q 497 661 500 692 l 439 117 l 603 117 l 661 661 q 674 710 664 692 q 697 739 685 729 q 724 752 710 749 q 749 756 738 756 q 773 752 760 756 q 797 739 786 749 q 813 710 807 729 q 817 661 819 692 l 758 117 l 922 117 l 940 288 q 961 483 951 385 q 982 679 971 581 q 972 774 986 729 q 925 853 957 818 q 851 902 893 885 q 764 919 808 919 q 614 871 686 919 l 600 860 l 585 871 q 447 919 525 919 q 356 901 401 919 q 272 851 310 883 q 208 772 232 817 q 179 679 185 728 q 165 547 171 613 q 151 415 158 482 q 144 351 149 383 q 138 286 140 318 l 119 117 l 283 117 l 342 661 q 355 710 344 692 q 378 739 365 729 q 404 752 390 749 q 429 756 418 756 m 311 688 q 292 652 308 667 q 256 638 276 638 q 222 652 235 638 q 211 688 208 667 q 229 722 214 707 q 265 736 244 736 q 300 722 286 736 q 311 688 314 707 m 294 564 q 276 530 292 544 q 240 515 260 515 q 206 530 219 515 q 196 564 193 544 q 215 599 199 585 q 251 614 231 614 q 284 599 271 614 q 294 564 297 585 m 282 443 q 263 408 279 422 q 228 393 247 393 q 194 408 207 393 q 183 443 181 422 q 202 477 186 463 q 239 492 218 492 q 272 477 258 492 q 282 443 285 463 m 272 319 q 253 285 269 300 q 217 271 238 271 q 183 285 196 271 q 172 319 169 300 q 190 355 175 340 q 226 369 206 369 q 261 355 247 369 q 272 319 275 340 m 258 196 q 240 160 256 175 q 204 146 225 146 q 169 160 183 146 q 158 196 156 175 q 177 230 161 215 q 214 244 193 244 q 248 230 235 244 q 258 196 261 215 m 633 681 q 615 645 631 660 q 578 631 599 631 q 544 645 557 631 q 533 681 531 660 q 552 715 536 701 q 589 729 568 729 q 623 715 610 729 q 633 681 636 701 m 618 558 q 599 523 615 538 q 563 508 583 508 q 530 523 543 508 q 519 558 517 538 q 538 592 522 578 q 572 607 553 607 q 607 592 593 607 q 618 558 621 578 m 606 436 q 587 401 603 415 q 550 386 571 386 q 517 401 531 386 q 507 436 504 415 q 525 471 510 457 q 560 485 540 485 q 594 471 581 485 q 606 436 608 457 m 593 318 q 574 283 590 297 q 538 268 558 268 q 505 283 518 268 q 494 318 492 297 q 513 352 497 338 q 547 367 528 367 q 582 352 568 367 q 593 318 596 338 m 582 189 q 563 153 579 168 q 526 139 547 139 q 492 153 506 139 q 482 189 479 168 q 500 223 485 208 q 536 238 515 238 q 571 223 557 238 q 582 189 585 208 m 954 678 q 935 644 951 658 q 900 629 919 629 q 866 644 879 629 q 856 678 853 658 q 874 713 858 699 q 911 728 890 728 q 944 713 931 728 q 954 678 957 699 m 942 558 q 923 523 939 538 q 888 508 907 508 q 853 523 867 508 q 843 558 840 538 q 861 592 846 578 q 897 607 876 607 q 931 592 917 607 q 942 558 944 578 m 929 436 q 910 401 926 415 q 875 386 894 386 q 841 401 854 386 q 831 436 828 415 q 849 471 833 457 q 885 485 864 485 q 918 471 904 485 q 929 436 932 457 m 915 315 q 897 281 913 296 q 863 267 882 267 q 828 281 842 267 q 817 315 814 296 q 835 351 819 336 q 872 365 851 365 q 905 351 892 365 q 915 315 918 336 m 906 189 q 887 153 903 168 q 850 139 871 139 q 817 153 831 139 q 807 189 804 168 q 825 223 810 208 q 860 238 840 238 q 894 223 881 238 q 906 189 908 208 m 503 789 q 522 824 506 810 q 558 839 538 839 q 591 824 578 839 q 601 789 604 810 q 583 755 599 769 q 549 740 568 740 q 514 755 528 740 q 503 789 500 769 m 392 835 q 410 869 394 854 q 446 883 425 883 q 479 869 465 883 q 490 835 493 854 q 472 799 488 814 q 436 785 456 785 q 402 799 415 785 q 392 835 389 814 m 272 796 q 290 830 275 815 q 325 844 304 844 q 360 830 346 844 q 371 796 374 815 q 352 760 368 775 q 315 746 336 746 q 282 760 294 746 q 272 796 269 775 m 838 790 q 856 825 840 811 q 893 839 872 839 q 926 825 913 839 q 936 790 939 811 q 918 755 933 769 q 883 740 903 740 q 849 755 863 740 q 838 790 835 769 m 738 842 q 756 876 740 861 q 792 890 772 890 q 826 876 813 890 q 836 842 839 861 q 817 806 833 821 q 781 792 801 792 q 748 806 761 792 q 738 842 735 821 m 622 807 q 640 841 625 826 q 676 856 656 856 q 710 841 696 856 q 721 807 724 826 q 702 772 718 786 q 667 757 686 757 q 633 772 646 757 q 622 807 619 786 z "},"n":{"ha":644,"x_min":35,"x_max":683,"o":"m 440 949 q 562 919 507 949 q 649 836 617 889 q 683 723 683 778 q 676 613 683 668 l 621 86 l 615 86 l 569 0 l 354 0 l 414 569 q 411 606 415 592 q 400 627 407 619 q 384 637 393 635 q 368 639 375 639 l 365 639 q 361 639 361 643 l 303 86 l 296 86 l 250 0 l 35 0 l 89 524 q 101 614 94 572 q 132 699 108 656 l 136 707 q 137 709 136 708 q 138 711 138 710 l 160 753 q 211 836 176 796 q 316 919 256 889 q 440 949 376 949 m 421 754 q 445 751 432 754 q 469 738 458 747 q 487 709 481 728 q 489 660 493 690 l 432 115 l 594 115 l 647 613 q 654 717 654 667 q 624 818 654 768 q 545 892 594 865 q 438 918 496 918 q 326 892 379 918 q 232 818 272 865 q 201 770 213 794 q 181 720 189 746 q 170 668 174 694 q 164 613 167 642 l 111 115 l 275 115 l 332 660 q 347 710 336 692 q 371 739 357 729 q 399 751 385 749 q 421 754 413 754 m 307 690 q 289 656 304 669 q 253 642 274 642 q 219 656 232 642 q 208 690 206 669 q 227 726 211 711 q 264 740 243 740 q 297 726 285 740 q 307 690 310 711 m 292 568 q 274 533 289 547 q 238 518 258 518 q 204 533 218 518 q 193 568 190 547 q 212 603 196 589 q 247 617 228 617 q 281 603 268 617 q 292 568 294 589 m 279 446 q 261 411 276 425 q 225 397 246 397 q 192 411 206 397 q 181 446 178 425 q 199 481 183 467 q 235 496 215 496 q 269 481 256 496 q 279 446 282 467 m 268 324 q 250 288 265 303 q 214 274 235 274 q 180 288 193 274 q 169 324 167 303 q 188 358 172 344 q 225 372 204 372 q 258 358 246 372 q 268 324 271 344 m 256 199 q 238 163 253 178 q 201 149 222 149 q 167 163 181 149 q 157 199 154 178 q 175 234 160 219 q 211 249 190 249 q 245 234 232 249 q 256 199 258 219 m 629 683 q 612 649 626 664 q 576 635 597 635 q 542 649 556 635 q 531 683 528 664 q 549 719 533 704 q 586 733 565 733 q 619 719 607 733 q 629 683 632 704 m 615 561 q 597 527 613 542 q 560 513 581 513 q 527 527 540 513 q 517 561 514 542 q 535 597 519 582 q 571 611 551 611 q 605 597 592 611 q 615 561 618 582 m 603 439 q 584 405 600 419 q 547 390 568 390 q 515 405 528 390 q 504 439 501 419 q 522 474 507 460 q 557 489 538 489 q 592 474 578 489 q 603 439 606 460 m 590 321 q 572 286 588 300 q 535 272 556 272 q 502 286 515 272 q 492 321 489 300 q 510 356 494 342 q 546 371 526 371 q 580 356 567 371 q 590 321 593 342 m 578 192 q 560 158 575 172 q 524 143 544 143 q 490 158 503 143 q 479 192 476 172 q 498 227 482 213 q 535 242 514 242 q 568 227 556 242 q 578 192 581 213 m 501 793 q 519 827 504 813 q 554 842 535 842 q 589 827 575 842 q 600 793 603 813 q 581 758 597 772 q 544 743 565 743 q 512 758 525 743 q 501 793 499 772 m 389 838 q 408 873 392 858 q 443 888 424 888 q 477 873 464 888 q 488 838 490 858 q 469 803 485 818 q 432 789 453 789 q 399 803 413 789 q 389 838 386 818 m 268 799 q 287 834 271 819 q 324 849 303 849 q 357 834 344 849 q 367 799 369 819 q 349 765 364 779 q 313 750 333 750 q 278 765 292 750 q 268 799 265 779 z "},"o":{"ha":644,"x_min":58,"x_max":686,"o":"m 301 0 q 166 38 226 0 q 78 143 106 76 q 61 207 64 174 q 63 283 58 240 l 93 571 q 106 641 97 611 q 133 703 115 671 l 136 713 l 156 743 l 156 747 q 168 774 161 761 q 183 803 175 788 q 296 910 226 868 q 440 949 365 949 q 576 910 514 949 q 628 863 606 890 q 665 803 651 836 q 683 736 679 769 q 682 661 686 703 l 651 372 q 635 296 646 329 q 606 231 625 263 l 589 207 l 567 165 l 553 143 q 444 38 511 76 q 301 0 376 0 m 438 919 q 308 885 369 919 q 208 790 247 850 q 181 731 190 761 q 168 661 172 701 l 138 372 q 137 303 133 333 q 151 244 140 272 q 231 150 178 185 q 353 115 285 115 q 481 150 419 115 q 581 244 542 185 q 608 303 599 272 q 622 372 618 333 l 653 661 q 653 731 657 701 q 638 790 649 761 q 558 885 611 850 q 438 919 504 919 m 371 278 q 318 301 339 278 q 301 357 297 325 l 333 663 q 340 699 335 679 q 367 736 344 718 q 421 756 390 756 q 473 733 453 756 q 490 678 493 710 l 458 371 q 451 336 456 356 q 422 297 446 317 q 371 278 399 278 m 414 588 q 403 625 417 610 q 368 640 389 640 q 365 640 365 640 q 363 639 364 639 l 360 639 l 331 357 q 341 323 328 338 q 374 308 354 308 q 385 310 381 308 l 414 588 m 303 703 q 284 667 300 682 q 247 653 268 653 q 213 667 226 653 q 203 703 200 682 q 221 737 206 722 q 257 751 236 751 q 292 737 278 751 q 303 703 306 722 m 286 579 q 268 545 283 560 q 232 531 253 531 q 199 545 213 531 q 188 579 185 560 q 206 615 190 600 q 242 629 222 629 q 276 615 263 629 q 286 579 289 600 m 274 457 q 255 423 271 438 q 218 408 239 408 q 185 423 199 408 q 175 457 172 438 q 194 492 178 478 q 229 507 210 507 q 263 492 250 507 q 274 457 276 478 m 494 804 q 513 840 497 825 q 550 854 529 854 q 583 840 569 854 q 593 804 596 825 q 575 770 590 785 q 540 756 560 756 q 506 770 519 756 q 494 804 492 785 m 383 842 q 402 877 386 863 q 439 892 418 892 q 472 877 458 892 q 482 842 485 863 q 463 806 479 821 q 428 792 447 792 q 394 806 407 792 q 383 842 381 821 m 263 811 q 281 845 265 831 q 318 860 297 860 q 351 845 339 860 q 361 811 364 831 q 343 776 358 790 q 307 761 328 761 q 273 776 286 761 q 263 811 260 790 m 168 340 q 187 375 171 361 q 224 389 203 389 q 257 375 244 389 q 267 340 269 361 q 249 305 264 319 q 213 290 233 290 q 178 305 192 290 q 168 340 165 319 m 217 242 q 235 277 219 263 q 271 292 251 292 q 305 277 292 292 q 315 242 318 263 q 297 206 313 221 q 260 192 281 192 q 227 206 240 192 q 217 242 214 221 m 321 201 q 339 236 324 222 q 375 250 354 250 q 410 236 396 250 q 421 201 424 222 q 402 166 418 181 q 365 151 386 151 q 331 166 344 151 q 321 201 318 181 m 435 247 q 453 281 438 267 q 490 296 469 296 q 523 281 510 296 q 533 247 536 267 q 515 212 531 226 q 479 197 499 197 q 445 212 458 197 q 435 247 432 226 m 503 461 q 522 497 506 482 q 558 511 538 511 q 591 497 578 511 q 601 461 604 482 q 583 427 599 442 q 549 413 568 413 q 514 427 528 413 q 503 461 500 442 m 490 349 q 509 383 493 368 q 544 397 525 397 q 578 383 565 397 q 589 349 592 368 q 570 313 586 328 q 533 299 554 299 q 501 313 514 299 q 490 349 488 328 m 515 581 q 534 616 518 601 q 571 631 550 631 q 603 616 590 631 q 614 581 617 601 q 596 547 611 561 q 561 532 581 532 q 526 547 540 532 q 515 581 513 561 m 524 696 q 542 731 526 717 q 579 746 558 746 q 612 731 599 746 q 622 696 625 717 q 603 661 619 675 q 568 647 588 647 q 534 661 547 647 q 524 696 521 675 z "},"p":{"ha":644,"x_min":39,"x_max":694,"o":"m 254 0 l 39 0 l 128 854 l 174 935 l 175 949 l 446 949 q 629 868 556 949 q 679 778 664 828 q 689 676 694 729 q 624 519 678 590 l 607 490 l 603 482 q 601 480 601 481 q 600 478 601 479 q 490 363 560 406 q 340 319 419 319 l 332 319 l 307 86 l 301 86 l 254 0 m 117 115 l 281 115 l 314 435 l 392 435 q 488 453 442 435 q 570 506 533 472 q 631 583 607 539 q 660 676 654 626 q 651 769 665 725 q 607 849 638 813 q 443 918 542 918 l 201 918 l 117 115 m 496 676 q 467 622 492 644 q 410 599 442 599 l 332 599 l 349 754 l 426 754 q 478 732 458 754 q 496 676 499 710 m 403 629 q 374 639 390 639 l 365 639 l 364 629 l 403 629 m 443 836 q 424 802 440 817 q 388 788 408 788 q 355 802 368 788 q 344 836 342 817 q 363 872 347 857 q 399 886 379 886 q 433 872 419 886 q 443 836 446 857 m 557 831 q 539 795 554 810 q 504 781 524 781 q 469 795 483 781 q 458 831 456 810 q 477 865 461 851 q 514 879 493 879 q 547 865 533 879 q 557 831 560 851 m 621 622 q 602 587 618 601 q 565 572 586 572 q 532 587 544 572 q 522 622 519 601 q 540 656 525 642 q 575 671 554 671 q 610 656 596 671 q 621 622 624 642 m 626 742 q 608 708 624 722 q 572 693 592 693 q 538 708 551 693 q 528 742 525 722 q 546 777 531 763 q 582 792 561 792 q 615 777 601 792 q 626 742 629 763 m 525 536 q 506 501 522 515 q 469 486 490 486 q 437 501 450 486 q 426 536 424 515 q 445 570 429 556 q 481 585 461 585 q 515 570 501 585 q 525 536 528 556 m 403 524 q 385 490 400 504 q 349 475 369 475 q 315 490 328 475 q 304 524 301 504 q 323 559 307 544 q 360 574 339 574 q 393 559 381 574 q 403 524 406 544 m 325 840 q 306 806 322 821 q 271 792 290 792 q 237 806 250 792 q 226 840 224 821 q 245 876 229 861 q 282 890 261 890 q 315 876 301 890 q 325 840 328 861 m 313 714 q 294 678 310 693 q 258 664 278 664 q 224 678 238 664 q 214 714 211 693 q 232 748 217 733 q 268 763 247 763 q 301 748 288 763 q 313 714 315 733 m 299 582 q 280 548 296 563 q 244 533 264 533 q 210 548 224 533 q 200 582 197 563 q 218 617 203 603 q 254 632 233 632 q 288 617 274 632 q 299 582 301 603 m 285 458 q 267 424 282 438 q 232 410 251 410 q 197 424 211 410 q 186 458 183 438 q 205 494 189 479 q 242 508 221 508 q 274 494 261 508 q 285 458 288 479 m 272 332 q 253 297 269 311 q 218 282 238 282 q 184 297 197 282 q 174 332 171 311 q 192 367 176 353 q 228 381 207 381 q 261 367 247 381 q 272 332 275 353 m 258 207 q 240 172 256 186 q 204 157 224 157 q 170 172 183 157 q 160 207 157 186 q 178 241 163 226 q 215 256 194 256 q 248 241 235 256 q 258 207 261 226 z "},"q":{"ha":644,"x_min":61,"x_max":690,"o":"m 303 0 q 186 28 240 0 q 99 108 132 57 q 74 162 82 135 q 63 216 65 189 q 63 271 61 243 q 68 328 65 299 l 71 347 q 72 354 71 353 q 74 361 74 357 l 74 374 q 86 488 81 442 q 94 562 92 533 q 99 604 97 590 q 103 624 101 618 q 131 694 111 657 l 131 697 l 132 699 l 132 700 l 135 701 l 158 744 q 224 851 181 803 q 321 922 267 899 q 442 950 385 950 q 542 930 496 950 q 621 876 588 910 q 672 795 654 842 q 688 694 690 749 q 684 648 686 671 q 679 604 682 625 l 676 575 l 676 569 q 674 564 674 564 l 658 417 q 652 359 656 386 q 642 306 649 332 q 624 256 636 281 q 593 207 613 232 l 575 176 l 624 32 l 614 32 l 565 -54 l 329 -54 l 317 0 l 303 0 m 144 418 q 139 312 138 361 q 171 214 140 263 q 248 141 200 167 q 354 115 296 115 l 367 115 l 383 117 l 400 61 l 579 61 l 539 189 l 550 201 q 588 251 574 226 q 610 303 603 276 q 622 358 618 329 q 629 418 626 386 l 644 564 q 646 574 646 569 q 647 585 646 579 q 649 594 649 590 q 650 604 650 599 q 655 648 653 626 q 658 693 657 669 q 644 782 660 740 q 599 855 629 824 q 528 903 569 886 q 439 921 488 921 q 331 896 389 921 q 233 819 274 868 q 178 710 193 771 q 168 640 175 700 q 150 468 161 581 l 150 451 q 149 444 149 449 q 147 438 149 440 q 146 424 146 432 l 144 418 m 374 279 q 320 303 342 279 q 303 358 299 326 l 335 663 q 341 699 336 681 q 369 738 346 718 q 422 756 393 756 q 475 733 454 756 q 493 678 496 710 l 461 372 q 453 336 458 356 q 426 299 449 317 q 374 279 400 279 m 417 589 q 406 625 419 610 q 369 640 392 640 l 367 640 q 363 640 363 640 l 333 358 q 344 324 331 339 q 376 310 357 310 q 388 313 379 310 l 417 589 m 308 704 q 290 669 306 683 q 254 654 274 654 q 220 669 233 654 q 210 704 207 683 q 228 740 213 725 q 265 754 244 754 q 298 740 285 754 q 308 704 311 725 m 296 583 q 277 548 293 563 q 242 533 261 533 q 208 548 221 533 q 197 583 194 563 q 215 619 200 604 q 251 633 231 633 q 285 619 271 633 q 296 583 299 604 m 282 453 q 263 417 279 432 q 228 403 247 403 q 194 417 207 403 q 183 453 181 432 q 202 488 186 474 q 239 503 218 503 q 272 488 258 503 q 282 453 285 474 m 268 332 q 249 297 265 311 q 213 282 233 282 q 178 297 192 282 q 168 332 165 311 q 186 367 171 353 q 222 382 201 382 q 257 367 243 382 q 268 332 271 353 m 621 700 q 603 666 618 681 q 568 651 588 651 q 533 666 547 651 q 522 700 519 681 q 541 735 525 721 q 578 750 557 750 q 610 735 597 750 q 621 700 624 721 m 617 588 q 598 553 614 568 q 561 539 582 539 q 527 553 540 539 q 517 588 514 568 q 535 623 519 608 q 572 638 551 638 q 606 623 593 638 q 617 588 619 608 m 604 465 q 585 430 601 444 q 549 415 569 415 q 515 430 528 415 q 504 465 501 444 q 522 501 507 486 q 558 515 538 515 q 593 501 579 515 q 604 465 607 486 m 588 351 q 569 316 585 331 q 532 301 553 301 q 498 316 511 301 q 488 351 485 331 q 506 385 490 371 q 543 400 522 400 q 577 385 564 400 q 588 351 590 371 m 313 228 q 294 194 310 208 q 257 179 278 179 q 223 194 236 179 q 213 228 210 208 q 231 263 215 249 q 268 278 247 278 q 302 263 289 278 q 313 228 315 249 m 419 196 q 401 160 417 175 q 365 146 386 146 q 331 160 344 146 q 319 196 317 175 q 338 230 322 215 q 375 244 354 244 q 409 230 396 244 q 419 196 422 215 m 528 244 q 510 210 525 225 q 474 196 494 196 q 440 210 453 196 q 429 244 426 225 q 448 280 432 265 q 485 294 464 294 q 518 280 506 294 q 528 244 531 265 m 528 121 q 509 85 525 100 q 472 71 493 71 q 438 85 451 71 q 428 121 425 100 q 446 155 431 140 q 482 169 461 169 q 517 155 503 169 q 528 121 531 140 m 489 804 q 508 840 492 825 q 544 854 524 854 q 578 840 565 854 q 589 804 592 825 q 571 770 586 785 q 535 756 556 756 q 500 770 514 756 q 489 804 486 785 m 386 842 q 405 877 389 863 q 442 892 421 892 q 476 877 463 892 q 486 842 489 863 q 468 808 483 822 q 432 793 453 793 q 397 808 411 793 q 386 842 383 822 m 272 808 q 290 844 275 829 q 325 858 304 858 q 360 844 346 858 q 371 808 374 829 q 352 774 368 789 q 315 760 336 760 q 282 774 294 760 q 272 808 269 789 z "},"r":{"ha":644,"x_min":36,"x_max":690,"o":"m 356 0 l 378 214 q 381 265 381 240 q 375 300 382 289 q 354 315 367 311 q 331 321 342 319 l 306 85 l 299 85 l 253 0 l 36 0 l 125 854 l 169 933 l 171 947 l 399 947 q 467 944 433 947 q 531 931 500 942 q 591 900 563 921 q 644 844 619 879 q 679 765 668 808 q 686 676 690 721 q 624 525 675 589 l 617 514 q 651 417 647 465 q 647 308 654 368 l 624 85 l 617 85 l 571 0 l 356 0 m 113 115 l 278 115 l 311 435 l 335 435 q 349 436 343 435 l 369 436 q 446 406 425 436 q 457 361 458 389 q 453 303 456 333 l 433 115 l 596 115 l 617 308 q 621 412 624 367 q 589 501 618 457 l 581 517 l 593 531 q 637 601 621 564 q 656 678 653 639 q 651 755 660 717 q 619 825 642 793 q 574 876 599 857 q 521 903 549 894 q 462 915 493 913 q 396 918 431 918 l 197 918 l 113 115 m 393 597 q 382 597 388 597 q 372 599 376 597 l 329 599 l 346 754 l 369 754 q 378 754 375 754 q 389 756 382 754 l 410 756 q 443 751 431 756 q 482 722 468 743 q 493 676 496 701 q 472 629 490 650 q 428 601 454 608 q 393 597 413 597 m 400 626 q 392 632 396 629 q 383 638 389 635 q 364 640 372 640 l 363 628 l 381 628 q 396 626 388 626 l 400 626 m 439 831 q 421 795 436 810 q 386 781 406 781 q 351 795 365 781 q 340 831 338 810 q 359 865 343 850 q 396 879 375 879 q 428 865 415 879 q 439 831 442 850 m 556 811 q 537 776 553 790 q 501 761 521 761 q 467 776 481 761 q 457 811 454 790 q 476 845 460 831 q 513 860 492 860 q 545 845 532 860 q 556 811 558 831 m 629 726 q 611 692 626 707 q 576 678 596 678 q 542 692 556 678 q 531 726 528 707 q 549 762 533 747 q 586 776 565 776 q 619 762 606 776 q 629 726 632 747 m 600 608 q 581 574 597 589 q 544 560 565 560 q 512 574 525 560 q 501 608 499 589 q 519 644 504 629 q 554 658 535 658 q 589 644 575 658 q 600 608 603 629 m 511 521 q 492 485 508 500 q 456 471 476 471 q 422 485 435 471 q 411 521 408 500 q 430 556 414 542 q 467 571 446 571 q 501 556 488 571 q 511 521 514 542 m 568 422 q 550 387 565 401 q 514 372 535 372 q 481 387 494 372 q 469 422 467 401 q 488 457 472 443 q 524 471 504 471 q 558 457 544 471 q 568 422 571 443 m 569 196 q 551 160 567 175 q 517 146 536 146 q 482 160 496 146 q 471 196 468 175 q 490 230 474 215 q 526 244 506 244 q 559 230 546 244 q 569 196 572 215 m 581 308 q 562 274 578 289 q 525 260 546 260 q 492 274 506 260 q 482 308 479 289 q 501 344 485 329 q 536 358 517 358 q 570 344 557 358 q 581 308 583 329 m 394 518 q 376 483 392 497 q 340 468 360 468 q 306 483 319 468 q 296 518 293 497 q 314 552 299 538 q 350 567 329 567 q 383 552 369 567 q 394 518 397 538 m 319 828 q 301 792 317 807 q 265 778 285 778 q 231 792 244 778 q 221 828 218 807 q 240 863 224 849 q 276 876 256 876 q 309 863 296 876 q 319 828 322 849 m 306 700 q 288 666 303 681 q 253 651 272 651 q 218 666 232 651 q 207 700 204 681 q 226 735 210 721 q 263 750 242 750 q 295 735 282 750 q 306 700 308 721 m 293 569 q 274 534 290 549 q 239 519 258 519 q 205 534 218 519 q 194 569 192 549 q 213 605 197 590 q 249 619 228 619 q 282 605 268 619 q 293 569 296 590 m 279 446 q 260 410 276 425 q 225 396 244 396 q 191 410 204 396 q 181 446 178 425 q 199 480 183 465 q 236 494 215 494 q 269 480 256 494 q 279 446 282 465 m 267 319 q 248 284 264 299 q 213 269 232 269 q 178 284 192 269 q 168 319 165 299 q 186 353 171 339 q 222 368 201 368 q 256 353 242 368 q 267 319 269 339 m 253 193 q 234 159 250 174 q 199 144 218 144 q 165 159 178 144 q 154 193 151 174 q 173 228 157 214 q 210 243 189 243 q 242 228 229 243 q 253 193 256 214 z "},"s":{"ha":644,"x_min":57,"x_max":683,"o":"m 496 79 q 391 15 443 31 q 301 0 339 0 q 203 19 250 0 q 122 74 156 39 q 74 156 90 107 q 58 269 57 206 l 104 353 q 103 358 103 356 q 104 363 104 360 l 190 363 q 103 485 126 408 q 93 589 88 538 q 105 643 96 617 q 128 697 114 669 q 131 701 129 700 q 132 704 132 703 q 133 707 133 706 l 135 710 l 156 746 q 188 809 167 778 q 238 868 208 840 q 347 933 294 918 q 438 949 400 949 q 536 929 489 949 q 619 874 583 910 q 665 790 649 842 q 683 672 682 739 l 676 672 l 631 586 l 547 586 q 639 461 611 542 q 650 408 647 433 q 650 357 653 382 q 586 208 639 272 l 561 160 q 531 117 546 136 q 496 79 515 97 m 350 317 q 355 314 353 315 q 360 311 357 313 q 350 317 356 314 m 135 333 q 149 250 133 289 q 192 182 164 211 q 264 133 222 150 q 353 115 306 115 q 435 129 388 115 q 531 188 482 143 q 610 310 589 240 q 611 450 632 381 q 533 559 588 519 q 403 599 478 599 q 335 647 353 599 q 336 692 329 669 q 361 732 343 715 q 419 754 388 754 q 463 740 444 754 q 489 701 482 725 l 654 701 q 596 851 654 793 q 522 901 564 883 q 435 919 479 919 q 354 906 401 919 q 258 849 307 893 q 178 724 200 794 q 178 583 157 654 q 255 474 200 514 q 385 435 310 435 q 427 422 408 435 q 453 386 446 410 q 452 342 460 364 q 426 303 444 319 q 371 279 400 279 q 325 294 344 279 q 301 333 306 310 l 135 333 m 379 638 q 384 633 382 635 q 390 631 386 632 q 385 635 388 633 q 379 638 382 636 m 311 718 q 292 684 308 699 q 257 669 276 669 q 223 684 236 669 q 213 718 210 699 q 231 753 215 739 q 268 768 247 768 q 301 753 288 768 q 311 718 314 739 m 304 603 q 285 567 301 582 q 250 553 269 553 q 216 567 229 553 q 206 603 203 582 q 224 638 208 624 q 261 651 240 651 q 294 638 281 651 q 304 603 307 624 m 390 528 q 372 492 388 507 q 336 478 357 478 q 302 492 315 478 q 292 528 289 507 q 310 563 294 549 q 346 576 325 576 q 380 563 367 576 q 390 528 393 549 m 504 486 q 486 451 501 465 q 450 436 471 436 q 417 451 431 436 q 406 486 403 465 q 424 520 408 506 q 460 535 440 535 q 494 520 481 535 q 504 486 507 506 m 594 404 q 576 369 592 383 q 539 354 560 354 q 506 369 519 354 q 496 404 493 383 q 515 439 499 425 q 550 453 531 453 q 584 439 571 453 q 594 404 597 425 m 506 774 q 524 808 508 794 q 561 822 540 822 q 594 808 581 822 q 604 774 607 794 q 585 738 601 753 q 550 724 569 724 q 516 738 529 724 q 506 774 503 753 m 408 839 q 427 874 411 860 q 463 889 443 889 q 497 874 483 889 q 507 839 510 860 q 488 805 504 819 q 451 790 472 790 q 419 805 432 790 q 408 839 406 819 m 288 813 q 306 848 290 833 q 342 863 322 863 q 376 848 363 863 q 386 813 389 833 q 367 778 383 792 q 331 764 351 764 q 298 778 311 764 q 288 813 285 792 m 271 274 q 252 238 268 253 q 215 224 236 224 q 183 238 196 224 q 172 274 169 253 q 191 308 175 293 q 226 322 207 322 q 260 308 247 322 q 271 274 274 293 m 353 197 q 335 162 350 176 q 299 147 319 147 q 265 162 278 147 q 254 197 251 176 q 272 231 257 217 q 308 246 288 246 q 342 231 329 246 q 353 197 356 217 m 472 201 q 453 166 469 181 q 417 151 438 151 q 383 166 396 151 q 374 201 371 181 q 391 235 376 221 q 426 250 406 250 q 461 235 447 250 q 472 201 475 221 m 569 283 q 551 249 567 263 q 514 235 535 235 q 481 249 494 235 q 471 283 468 263 q 490 319 474 304 q 525 333 506 333 q 559 319 546 333 q 569 283 572 304 z "},"t":{"ha":604,"x_min":110,"x_max":668,"o":"m 178 949 l 668 949 l 644 725 l 638 725 l 592 640 l 503 640 l 444 86 l 439 86 l 392 0 l 176 0 l 243 640 l 110 640 l 132 856 l 176 938 l 178 949 m 322 756 l 254 115 l 418 115 l 486 756 l 618 756 l 635 919 l 204 919 l 188 756 l 322 756 m 464 838 q 445 802 461 817 q 408 788 429 788 q 374 802 388 788 q 364 838 361 817 q 383 872 367 857 q 419 886 399 886 q 453 872 440 886 q 464 838 467 857 m 346 839 q 327 804 343 818 q 290 790 311 790 q 257 804 269 790 q 247 839 244 818 q 265 874 250 860 q 301 889 281 889 q 335 874 322 889 q 346 839 349 860 m 590 840 q 572 805 588 819 q 535 790 556 790 q 502 805 515 790 q 492 840 489 819 q 510 874 494 860 q 546 889 526 889 q 580 874 567 889 q 590 840 593 860 m 450 710 q 431 674 447 689 q 394 660 415 660 q 360 674 374 660 q 350 710 347 689 q 369 744 353 729 q 406 758 385 758 q 440 744 426 758 q 450 710 453 729 m 438 586 q 419 552 435 567 q 382 538 403 538 q 348 552 361 538 q 338 586 335 567 q 356 622 340 607 q 393 636 372 636 q 427 622 414 636 q 438 586 440 607 m 424 453 q 405 417 421 432 q 368 403 389 403 q 334 417 347 403 q 324 453 321 432 q 342 487 326 472 q 378 501 357 501 q 413 487 399 501 q 424 453 426 472 m 410 328 q 392 292 407 307 q 356 278 376 278 q 321 292 335 278 q 310 328 307 307 q 328 362 313 347 q 365 376 344 376 q 399 362 386 376 q 410 328 413 347 m 397 201 q 378 167 394 182 q 342 153 363 153 q 308 167 321 153 q 297 201 294 182 q 316 237 300 222 q 353 251 332 251 q 387 237 374 251 q 397 201 400 222 z "},"u":{"ha":644,"x_min":57,"x_max":715,"o":"m 304 0 q 169 38 229 0 q 81 143 110 76 q 65 282 57 200 l 125 854 l 169 935 l 171 949 l 396 949 l 336 374 q 337 340 333 353 q 347 319 340 326 q 361 309 353 311 q 376 307 369 307 q 388 308 383 307 l 444 854 l 490 935 l 492 949 l 715 949 l 656 372 q 639 293 650 328 q 608 229 628 258 l 592 208 l 569 167 l 567 161 l 567 160 l 554 143 q 502 85 532 111 q 440 40 472 58 q 372 10 407 21 q 304 0 338 0 m 461 374 q 447 322 457 342 q 423 293 436 303 q 396 281 410 283 q 374 278 382 278 q 349 281 363 278 q 325 294 336 285 q 308 323 314 304 q 306 374 301 342 l 363 918 l 199 918 l 142 372 q 156 244 133 297 q 234 149 181 183 q 356 115 288 115 q 485 149 424 115 q 583 244 546 183 q 625 372 617 296 l 682 918 l 518 918 l 461 374 m 493 350 q 512 385 496 371 q 547 400 528 400 q 581 385 568 400 q 592 350 594 371 q 573 315 589 329 q 536 301 557 301 q 503 315 517 301 q 493 350 490 329 m 506 472 q 524 508 508 493 q 560 522 540 522 q 594 508 581 522 q 604 472 607 493 q 586 438 601 453 q 550 424 571 424 q 517 438 531 424 q 506 472 503 453 m 519 594 q 538 630 522 615 q 575 644 554 644 q 608 630 594 644 q 618 594 621 615 q 600 560 615 575 q 565 546 585 546 q 531 560 544 546 q 519 594 517 575 m 528 722 q 547 756 531 742 q 582 771 563 771 q 616 756 603 771 q 626 722 629 742 q 608 687 624 701 q 571 672 592 672 q 538 687 551 672 q 528 722 525 701 m 542 840 q 560 876 544 861 q 597 890 576 890 q 630 876 617 890 q 640 840 643 861 q 622 806 638 821 q 586 792 606 792 q 552 806 565 792 q 542 840 539 821 m 229 835 q 247 869 232 854 q 282 883 263 883 q 317 869 303 883 q 328 835 331 854 q 309 799 325 814 q 272 785 293 785 q 240 799 253 785 q 229 835 226 814 m 175 350 q 194 385 178 371 q 231 399 210 399 q 263 385 250 399 q 274 350 276 371 q 255 315 271 329 q 219 300 239 300 q 185 315 199 300 q 175 350 172 329 m 186 471 q 205 505 189 490 q 240 519 221 519 q 274 505 261 519 q 285 471 288 490 q 266 435 282 450 q 229 421 250 421 q 197 435 210 421 q 186 471 183 450 m 199 593 q 217 627 201 613 q 253 642 233 642 q 287 627 274 642 q 297 593 300 613 q 279 558 294 572 q 243 543 264 543 q 210 558 224 543 q 199 593 196 572 m 217 715 q 235 751 219 736 q 269 765 250 765 q 304 751 290 765 q 315 715 318 736 q 297 680 313 694 q 260 665 281 665 q 227 680 240 665 q 217 715 214 694 m 311 246 q 292 210 308 225 q 256 196 276 196 q 223 210 236 196 q 213 246 210 225 q 231 281 215 267 q 267 294 247 294 q 301 281 288 294 q 311 246 314 267 m 419 200 q 401 166 417 181 q 365 151 385 151 q 331 166 344 151 q 321 200 318 181 q 339 235 324 221 q 375 250 354 250 q 408 235 394 250 q 419 200 422 221 m 533 239 q 515 205 531 219 q 479 190 499 190 q 445 205 458 190 q 435 239 432 219 q 453 274 438 260 q 489 289 468 289 q 522 274 508 289 q 533 239 536 260 z "},"v":{"ha":629,"x_min":114,"x_max":703,"o":"m 701 947 l 478 86 l 472 86 l 426 0 l 160 0 l 160 1 l 114 854 l 160 938 l 160 947 l 386 947 l 397 728 l 431 854 l 472 929 l 476 947 l 703 947 l 701 947 m 192 918 l 233 115 l 454 115 l 665 918 l 500 918 l 378 447 l 372 617 l 357 918 l 192 918 m 321 844 q 308 808 322 825 q 274 789 294 792 q 238 799 253 786 q 222 831 222 811 q 235 867 221 850 q 271 886 249 883 q 306 877 290 889 q 321 844 321 865 m 332 717 q 318 679 332 696 q 283 660 304 663 q 248 669 263 657 q 232 701 233 682 q 245 739 231 722 q 279 758 260 756 q 315 749 300 761 q 332 717 331 736 m 336 590 q 323 554 338 571 q 289 535 308 538 q 253 544 268 532 q 236 576 238 557 q 250 613 236 597 q 283 632 264 629 q 320 623 306 635 q 336 590 335 611 m 339 468 q 326 432 340 449 q 292 413 313 415 q 256 422 271 410 q 240 454 242 433 q 253 490 239 474 q 288 510 267 507 q 322 500 307 513 q 339 468 338 488 m 340 340 q 327 304 342 321 q 293 285 313 288 q 257 294 272 282 q 240 326 242 307 q 254 363 240 346 q 288 382 268 379 q 324 373 310 385 q 340 340 339 361 m 613 826 q 590 794 607 807 q 551 785 572 782 q 521 804 532 788 q 515 842 510 821 q 539 874 521 861 q 576 883 557 886 q 607 864 596 881 q 613 826 618 847 m 579 701 q 556 669 574 682 q 518 660 538 657 q 488 679 499 663 q 483 717 478 696 q 506 748 489 736 q 544 757 524 760 q 574 738 564 754 q 579 701 585 721 m 547 576 q 524 544 542 556 q 486 535 507 532 q 456 554 467 538 q 451 590 446 571 q 474 623 457 611 q 511 632 492 635 q 542 613 531 629 q 547 576 553 596 m 515 450 q 492 417 510 429 q 454 408 474 406 q 424 428 435 411 q 419 465 414 444 q 442 497 425 485 q 481 506 460 508 q 510 486 500 503 q 515 450 521 469 m 486 318 q 463 287 481 299 q 426 278 446 275 q 396 297 407 281 q 390 333 385 314 q 413 365 396 353 q 451 375 431 378 q 481 356 471 372 q 486 318 492 339 m 343 189 q 320 156 338 168 q 283 147 303 144 q 252 167 263 150 q 247 203 242 183 q 270 235 253 224 q 307 244 288 247 q 338 225 328 242 q 343 189 349 208 m 461 189 q 438 156 456 168 q 401 147 421 144 q 370 167 381 150 q 365 203 360 183 q 388 235 371 224 q 426 244 406 247 q 456 225 446 242 q 461 189 467 208 z "},"w":{"ha":974,"x_min":61,"x_max":1035,"o":"m 811 947 l 1035 947 l 972 356 q 951 275 967 314 q 910 204 936 236 l 910 203 l 904 194 l 894 175 l 894 174 l 889 161 l 889 167 l 889 165 l 883 156 q 855 112 872 132 q 817 72 838 92 q 724 19 774 38 q 624 0 675 0 q 541 13 579 0 q 472 50 503 25 l 469 53 q 392 13 433 26 q 307 0 350 0 q 210 18 257 0 q 126 72 163 36 q 78 159 94 107 q 65 265 61 211 q 74 364 68 310 q 83 463 79 418 q 94 560 89 511 q 106 657 99 608 l 126 853 l 126 854 l 172 935 l 174 947 l 396 947 l 336 374 q 347 321 332 333 q 378 308 361 308 q 389 310 385 308 l 446 853 l 446 854 l 490 935 l 492 947 l 715 947 l 656 374 q 656 340 653 353 q 667 319 660 326 q 682 310 674 313 q 697 308 690 308 q 708 310 704 308 l 765 853 l 765 854 l 810 935 l 811 947 m 782 374 q 767 323 778 342 q 744 294 757 304 q 717 282 731 285 q 694 279 703 279 q 670 283 683 279 q 647 296 657 286 q 630 324 636 306 q 626 374 624 343 l 683 918 l 519 918 l 463 374 q 449 324 460 343 q 426 296 439 306 q 400 283 414 286 q 375 279 386 279 q 351 283 364 279 q 327 296 338 286 q 310 324 317 306 q 307 374 304 343 l 364 918 l 200 918 l 182 746 q 160 552 171 650 q 140 356 150 454 q 149 260 135 304 q 196 181 164 215 q 358 115 265 115 q 507 164 438 115 l 524 175 l 536 164 q 675 115 593 115 q 767 132 721 115 q 850 181 813 149 q 943 356 931 250 q 957 488 950 422 q 971 618 964 553 q 978 682 974 650 q 985 746 982 714 l 1003 918 l 839 918 l 782 374 m 819 351 q 838 387 822 372 q 875 401 854 401 q 908 387 894 401 q 918 351 921 372 q 899 317 915 332 q 864 303 883 303 q 830 317 843 303 q 819 351 817 332 m 833 475 q 852 509 836 494 q 889 524 868 524 q 922 509 910 524 q 932 475 935 494 q 915 440 929 454 q 879 425 900 425 q 844 440 858 425 q 833 475 831 454 m 847 596 q 865 631 850 617 q 901 646 881 646 q 935 631 922 646 q 946 596 949 617 q 928 562 943 576 q 892 547 913 547 q 858 562 871 547 q 847 596 844 576 m 858 719 q 877 753 861 739 q 914 768 893 768 q 947 753 933 768 q 957 719 960 739 q 938 684 954 699 q 903 669 922 669 q 869 684 882 669 q 858 719 856 699 m 871 843 q 890 878 874 864 q 926 893 906 893 q 959 878 946 893 q 969 843 972 864 q 951 809 967 824 q 917 794 936 794 q 882 809 896 794 q 871 843 868 824 m 497 358 q 515 394 500 379 q 551 408 531 408 q 585 394 571 408 q 596 358 599 379 q 577 324 593 338 q 542 310 561 310 q 508 324 521 310 q 497 358 494 338 m 513 481 q 531 516 515 501 q 567 531 546 531 q 601 516 588 531 q 611 481 614 501 q 592 447 608 461 q 556 432 576 432 q 522 447 535 432 q 513 481 510 461 m 525 603 q 543 638 528 624 q 579 653 558 653 q 613 638 600 653 q 624 603 626 624 q 605 568 621 582 q 568 554 589 554 q 535 568 547 554 q 525 603 522 582 m 538 721 q 556 756 540 742 q 592 771 571 771 q 626 756 613 771 q 636 721 639 742 q 617 687 633 701 q 581 672 601 672 q 547 687 560 672 q 538 721 535 701 m 549 850 q 567 885 551 871 q 604 900 583 900 q 637 885 624 900 q 647 850 650 871 q 628 815 644 829 q 593 801 613 801 q 559 815 572 801 q 549 850 546 829 m 175 360 q 194 395 178 381 q 231 410 210 410 q 263 395 250 410 q 274 360 276 381 q 255 326 271 340 q 219 311 239 311 q 185 326 199 311 q 175 360 172 340 m 188 481 q 206 516 190 501 q 243 531 222 531 q 276 516 263 531 q 286 481 289 501 q 267 447 283 461 q 232 432 251 432 q 198 447 211 432 q 188 481 185 461 m 200 603 q 219 638 203 624 q 256 653 235 653 q 288 638 275 653 q 299 603 301 624 q 280 568 296 582 q 244 554 264 554 q 210 568 224 554 q 200 603 197 582 m 213 724 q 231 758 215 743 q 268 772 247 772 q 301 758 288 772 q 311 724 314 743 q 292 688 308 703 q 257 674 276 674 q 223 688 236 674 q 213 724 210 703 m 225 850 q 244 885 228 871 q 279 900 260 900 q 313 885 300 900 q 324 850 326 871 q 305 815 321 829 q 268 801 289 801 q 235 815 249 801 q 225 850 222 829 m 626 250 q 608 215 624 229 q 572 200 593 200 q 538 215 551 200 q 528 250 525 229 q 546 284 531 269 q 582 299 561 299 q 616 284 603 299 q 626 250 629 269 m 739 204 q 720 169 736 183 q 683 156 704 156 q 650 169 663 156 q 640 204 638 183 q 658 240 643 225 q 694 254 674 254 q 728 240 715 254 q 739 204 742 225 m 858 243 q 840 209 856 224 q 804 194 824 194 q 770 209 783 194 q 760 243 757 224 q 778 278 763 264 q 815 293 794 293 q 848 278 835 293 q 858 243 861 264 m 290 249 q 272 214 288 228 q 238 200 257 200 q 203 214 217 200 q 192 249 189 228 q 210 284 194 269 q 247 299 226 299 q 280 284 267 299 q 290 249 293 269 m 392 197 q 374 162 389 176 q 338 147 358 147 q 304 162 318 147 q 293 197 290 176 q 312 233 296 218 q 347 247 328 247 q 381 233 368 247 q 392 197 394 218 m 508 232 q 490 198 506 213 q 453 183 474 183 q 419 198 432 183 q 408 232 406 213 q 427 267 411 253 q 464 282 443 282 q 498 267 485 282 q 508 232 511 253 z "},"x":{"ha":644,"x_min":13,"x_max":731,"o":"m 731 946 l 514 517 l 539 429 q 553 383 546 406 q 568 335 560 360 q 606 206 588 269 q 640 88 625 142 l 640 86 l 631 86 l 585 0 l 354 0 l 315 126 l 296 86 l 290 86 l 244 0 l 13 0 l 75 129 l 226 428 q 213 470 219 449 q 200 515 207 492 q 150 686 176 599 q 101 853 124 774 l 101 854 l 147 938 l 144 947 l 386 947 l 424 819 q 432 838 428 829 q 443 854 436 847 l 447 863 l 490 947 l 731 947 l 731 946 m 101 115 l 278 115 l 369 296 l 422 115 l 599 115 l 482 517 l 683 918 l 507 918 l 415 738 l 363 918 l 186 918 l 306 517 l 101 115 m 344 851 q 326 817 342 832 q 290 803 310 803 q 256 817 269 803 q 246 851 243 832 q 265 887 249 872 q 301 901 281 901 q 334 887 321 901 q 344 851 347 872 m 379 739 q 362 705 376 719 q 326 690 347 690 q 292 705 306 690 q 281 739 278 719 q 299 774 283 760 q 336 789 315 789 q 369 774 357 789 q 379 739 382 760 m 408 626 q 390 592 406 607 q 353 578 374 578 q 319 592 332 578 q 308 626 306 607 q 327 662 311 647 q 364 676 343 676 q 398 662 385 676 q 408 626 411 647 m 449 514 q 431 478 446 493 q 396 464 417 464 q 361 478 375 464 q 350 514 347 493 q 369 549 353 535 q 406 563 385 563 q 439 549 426 563 q 449 514 451 535 m 500 400 q 481 366 497 381 q 444 351 465 351 q 412 366 425 351 q 401 400 399 381 q 420 435 404 421 q 456 450 436 450 q 490 435 476 450 q 500 400 503 421 m 524 283 q 506 249 521 264 q 469 235 490 235 q 435 249 449 235 q 425 283 422 264 q 444 319 428 304 q 481 333 460 333 q 514 319 501 333 q 524 283 526 304 m 528 858 q 548 893 532 879 q 583 906 564 907 q 613 889 603 904 q 621 853 624 874 q 603 819 618 833 q 568 807 588 806 q 537 823 549 808 q 528 858 525 838 m 472 749 q 491 783 475 769 q 526 796 507 797 q 557 779 546 794 q 565 744 568 764 q 547 710 563 724 q 511 697 531 696 q 481 713 492 699 q 472 749 469 728 m 422 635 q 441 669 425 656 q 476 682 457 683 q 506 665 496 681 q 514 629 517 650 q 496 596 511 610 q 461 583 481 582 q 430 599 442 585 q 422 635 418 614 m 286 403 q 305 436 289 422 q 340 449 321 450 q 372 433 360 447 q 381 397 383 418 q 360 363 376 376 q 325 350 344 349 q 294 367 306 351 q 286 403 283 382 m 235 286 q 254 321 238 307 q 290 333 271 335 q 321 317 310 332 q 329 282 332 301 q 310 247 326 261 q 274 235 293 233 q 243 251 254 236 q 235 286 232 267 m 174 181 q 192 215 176 201 q 228 228 208 229 q 258 211 247 226 q 267 176 269 196 q 248 142 264 156 q 213 129 232 128 q 182 146 193 131 q 174 181 171 161 m 463 185 q 482 219 467 206 q 517 232 497 233 q 547 215 536 231 q 556 181 558 200 q 537 146 553 160 q 503 133 521 132 q 472 150 483 135 q 463 185 460 165 z "},"y":{"ha":644,"x_min":82,"x_max":713,"o":"m 224 289 q 117 390 153 324 q 90 539 82 457 l 124 854 l 168 936 l 169 949 l 393 949 l 361 642 q 363 608 358 621 q 373 587 367 594 q 388 577 379 579 q 403 575 396 575 q 414 576 410 575 l 443 854 l 488 936 l 489 949 l 713 949 l 679 629 q 614 471 671 544 l 607 456 l 594 433 l 594 435 l 590 426 q 486 315 550 357 l 463 86 l 457 86 l 410 0 l 194 0 l 224 289 m 488 642 q 474 591 485 610 q 451 563 464 572 q 425 549 439 553 q 400 546 411 546 q 376 549 389 546 q 352 563 363 553 q 335 591 342 572 q 332 642 329 610 l 361 918 l 197 918 l 167 629 q 191 492 158 553 q 288 401 224 431 l 301 396 l 272 117 l 436 117 l 465 396 l 481 401 q 597 492 551 431 q 650 629 642 553 l 681 918 l 517 918 l 488 642 m 517 600 q 535 635 519 621 q 571 649 551 649 q 605 635 592 649 q 615 600 618 621 q 597 565 613 579 q 560 550 581 550 q 527 565 540 550 q 517 600 514 579 m 531 722 q 549 758 533 743 q 586 772 565 772 q 619 758 606 772 q 629 722 632 743 q 610 688 626 703 q 575 674 594 674 q 541 688 554 674 q 531 722 528 703 m 543 844 q 562 880 546 865 q 599 894 578 894 q 631 880 618 894 q 642 844 644 865 q 624 810 639 825 q 589 796 608 796 q 554 810 568 796 q 543 844 540 825 m 193 607 q 211 641 196 626 q 247 656 226 656 q 281 641 268 656 q 292 607 294 626 q 274 572 289 586 q 238 557 258 557 q 203 572 217 557 q 193 607 190 586 m 208 729 q 226 765 211 750 q 263 779 242 779 q 296 765 282 779 q 307 729 310 750 q 288 694 304 708 q 253 679 272 679 q 219 694 232 679 q 208 729 206 708 m 221 851 q 240 886 224 872 q 276 900 256 900 q 309 886 296 900 q 319 851 322 872 q 301 816 317 831 q 265 801 285 801 q 231 816 244 801 q 221 851 218 831 m 324 326 q 342 360 326 346 q 378 375 358 375 q 412 360 399 375 q 422 326 425 346 q 403 291 419 306 q 367 276 388 276 q 334 291 347 276 q 324 326 321 306 m 311 199 q 329 234 314 219 q 364 249 344 249 q 399 234 385 249 q 410 199 413 219 q 391 165 407 179 q 354 150 375 150 q 322 165 335 150 q 311 199 308 179 m 322 497 q 303 463 319 478 q 268 449 288 449 q 234 463 247 449 q 224 497 221 478 q 242 533 226 518 q 279 547 258 547 q 312 533 299 547 q 322 497 325 518 m 435 450 q 416 415 432 429 q 381 400 400 400 q 347 415 360 400 q 336 450 333 429 q 354 485 339 471 q 390 500 369 500 q 424 485 410 500 q 435 450 438 471 m 556 492 q 537 456 553 471 q 500 442 521 442 q 467 456 481 442 q 457 492 454 471 q 475 526 460 511 q 510 540 490 540 q 544 526 531 540 q 556 492 558 511 z "},"z":{"ha":679,"x_min":33,"x_max":736,"o":"m 101 294 l 368 626 l 100 626 l 122 842 l 167 924 l 168 936 l 736 936 l 714 714 l 699 696 l 660 626 l 394 297 l 669 297 l 646 74 l 639 74 l 593 -12 l 33 -12 l 56 203 l 100 285 l 101 293 l 101 294 m 499 742 l 497 740 l 131 283 l 111 103 l 619 103 l 638 267 l 317 267 l 685 725 l 704 906 l 196 906 l 179 742 l 499 742 m 457 496 q 435 462 453 475 q 399 451 418 449 q 367 470 378 454 q 360 507 356 486 q 381 540 364 526 q 418 550 399 553 q 450 531 439 547 q 457 496 461 515 m 565 831 q 588 862 571 850 q 624 871 604 874 q 653 851 643 868 q 656 815 663 835 q 633 783 650 794 q 597 774 617 771 q 568 793 578 776 q 565 831 558 810 m 518 714 q 540 745 524 733 q 576 754 557 757 q 604 735 594 751 q 608 699 614 718 q 585 667 601 679 q 550 657 569 654 q 521 676 531 660 q 518 714 511 693 m 438 610 q 460 642 443 631 q 496 651 476 654 q 524 632 514 649 q 528 594 535 615 q 506 563 522 575 q 469 554 489 551 q 441 574 450 557 q 438 610 432 590 m 288 407 q 310 440 293 428 q 346 449 328 451 q 375 429 365 446 q 379 393 385 413 q 357 360 374 372 q 321 351 340 349 q 292 371 301 354 q 288 407 282 388 m 208 311 q 232 343 215 331 q 267 353 249 356 q 296 333 286 350 q 300 296 306 315 q 278 264 294 276 q 242 254 261 251 q 213 274 222 257 q 208 311 203 292 m 161 196 q 183 228 167 215 q 219 238 200 240 q 249 217 239 235 q 253 181 258 200 q 229 149 246 161 q 193 139 213 136 q 165 158 174 142 q 161 196 156 175 m 278 194 q 301 226 283 214 q 336 236 318 239 q 365 217 356 233 q 369 179 375 200 q 347 148 364 160 q 311 139 331 136 q 282 158 292 142 q 278 194 272 175 m 394 196 q 418 228 401 215 q 454 238 435 240 q 483 217 474 235 q 486 181 492 200 q 464 149 481 161 q 428 139 447 136 q 399 158 408 142 q 394 196 389 175 m 508 200 q 531 231 514 219 q 567 240 547 243 q 594 221 585 238 q 597 185 603 204 q 575 153 592 165 q 539 143 558 140 q 511 163 521 146 q 508 200 501 179 m 213 828 q 236 860 219 847 q 272 869 253 872 q 301 850 292 867 q 304 813 310 833 q 282 781 299 793 q 246 772 265 769 q 217 792 226 775 q 213 828 207 808 m 336 831 q 359 863 342 851 q 396 872 376 875 q 424 853 415 869 q 428 815 433 836 q 406 784 422 796 q 369 775 389 772 q 340 794 350 778 q 336 831 331 811 m 447 831 q 470 862 453 850 q 506 871 488 874 q 535 851 525 868 q 539 815 544 835 q 517 783 533 794 q 481 774 500 771 q 451 793 461 776 q 447 831 442 810 z "},"C":{"ha":644,"x_min":58,"x_max":683,"o":"m 558 167 q 449 46 515 90 q 300 0 379 0 q 219 13 263 0 q 122 75 163 31 q 65 181 81 119 q 60 240 58 211 q 64 303 61 268 l 90 553 q 99 616 94 586 q 118 675 104 646 l 125 692 l 154 744 l 163 765 q 243 870 190 824 q 356 936 296 917 q 439 949 397 949 q 535 928 490 949 q 615 868 581 907 q 665 779 647 829 q 682 672 683 729 l 682 671 l 675 671 l 629 585 l 417 585 l 417 586 q 365 639 403 636 q 361 640 363 639 l 357 640 l 357 635 q 353 602 354 618 q 351 569 351 586 l 339 463 q 335 431 336 446 q 332 399 333 415 q 329 376 331 389 q 328 353 328 363 q 342 322 329 333 q 374 310 354 310 q 405 324 389 311 q 431 361 421 338 l 431 363 l 650 363 l 650 361 q 583 213 632 276 l 558 167 m 436 918 q 363 907 403 918 q 260 850 306 890 q 192 756 215 810 q 173 701 178 729 q 165 642 168 674 l 139 393 q 135 333 136 360 q 142 278 133 306 q 191 183 154 224 q 281 126 228 143 q 319 117 301 119 q 351 115 336 115 q 442 132 399 115 q 520 178 485 149 q 580 247 556 207 q 614 332 604 286 l 449 332 q 417 294 438 308 q 372 279 397 281 l 369 279 q 318 300 339 279 q 299 351 297 321 q 303 408 300 379 q 310 463 307 438 l 322 569 q 326 624 324 596 q 333 682 328 653 q 364 733 339 713 q 419 754 389 754 l 422 754 q 464 738 446 753 q 486 700 482 724 l 651 700 q 637 787 653 747 q 592 856 621 826 q 523 901 563 885 q 436 918 483 918 m 310 679 q 291 644 307 658 q 254 629 275 629 q 222 644 235 629 q 211 679 208 658 q 230 713 214 699 q 265 728 246 728 q 299 713 286 728 q 310 679 313 699 m 296 556 q 277 522 293 536 q 240 507 261 507 q 206 522 219 507 q 196 556 193 536 q 214 591 199 576 q 250 606 229 606 q 285 591 271 606 q 296 556 299 576 m 282 435 q 264 399 279 414 q 228 385 249 385 q 193 399 207 385 q 182 435 179 414 q 201 469 185 454 q 238 483 217 483 q 272 469 258 483 q 282 435 285 454 m 504 775 q 523 809 507 794 q 558 824 539 824 q 592 809 579 824 q 603 775 606 794 q 584 740 600 754 q 547 725 568 725 q 515 740 528 725 q 504 775 501 754 m 390 826 q 409 860 393 846 q 446 875 425 875 q 479 860 467 875 q 489 826 492 846 q 471 791 486 806 q 435 776 456 776 q 401 791 414 776 q 390 826 388 806 m 271 788 q 290 822 274 807 q 325 836 306 836 q 359 822 346 836 q 369 788 372 807 q 351 752 367 767 q 314 738 335 738 q 281 752 294 738 q 271 788 268 767 m 176 315 q 195 349 179 335 q 231 364 211 364 q 265 349 251 364 q 275 315 278 335 q 257 280 272 294 q 221 265 242 265 q 188 280 201 265 q 176 315 174 294 m 236 218 q 255 253 239 239 q 292 268 271 268 q 324 253 311 268 q 335 218 338 239 q 316 184 332 199 q 281 169 300 169 q 247 184 260 169 q 236 218 233 199 m 353 199 q 371 233 356 218 q 406 247 386 247 q 440 233 426 247 q 451 199 454 218 q 433 163 449 178 q 396 149 417 149 q 363 163 376 149 q 353 199 350 178 m 458 271 q 477 306 461 292 q 514 321 493 321 q 547 306 533 321 q 557 271 560 292 q 538 237 554 251 q 503 222 522 222 q 469 237 482 222 q 458 271 456 251 z "},"D":{"ha":644,"x_min":35,"x_max":690,"o":"m 474 442 q 469 397 472 419 q 464 350 467 374 q 442 305 460 325 q 399 278 424 285 q 380 276 389 276 q 360 275 371 275 l 339 275 q 328 276 332 276 q 319 276 325 276 l 294 276 l 344 747 q 388 749 357 747 q 450 738 418 750 q 478 717 468 731 q 492 688 488 703 q 496 658 496 672 q 494 633 496 643 q 493 622 493 629 l 478 486 l 474 442 m 399 306 q 411 438 406 376 q 416 489 414 463 q 420 538 418 515 q 423 577 422 560 q 424 603 424 594 q 414 627 424 619 q 393 638 404 635 q 363 638 379 640 l 328 304 q 338 304 332 304 q 347 303 344 304 l 363 303 q 378 303 369 303 q 393 304 386 304 l 393 306 l 399 306 m 561 157 q 451 42 521 85 q 301 0 381 0 l 35 0 l 124 854 l 168 935 l 169 947 l 440 947 q 625 869 554 947 q 674 781 658 831 q 685 676 690 732 l 651 357 q 585 200 640 271 l 567 169 q 565 167 567 167 l 561 157 m 111 115 l 353 115 q 449 134 403 115 q 531 186 494 153 q 592 263 568 219 q 621 357 615 307 l 654 676 q 645 770 660 726 q 601 847 631 814 q 530 899 572 881 q 438 918 488 918 l 196 918 l 111 115 m 325 835 q 306 799 322 814 q 269 785 290 785 q 235 799 249 785 q 225 835 222 814 q 243 869 228 854 q 279 883 258 883 q 314 869 300 883 q 325 835 328 854 m 451 835 q 433 799 449 814 q 396 785 417 785 q 363 799 376 785 q 353 835 350 814 q 371 869 356 854 q 406 883 386 883 q 440 869 426 883 q 451 835 454 854 m 564 797 q 545 762 561 776 q 510 747 529 747 q 476 762 489 747 q 465 797 463 776 q 484 832 468 818 q 521 846 500 846 q 553 832 540 846 q 564 797 567 818 m 613 692 q 594 658 610 672 q 558 643 578 643 q 524 658 538 643 q 514 692 511 672 q 533 727 517 713 q 569 742 549 742 q 602 727 589 742 q 613 692 615 713 m 608 578 q 590 542 606 557 q 554 528 574 528 q 520 542 533 528 q 510 578 507 557 q 528 612 513 597 q 565 626 544 626 q 598 612 585 626 q 608 578 611 597 m 596 456 q 577 422 593 436 q 542 407 561 407 q 508 422 521 407 q 497 456 494 436 q 516 491 500 476 q 553 506 532 506 q 585 491 572 506 q 596 456 599 476 m 504 226 q 485 192 501 206 q 449 178 469 178 q 416 192 429 178 q 406 226 403 206 q 424 262 408 247 q 458 276 439 276 q 493 262 479 276 q 504 226 507 247 m 575 336 q 556 301 572 315 q 521 286 540 286 q 487 301 500 286 q 476 336 474 315 q 495 370 479 356 q 532 385 511 385 q 565 370 551 385 q 575 336 578 356 m 383 200 q 365 165 381 179 q 329 150 349 150 q 295 165 308 150 q 285 200 282 179 q 303 234 288 219 q 339 249 318 249 q 372 234 358 249 q 383 200 386 219 m 311 707 q 292 672 308 686 q 256 657 276 657 q 222 672 235 657 q 211 707 208 686 q 230 741 214 726 q 267 756 246 756 q 301 741 288 756 q 311 707 314 726 m 299 585 q 280 549 296 564 q 243 535 264 535 q 209 549 222 535 q 199 585 196 564 q 217 619 201 604 q 253 633 232 633 q 288 619 274 633 q 299 585 301 604 m 285 450 q 266 415 282 429 q 229 400 250 400 q 195 415 208 400 q 185 450 182 429 q 203 484 188 469 q 239 499 218 499 q 274 484 260 499 q 285 450 288 469 m 271 325 q 252 291 268 306 q 215 276 236 276 q 181 291 194 276 q 171 325 168 306 q 190 360 174 346 q 226 375 206 375 q 260 360 247 375 q 271 325 274 346 m 258 200 q 240 165 256 179 q 203 150 224 150 q 169 165 182 150 q 158 200 156 179 q 176 234 161 219 q 213 249 192 249 q 247 234 233 249 q 258 200 261 219 z "},"B":{"ha":644,"x_min":36,"x_max":692,"o":"m 557 149 q 446 40 514 81 q 304 0 378 0 l 36 0 l 125 854 l 169 935 l 171 947 l 443 947 q 578 908 518 947 q 669 797 639 868 q 686 675 692 738 q 622 528 678 596 l 615 514 q 653 358 661 439 q 610 238 647 299 q 601 223 607 231 q 589 208 596 215 l 557 149 m 592 531 q 653 656 640 589 q 642 785 667 722 q 564 883 617 847 q 440 918 511 918 l 199 918 l 114 115 l 356 115 q 487 151 426 115 q 585 249 547 186 q 624 378 624 311 q 589 503 625 444 l 581 517 l 592 531 m 424 754 q 476 731 456 754 q 493 676 496 708 q 464 622 489 644 q 407 599 439 599 l 329 599 l 346 754 l 424 754 m 400 628 q 371 639 389 639 l 363 639 l 361 628 l 400 628 m 389 435 q 442 412 421 435 q 460 357 463 389 q 431 302 456 325 q 374 279 406 279 l 296 279 l 311 435 l 389 435 m 367 308 q 338 319 353 319 l 329 319 l 328 308 l 367 308 m 436 829 q 418 795 433 810 q 383 781 403 781 q 349 795 363 781 q 338 829 335 810 q 356 865 340 850 q 393 879 372 879 q 426 865 413 879 q 436 829 439 850 m 374 194 q 356 160 371 174 q 321 146 340 146 q 286 160 300 146 q 275 194 272 174 q 294 230 278 215 q 331 244 310 244 q 363 230 350 244 q 374 194 376 215 m 494 214 q 476 178 492 193 q 440 164 460 164 q 406 178 419 164 q 396 214 393 193 q 414 248 399 233 q 450 263 429 263 q 483 248 469 263 q 494 214 497 233 m 588 308 q 569 273 585 288 q 533 258 554 258 q 499 273 513 258 q 489 308 486 288 q 508 343 492 329 q 544 357 524 357 q 578 343 565 357 q 588 308 590 329 m 575 424 q 556 390 572 404 q 519 375 540 375 q 486 390 499 375 q 476 424 474 404 q 494 459 479 444 q 529 474 508 474 q 564 459 550 474 q 575 424 578 444 m 553 824 q 534 788 550 803 q 497 774 518 774 q 465 788 478 774 q 454 824 451 803 q 473 858 457 843 q 508 872 489 872 q 542 858 529 872 q 553 824 556 843 m 614 614 q 595 580 611 594 q 560 565 579 565 q 526 580 539 565 q 515 614 513 594 q 534 649 518 635 q 571 664 550 664 q 603 649 590 664 q 614 614 617 635 m 621 735 q 602 701 618 715 q 565 686 586 686 q 532 701 544 686 q 522 735 519 715 q 540 770 525 756 q 576 785 556 785 q 610 770 597 785 q 621 735 624 756 m 513 518 q 494 484 510 499 q 457 469 478 469 q 424 484 438 469 q 414 518 411 499 q 432 553 417 539 q 467 568 447 568 q 501 553 488 568 q 513 518 515 539 m 396 517 q 377 483 393 497 q 342 468 361 468 q 308 483 321 468 q 297 517 294 497 q 315 552 300 538 q 351 567 331 567 q 385 552 371 567 q 396 517 399 538 m 318 831 q 300 797 315 811 q 265 782 285 782 q 231 797 244 782 q 219 831 217 811 q 238 866 222 851 q 275 881 254 881 q 308 866 294 881 q 318 831 321 851 m 306 703 q 287 669 303 683 q 251 654 271 654 q 217 669 231 654 q 207 703 204 683 q 225 738 210 724 q 261 753 240 753 q 294 738 281 753 q 306 703 308 724 m 292 572 q 273 538 289 553 q 238 524 257 524 q 203 538 217 524 q 193 572 190 553 q 212 608 196 593 q 249 622 228 622 q 281 608 268 622 q 292 572 294 593 m 278 449 q 260 413 275 428 q 225 399 244 399 q 190 413 204 399 q 179 449 176 428 q 198 484 182 469 q 235 499 214 499 q 267 484 254 499 q 278 449 281 469 m 265 322 q 247 287 263 301 q 211 272 231 272 q 177 287 190 272 q 167 322 164 301 q 185 356 169 342 q 222 371 201 371 q 255 356 242 371 q 265 322 268 342 m 251 197 q 233 162 249 176 q 199 147 218 147 q 164 162 178 147 q 153 197 150 176 q 172 231 156 217 q 208 246 188 246 q 241 231 228 246 q 251 197 254 217 z "},"A":{"ha":644,"x_min":31,"x_max":682,"o":"m 246 0 l 31 0 l 79 465 q 83 512 81 486 q 90 563 86 538 q 96 607 93 588 q 101 635 99 626 q 110 665 104 650 q 126 697 117 679 l 128 700 q 129 702 129 701 q 131 704 129 703 l 151 740 q 201 830 168 789 q 279 901 235 871 q 438 949 354 949 q 563 917 507 949 q 651 828 619 885 q 681 725 681 775 q 676 622 682 675 l 619 86 l 613 86 l 567 0 l 350 0 l 372 213 l 313 213 l 299 86 l 293 86 l 246 0 m 450 328 l 428 115 l 592 115 l 646 622 q 651 718 651 671 q 625 811 650 765 q 547 891 597 863 q 435 919 497 919 q 294 876 361 919 q 220 808 250 849 q 176 719 190 767 q 171 692 174 711 q 165 649 168 674 q 160 600 163 625 q 156 556 157 575 q 153 543 154 549 q 153 532 153 538 l 108 115 l 272 115 l 294 328 l 450 328 m 468 492 l 313 492 l 329 653 q 331 678 329 664 q 342 708 333 693 q 374 744 357 732 q 418 756 392 756 q 483 708 467 756 q 489 678 490 693 q 485 653 488 664 l 468 492 m 404 522 l 408 564 q 413 586 411 575 q 411 608 414 597 q 365 639 397 639 l 357 639 l 344 522 l 404 522 m 303 686 q 285 652 300 667 q 249 638 269 638 q 215 652 229 638 q 204 686 201 667 q 223 722 207 707 q 258 736 239 736 q 292 722 279 736 q 303 686 306 707 m 290 564 q 272 528 288 543 q 235 514 256 514 q 202 528 215 514 q 192 564 189 543 q 210 599 194 585 q 246 613 226 613 q 280 599 267 613 q 290 564 293 585 m 275 442 q 257 406 272 421 q 221 392 242 392 q 187 406 200 392 q 176 442 174 421 q 195 477 179 463 q 232 492 211 492 q 265 477 253 492 q 275 442 278 463 m 268 315 q 250 280 265 294 q 214 265 235 265 q 181 280 194 265 q 169 315 167 294 q 188 349 172 335 q 224 364 204 364 q 258 349 244 364 q 268 315 271 335 m 374 396 q 356 362 371 376 q 321 347 342 347 q 286 362 300 347 q 275 396 272 376 q 294 431 278 417 q 331 446 310 446 q 364 431 351 446 q 374 396 376 417 m 486 396 q 468 362 483 376 q 433 347 453 347 q 399 362 413 347 q 388 396 385 376 q 406 431 390 417 q 443 446 422 446 q 476 431 463 446 q 486 396 489 417 m 253 196 q 235 162 250 176 q 200 147 221 147 q 165 162 179 147 q 154 196 151 176 q 173 231 157 217 q 210 246 189 246 q 243 231 231 246 q 253 196 256 217 m 568 203 q 549 167 565 182 q 513 153 533 153 q 480 167 493 153 q 469 203 467 182 q 488 237 472 222 q 524 251 504 251 q 558 237 544 251 q 568 203 571 222 m 619 686 q 601 652 617 667 q 567 638 586 638 q 532 652 546 638 q 521 686 518 667 q 540 722 524 707 q 576 736 556 736 q 609 722 596 736 q 619 686 622 707 m 610 567 q 592 531 607 546 q 556 517 576 517 q 522 531 536 517 q 511 567 508 546 q 530 601 514 586 q 565 615 546 615 q 599 601 586 615 q 610 567 613 586 m 597 444 q 578 409 594 424 q 542 394 563 394 q 509 409 522 394 q 499 444 496 424 q 517 478 501 464 q 553 493 533 493 q 587 478 574 493 q 597 444 600 464 m 581 321 q 562 287 578 301 q 525 272 546 272 q 492 287 506 272 q 482 321 479 301 q 501 356 485 342 q 536 371 517 371 q 570 356 557 371 q 581 321 583 342 m 485 790 q 503 826 488 811 q 539 840 519 840 q 573 826 560 840 q 583 790 586 811 q 565 756 581 771 q 529 742 550 742 q 496 756 510 742 q 485 790 482 771 m 378 832 q 397 867 381 853 q 433 882 413 882 q 466 867 453 882 q 476 832 479 853 q 458 797 474 811 q 424 783 443 783 q 389 797 403 783 q 378 832 375 811 m 265 793 q 283 828 268 814 q 318 843 299 843 q 353 828 339 843 q 364 793 367 814 q 345 758 361 772 q 308 743 329 743 q 276 758 289 743 q 265 793 263 772 z "}}}
